SplineFontDB: 3.2
FontName: OCRACodeRegular
FullName: OCR A Code Regular
FamilyName: OCR A Code
Weight: Regular
Copyright: Digitized data copyright The Monotype Corporation 1991-1995. All rights reserved.
Version: ""
ItalicAngle: 0
UnderlinePosition: 0
UnderlineWidth: 0
Ascent: 1638
Descent: 410
InvalidEm: 0
sfntRevision: 0x00010000
LayerCount: 2
Layer: 0 0 "Back" 1
Layer: 1 0 "Fore" 0
XUID: [1021 396 994486733 13574]
StyleMap: 0x0040
FSType: 0
OS2Version: 3
OS2_WeightWidthSlopeOnly: 0
OS2_UseTypoMetrics: 0
CreationTime: 1570076982
ModificationTime: 1570092208
PfmFamily: 81
TTFWeight: 500
TTFWidth: 5
LineGap: 0
VLineGap: 0
Panose: 0 0 0 0 0 0 0 0 0 0
OS2TypoAscent: 1757
OS2TypoAOffset: 0
OS2TypoDescent: -362
OS2TypoDOffset: 0
OS2TypoLinegap: 0
OS2WinAscent: 1757
OS2WinAOffset: 0
OS2WinDescent: 362
OS2WinDOffset: 0
HheadAscent: 1757
HheadAOffset: 0
HheadDescent: -362
HheadDOffset: 0
OS2SubXSize: 650
OS2SubYSize: 699
OS2SubXOff: 0
OS2SubYOff: 140
OS2SupXSize: 650
OS2SupYSize: 699
OS2SupXOff: 0
OS2SupYOff: 479
OS2StrikeYSize: 49
OS2StrikeYPos: 258
OS2CapHeight: 1329
OS2XHeight: 965
OS2Vendor: 'XXXX'
OS2CodePages: 00000001.00000000
OS2UnicodeRanges: 800000af.1000204a.00000000.00000000
Lookup: 4 0 1 "'liga' Standard Ligatures lookup 0" { "'liga' Standard Ligatures lookup 0 subtable"  } ['liga' ('DFLT' <'dflt' > ) ]
DEI: 91125
LangName: 1033 "" "" "" "Monotype Corporation:OCR A Code Regular" "" "+ACIAIgAA" "" "+ACIAIgAA" "Monotype Corporation" "+ACIAIgAA" "With the advent of optical character recognition (OCR) systems, a need arose for typefaces whose characters could be easily distinguished by machines developed to read text. OCR-A is such a face that has been extended to the regular Win Ansi character set." "http://www.monotype.com/html/mtname/ms_welcome.html" "+ACIAIgAA" "Please contact the vendor to learn more about license restrictions." "http://www.monotype.com/html/mtname/ms_welcome.html" "" "OCR A Code" "Regular"
Encoding: UnicodeBmp
Compacted: 1

StartChar: .notdef
Encoding: 0 -1 0
AltUni2: 000000.ffffffff.0
Width: 472
Flags: W
LayerCount: 2
Fore
SplineSet
0 0 m 1
 0 0 0 700 0 700 c 1
 0 700 432 700 432 700 c 1
 432 700 432 0 432 0 c 1
 432 0 0 0 0 0 c 1
50 650 m 1
 50 650 50 50 50 50 c 1
 50 50 382 50 382 50 c 1
 382 50 382 650 382 650 c 1
 382 650 50 650 50 650 c 1
EndSplineSet
Validated: 1
EndChar

StartChar: exclam
Encoding: 33 33 2
Width: 1237
Flags: W
LayerCount: 2
Fore
SplineSet
754 1243 m 1
 755 1265 748 1285 731 1303 c 0
 714 1320 693 1329 670 1329 c 2
 670 1329 586 1329 586 1329 c 1
 586 1329 586 1329 586 1329 c 1
 563 1329 543 1321 526 1304 c 0
 509 1287 501 1268 502 1245 c 2
 502 1245 543 592 543 592 c 1
 543 592 543 592 543 592 c 1
 544 569 553 550 569 533 c 0
 584 516 604 508 629 508 c 1
 629 508 629 508 629 508 c 1
 651 508 670 516 686 532 c 0
 702 548 711 568 713 592 c 2
 713 592 754 1243 754 1243 c 1
 754 1243 754 1243 754 1243 c 1
586 244 m 1
 563 244 543 236 526 219 c 0
 509 202 501 181 500 158 c 2
 500 158 500 86 500 86 c 1
 500 86 500 86 500 86 c 1
 500 63 508 43 525 27 c 0
 541 10 561 2 584 2 c 2
 584 2 668 2 668 2 c 1
 668 2 668 2 668 2 c 1
 691 2 711 10 728 27 c 0
 744 43 752 63 752 86 c 2
 752 86 752 160 752 160 c 1
 752 160 752 160 752 160 c 1
 752 183 744 202 727 219 c 0
 710 236 689 244 666 244 c 2
 666 244 586 244 586 244 c 1
 586 244 586 244 586 244 c 1
EndSplineSet
Validated: 37
EndChar

StartChar: quotedbl
Encoding: 34 34 3
Width: 1237
Flags: W
LayerCount: 2
Fore
SplineSet
203 1253 m 1
 203 1253 287 799 287 799 c 1
 287 799 287 799 287 799 c 1
 296 751 324 727 373 727 c 1
 373 727 373 727 373 727 c 1
 418 727 446 751 457 799 c 2
 457 799 530 1161 530 1161 c 1
 530 1161 725 1161 725 1161 c 1
 725 1161 797 801 797 801 c 1
 797 801 797 801 797 801 c 1
 806 753 834 729 881 729 c 1
 881 729 881 729 881 729 c 1
 928 729 957 753 967 801 c 2
 967 801 1051 1253 1051 1253 c 1
 1051 1253 1051 1331 1051 1331 c 1
 1051 1331 203 1331 203 1331 c 1
 203 1331 203 1253 203 1253 c 1
EndSplineSet
Validated: 5
EndChar

StartChar: numbersign
Encoding: 35 35 4
Width: 1237
Flags: W
LayerCount: 2
Fore
SplineSet
713 510 m 1
 713 510 713 303 713 303 c 1
 713 303 713 303 713 303 c 1
 713 280 721 260 738 243 c 0
 755 226 774 217 797 217 c 1
 797 217 797 217 797 217 c 1
 820 217 841 226 858 243 c 0
 875 260 883 280 883 303 c 2
 883 303 883 510 883 510 c 1
 883 510 969 510 969 510 c 1
 969 510 969 510 969 510 c 1
 994 510 1014 519 1030 536 c 0
 1045 553 1053 572 1053 594 c 1
 1053 594 1053 594 1053 594 c 1
 1053 617 1045 636 1028 653 c 0
 1011 670 991 678 969 678 c 2
 969 678 885 678 885 678 c 1
 885 678 885 868 885 868 c 1
 885 868 969 868 969 868 c 1
 969 868 969 868 969 868 c 1
 989 868 1008 876 1026 893 c 0
 1044 910 1053 930 1053 954 c 1
 1053 954 1053 954 1053 954 c 1
 1053 977 1045 997 1028 1014 c 0
 1011 1030 992 1038 969 1038 c 2
 969 1038 883 1038 883 1038 c 1
 883 1038 883 1245 883 1245 c 1
 883 1245 883 1245 883 1245 c 1
 883 1268 875 1287 858 1304 c 0
 841 1321 820 1329 797 1329 c 1
 797 1329 797 1329 797 1329 c 1
 774 1329 755 1321 738 1305 c 0
 721 1288 713 1268 713 1245 c 2
 713 1245 713 1038 713 1038 c 1
 713 1038 545 1038 545 1038 c 1
 545 1038 545 1245 545 1245 c 1
 545 1245 545 1245 545 1245 c 1
 545 1268 537 1287 520 1304 c 0
 503 1321 484 1329 461 1329 c 1
 461 1329 461 1329 461 1329 c 1
 438 1329 418 1321 402 1305 c 0
 385 1288 377 1268 377 1245 c 2
 377 1245 377 1038 377 1038 c 1
 377 1038 291 1038 291 1038 c 1
 291 1038 291 1038 291 1038 c 1
 268 1038 248 1030 232 1014 c 0
 215 998 207 978 207 954 c 1
 207 954 207 954 207 954 c 1
 207 931 215 911 232 895 c 0
 248 878 268 870 291 870 c 2
 291 870 375 870 375 870 c 1
 375 870 375 678 375 678 c 1
 375 678 291 678 291 678 c 1
 291 678 291 678 291 678 c 1
 268 678 248 670 232 653 c 0
 215 636 207 617 207 594 c 1
 207 594 207 594 207 594 c 1
 207 571 215 551 232 535 c 0
 248 518 268 510 291 510 c 2
 291 510 377 510 377 510 c 1
 377 510 377 303 377 303 c 1
 377 303 377 303 377 303 c 1
 377 280 385 260 402 243 c 0
 418 226 438 217 461 217 c 1
 461 217 461 217 461 217 c 1
 484 217 504 226 521 243 c 0
 537 260 545 280 545 303 c 2
 545 303 545 510 545 510 c 1
 545 510 713 510 713 510 c 1
713 868 m 1
 713 868 713 678 713 678 c 1
 713 678 545 678 545 678 c 1
 545 678 545 868 545 868 c 1
 545 868 713 868 713 868 c 1
EndSplineSet
Validated: 5
EndChar

StartChar: dollar
Encoding: 36 36 5
Width: 1237
Flags: W
LayerCount: 2
Fore
SplineSet
1055 666 m 1
 1055 689 1047 708 1030 725 c 0
 1013 742 992 750 969 750 c 2
 969 750 377 750 377 750 c 1
 377 750 377 870 377 870 c 1
 377 870 971 870 971 870 c 1
 971 870 971 870 971 870 c 1
 994 870 1015 879 1032 896 c 0
 1049 913 1057 933 1057 956 c 1
 1057 956 1057 956 1057 956 c 1
 1057 979 1049 998 1032 1015 c 0
 1015 1032 994 1040 971 1040 c 2
 971 1040 713 1040 713 1040 c 1
 713 1040 713 1245 713 1245 c 1
 713 1245 713 1245 713 1245 c 1
 713 1268 705 1288 689 1305 c 0
 672 1321 653 1329 630 1329 c 1
 630 1329 630 1329 630 1329 c 1
 603 1329 582 1321 567 1304 c 0
 551 1287 543 1268 543 1245 c 2
 543 1245 543 1040 543 1040 c 1
 543 1040 291 1040 291 1040 c 1
 291 1040 291 1040 291 1040 c 1
 268 1040 248 1032 232 1016 c 0
 215 999 207 979 207 956 c 2
 207 956 207 666 207 666 c 1
 207 666 207 666 207 666 c 1
 207 642 215 622 232 606 c 0
 248 590 268 582 291 582 c 2
 291 582 883 582 883 582 c 1
 883 582 883 461 883 461 c 1
 883 461 289 461 289 461 c 1
 289 461 289 461 289 461 c 1
 266 461 246 453 230 437 c 0
 213 420 205 400 205 377 c 1
 205 377 205 377 205 377 c 1
 205 354 213 334 230 318 c 0
 247 301 266 293 289 293 c 2
 289 293 543 293 543 293 c 1
 543 293 543 86 543 86 c 1
 543 86 543 86 543 86 c 1
 543 63 551 43 568 27 c 0
 585 10 605 2 629 2 c 1
 629 2 629 2 629 2 c 1
 652 2 671 10 688 27 c 0
 705 43 713 63 713 86 c 2
 713 86 713 291 713 291 c 1
 713 291 969 291 969 291 c 1
 969 291 969 291 969 291 c 1
 992 291 1013 299 1030 316 c 0
 1047 333 1055 352 1055 375 c 2
 1055 375 1055 666 1055 666 c 1
 1055 666 1055 666 1055 666 c 1
EndSplineSet
Validated: 5
EndChar

StartChar: percent
Encoding: 37 37 6
Width: 1237
Flags: W
LayerCount: 2
Fore
SplineSet
287 1329 m 1
 264 1329 245 1321 228 1304 c 0
 211 1287 203 1266 203 1243 c 2
 203 1243 203 1096 203 1096 c 1
 203 1096 203 1096 203 1096 c 1
 203 1073 211 1054 227 1037 c 0
 243 1020 262 1012 285 1012 c 2
 285 1012 459 1012 459 1012 c 1
 459 1012 459 1012 459 1012 c 1
 482 1012 501 1021 518 1038 c 0
 535 1055 543 1075 543 1098 c 2
 543 1098 543 1243 543 1243 c 1
 543 1243 543 1243 543 1243 c 1
 543 1266 535 1287 518 1304 c 0
 501 1321 480 1329 457 1329 c 2
 457 1329 287 1329 287 1329 c 1
 287 1329 287 1329 287 1329 c 1
1028 1036 m 1
 1043 1056 1051 1077 1051 1100 c 1
 1051 1100 1051 1100 1051 1100 c 1
 1051 1124 1043 1144 1026 1159 c 0
 1009 1174 988 1182 965 1182 c 1
 965 1182 965 1182 965 1182 c 1
 940 1182 921 1174 907 1157 c 2
 907 1157 227 289 227 289 c 1
 227 289 227 289 227 289 c 1
 212 270 205 249 205 228 c 1
 205 228 205 228 205 228 c 1
 205 205 214 186 233 170 c 0
 251 153 271 145 293 145 c 1
 293 145 293 145 293 145 c 1
 316 145 334 153 348 170 c 2
 348 170 1028 1036 1028 1036 c 1
 1028 1036 1028 1036 1028 1036 c 1
795 315 m 1
 771 315 751 307 735 291 c 0
 719 275 711 255 711 231 c 2
 711 231 711 84 711 84 c 1
 711 84 711 84 711 84 c 1
 711 60 719 40 735 24 c 0
 750 8 770 0 793 0 c 2
 793 0 965 0 965 0 c 1
 965 0 965 0 965 0 c 1
 988 0 1008 8 1025 25 c 0
 1041 41 1049 61 1049 84 c 2
 1049 84 1049 231 1049 231 c 1
 1049 231 1049 231 1049 231 c 1
 1049 255 1041 275 1025 291 c 0
 1008 307 988 315 965 315 c 2
 965 315 795 315 795 315 c 1
 795 315 795 315 795 315 c 1
EndSplineSet
Validated: 5
EndChar

StartChar: ampersand
Encoding: 38 38 7
Width: 1237
Flags: W
LayerCount: 2
Fore
SplineSet
913 25 m 1
 929 8 949 0 972 0 c 1
 972 0 972 0 972 0 c 1
 995 0 1015 8 1032 24 c 0
 1048 40 1056 59 1056 82 c 1
 1056 82 1056 82 1056 82 c 1
 1056 105 1048 125 1032 143 c 2
 1032 143 944 242 944 242 c 1
 944 242 1032 319 1032 319 c 1
 1032 319 1032 319 1032 319 c 1
 1049 334 1058 354 1058 377 c 1
 1058 377 1058 377 1058 377 c 1
 1058 400 1050 419 1035 436 c 0
 1019 453 1000 461 977 461 c 1
 977 461 977 461 977 461 c 1
 954 461 932 453 913 436 c 2
 913 436 827 365 827 365 c 1
 827 365 643 559 643 559 c 1
 643 559 844 731 844 731 c 1
 844 731 844 731 844 731 c 1
 873 756 887 784 887 815 c 2
 887 815 887 928 887 928 c 1
 887 928 887 928 887 928 c 1
 887 997 862 1057 812 1107 c 0
 762 1157 702 1182 633 1182 c 2
 633 1182 463 1182 463 1182 c 1
 463 1182 463 1182 463 1182 c 1
 394 1182 334 1157 284 1107 c 0
 234 1057 209 997 209 928 c 2
 209 928 209 823 209 823 c 1
 209 823 209 823 209 823 c 1
 209 794 219 768 240 745 c 2
 240 745 395 575 395 575 c 1
 395 575 242 444 242 444 c 1
 242 444 242 444 242 444 c 1
 220 425 209 402 209 375 c 2
 209 375 209 258 209 258 c 1
 209 258 209 258 209 258 c 1
 209 187 234 127 284 77 c 0
 333 27 393 2 463 2 c 2
 463 2 637 2 637 2 c 1
 637 2 637 2 637 2 c 1
 660 2 676 7 684 18 c 2
 684 18 813 129 813 129 c 1
 813 129 913 25 913 25 c 1
 913 25 913 25 913 25 c 1
528 686 m 1
 528 686 379 846 379 846 c 1
 379 846 379 930 379 930 c 1
 379 930 379 930 379 930 c 1
 379 953 387 974 404 991 c 0
 420 1008 440 1016 463 1016 c 2
 463 1016 635 1016 635 1016 c 1
 635 1016 635 1016 635 1016 c 1
 658 1016 678 1008 695 991 c 0
 711 974 719 953 719 930 c 2
 719 930 719 848 719 848 c 1
 719 848 528 686 528 686 c 1
514 451 m 1
 514 451 696 254 696 254 c 1
 696 254 600 170 600 170 c 1
 600 170 463 170 463 170 c 1
 463 170 463 170 463 170 c 1
 440 170 421 178 404 195 c 0
 387 211 379 231 379 254 c 2
 379 254 379 336 379 336 c 1
 379 336 514 451 514 451 c 1
EndSplineSet
Validated: 5
EndChar

StartChar: quotesingle
Encoding: 39 39 8
Width: 1237
Flags: W
LayerCount: 2
Fore
SplineSet
551 1329 m 1
 524 1329 502 1320 487 1302 c 0
 471 1284 463 1262 463 1235 c 2
 463 1235 463 672 463 672 c 1
 463 672 463 672 463 672 c 1
 463 647 471 625 488 608 c 0
 504 591 524 582 549 582 c 1
 549 582 549 582 549 582 c 1
 590 582 618 603 631 645 c 2
 631 645 799 1223 799 1223 c 1
 799 1223 799 1223 799 1223 c 1
 801 1230 802 1237 802 1244 c 1
 802 1244 802 1244 802 1244 c 1
 802 1267 794 1287 777 1304 c 0
 760 1321 740 1329 717 1329 c 2
 717 1329 551 1329 551 1329 c 1
 551 1329 551 1329 551 1329 c 1
EndSplineSet
Validated: 5
EndChar

StartChar: parenleft
Encoding: 40 40 9
Width: 1237
Flags: W
LayerCount: 2
Fore
SplineSet
629 825 m 1
 629 869 642 908 668 942 c 2
 668 942 868 1196 868 1196 c 1
 868 1196 868 1196 868 1196 c 1
 878 1208 883 1224 883 1244 c 1
 883 1244 883 1244 883 1244 c 1
 883 1271 874 1293 857 1308 c 0
 839 1323 818 1331 795 1331 c 1
 795 1331 795 1331 795 1331 c 1
 772 1331 753 1322 739 1305 c 2
 739 1305 537 1047 537 1047 c 1
 537 1047 537 1047 537 1047 c 1
 486 982 461 915 461 844 c 2
 461 844 461 485 461 485 c 1
 461 485 461 485 461 485 c 1
 461 412 486 344 537 281 c 2
 537 281 739 23 739 23 c 1
 739 23 739 23 739 23 c 1
 752 6 771 -3 796 -3 c 1
 796 -3 796 -3 796 -3 c 1
 819 -3 840 5 857 20 c 0
 874 35 883 56 883 83 c 1
 883 83 883 83 883 83 c 1
 883 104 878 120 868 131 c 2
 868 131 668 387 668 387 c 1
 668 387 668 387 668 387 c 1
 642 420 629 459 629 502 c 2
 629 502 629 825 629 825 c 1
 629 825 629 825 629 825 c 1
EndSplineSet
Validated: 5
EndChar

StartChar: parenright
Encoding: 41 41 10
Width: 1237
Flags: W
LayerCount: 2
Fore
SplineSet
643 502 m 1
 643 459 629 420 602 387 c 2
 602 387 401 133 401 133 c 1
 401 133 401 133 401 133 c 1
 392 121 387 105 387 85 c 1
 387 85 387 85 387 85 c 1
 387 58 396 37 413 21 c 0
 430 5 450 -3 473 -3 c 1
 473 -3 473 -3 473 -3 c 1
 497 -3 516 6 530 23 c 2
 530 23 735 281 735 281 c 1
 735 281 735 281 735 281 c 1
 784 342 809 410 809 485 c 2
 809 485 809 844 809 844 c 1
 809 844 809 844 809 844 c 1
 809 917 784 985 735 1047 c 2
 735 1047 530 1305 530 1305 c 1
 530 1305 530 1305 530 1305 c 1
 516 1322 497 1331 474 1331 c 1
 474 1331 474 1331 474 1331 c 1
 451 1331 431 1323 414 1307 c 0
 396 1290 387 1269 387 1243 c 1
 387 1243 387 1243 387 1243 c 1
 387 1224 392 1209 401 1196 c 2
 401 1196 602 942 602 942 c 1
 602 942 602 942 602 942 c 1
 629 907 643 869 643 827 c 2
 643 827 643 502 643 502 c 1
 643 502 643 502 643 502 c 1
EndSplineSet
Validated: 5
EndChar

StartChar: asterisk
Encoding: 42 42 11
Width: 1237
Flags: W
LayerCount: 2
Fore
SplineSet
377 1016 m 1
 377 1016 377 1016 377 1016 c 1
 359 1032 339 1040 316 1040 c 1
 316 1040 316 1040 316 1040 c 1
 293 1040 274 1032 257 1015 c 0
 240 998 232 978 232 955 c 1
 232 955 232 955 232 955 c 1
 232 930 241 910 258 895 c 2
 258 895 527 664 527 664 c 1
 527 664 256 434 256 434 c 1
 256 434 256 434 256 434 c 1
 239 420 231 401 231 377 c 1
 231 377 231 377 231 377 c 1
 231 354 239 334 256 317 c 0
 272 300 292 291 315 291 c 1
 315 291 315 291 315 291 c 1
 337 291 357 298 375 313 c 2
 375 313 568 479 568 479 c 1
 568 479 568 231 568 231 c 1
 568 231 568 231 568 231 c 1
 568 208 576 189 593 172 c 0
 610 155 630 147 654 147 c 1
 654 147 654 147 654 147 c 1
 677 147 696 155 713 172 c 0
 730 189 738 208 738 231 c 2
 738 231 738 483 738 483 c 1
 738 483 934 315 934 315 c 1
 934 315 934 315 934 315 c 1
 953 300 973 292 995 292 c 1
 995 292 995 292 995 292 c 1
 1018 292 1038 300 1054 317 c 0
 1070 334 1078 354 1078 377 c 1
 1078 377 1078 377 1078 377 c 1
 1078 400 1070 419 1053 434 c 2
 1053 434 785 664 785 664 c 1
 785 664 1055 895 1055 895 c 1
 1055 895 1055 895 1055 895 c 1
 1072 910 1080 929 1080 953 c 1
 1080 953 1080 953 1080 953 c 1
 1080 975 1072 995 1057 1012 c 0
 1042 1029 1022 1037 998 1037 c 1
 998 1037 998 1037 998 1037 c 1
 974 1037 953 1029 934 1014 c 2
 934 1014 738 846 738 846 c 1
 738 846 738 1098 738 1098 c 1
 738 1098 738 1098 738 1098 c 1
 738 1121 730 1140 713 1157 c 0
 696 1174 677 1182 654 1182 c 1
 654 1182 654 1182 654 1182 c 1
 631 1182 611 1174 594 1157 c 0
 577 1140 568 1121 568 1098 c 2
 568 1098 568 850 568 850 c 1
 568 850 377 1016 377 1016 c 1
EndSplineSet
Validated: 5
EndChar

StartChar: plus
Encoding: 43 43 12
Width: 1237
Flags: W
LayerCount: 2
Fore
SplineSet
287 752 m 1
 287 752 287 752 287 752 c 1
 264 752 245 744 228 727 c 0
 211 710 203 691 203 668 c 1
 203 668 203 668 203 668 c 1
 203 645 211 625 228 609 c 0
 245 592 264 584 287 584 c 2
 287 584 545 584 545 584 c 1
 545 584 545 326 545 326 c 1
 545 326 545 326 545 326 c 1
 545 302 553 282 570 265 c 0
 586 248 606 240 629 240 c 1
 629 240 629 240 629 240 c 1
 652 240 673 248 690 265 c 0
 707 282 715 302 715 326 c 2
 715 326 715 584 715 584 c 1
 715 584 971 584 971 584 c 1
 971 584 971 584 971 584 c 1
 994 584 1015 592 1032 609 c 0
 1049 625 1057 645 1057 668 c 1
 1057 668 1057 668 1057 668 c 1
 1057 691 1049 711 1032 728 c 0
 1015 744 994 752 971 752 c 2
 971 752 713 752 713 752 c 1
 713 752 713 1010 713 1010 c 1
 713 1010 713 1010 713 1010 c 1
 713 1033 705 1052 689 1068 c 0
 673 1084 654 1092 631 1092 c 1
 631 1092 631 1092 631 1092 c 1
 607 1092 587 1084 570 1068 c 0
 553 1052 545 1033 545 1010 c 2
 545 1010 545 752 545 752 c 1
 545 752 287 752 287 752 c 1
EndSplineSet
Validated: 5
EndChar

StartChar: comma
Encoding: 44 44 13
Width: 1237
Flags: W
LayerCount: 2
Fore
SplineSet
883 522 m 1
 883 546 875 566 859 583 c 0
 842 600 822 608 799 608 c 2
 799 608 459 608 459 608 c 1
 459 608 459 608 459 608 c 1
 436 608 417 600 400 583 c 0
 383 566 375 547 375 524 c 1
 375 524 375 524 375 524 c 1
 375 501 383 481 400 464 c 0
 416 447 436 438 459 438 c 2
 459 438 715 438 715 438 c 1
 715 438 715 86 715 86 c 1
 715 86 715 86 715 86 c 1
 715 63 723 43 740 27 c 0
 756 10 776 2 799 2 c 1
 799 2 799 2 799 2 c 1
 822 2 842 10 859 27 c 0
 875 43 883 63 883 86 c 2
 883 86 883 522 883 522 c 1
 883 522 883 522 883 522 c 1
EndSplineSet
Validated: 5
EndChar

StartChar: hyphen
Encoding: 45 45 14
Width: 1237
Flags: W
LayerCount: 2
Fore
SplineSet
1053 670 m 1
 1053 695 1044 715 1027 731 c 0
 1010 746 990 754 969 754 c 2
 969 754 291 754 291 754 c 1
 291 754 291 754 291 754 c 1
 268 754 248 746 232 730 c 0
 215 713 207 693 207 670 c 2
 207 670 207 596 207 596 c 1
 207 596 207 596 207 596 c 1
 207 573 215 553 232 536 c 0
 248 519 268 510 291 510 c 2
 291 510 969 510 969 510 c 1
 969 510 969 510 969 510 c 1
 992 510 1012 519 1029 536 c 0
 1045 553 1053 573 1053 596 c 2
 1053 596 1053 670 1053 670 c 1
 1053 670 1053 670 1053 670 c 1
EndSplineSet
Validated: 5
EndChar

StartChar: period
Encoding: 46 46 15
Width: 1237
Flags: W
LayerCount: 2
Fore
SplineSet
543 530 m 1
 519 530 499 522 482 506 c 0
 465 489 457 469 457 446 c 2
 457 446 457 301 457 301 c 1
 457 301 457 301 457 301 c 1
 457 278 465 259 482 242 c 0
 498 225 518 217 541 217 c 2
 541 217 713 217 713 217 c 1
 713 217 713 217 713 217 c 1
 736 217 756 226 773 243 c 0
 789 260 797 280 797 303 c 2
 797 303 797 446 797 446 c 1
 797 446 797 446 797 446 c 1
 797 469 789 489 772 506 c 0
 755 522 736 530 713 530 c 2
 713 530 543 530 543 530 c 1
 543 530 543 530 543 530 c 1
EndSplineSet
Validated: 5
EndChar

StartChar: slash
Encoding: 47 47 16
Width: 1237
Flags: W
LayerCount: 2
Fore
SplineSet
1050 1184 m 1
 1064 1207 1071 1230 1071 1252 c 1
 1071 1252 1071 1252 1071 1252 c 1
 1071 1275 1062 1294 1043 1309 c 0
 1024 1323 1003 1330 982 1330 c 1
 982 1330 982 1330 982 1330 c 1
 958 1330 940 1321 929 1303 c 2
 929 1303 247 145 247 145 c 1
 247 145 247 145 247 145 c 1
 234 122 227 100 227 79 c 1
 227 79 227 79 227 79 c 1
 227 56 237 37 256 22 c 0
 275 7 295 -1 317 -1 c 1
 317 -1 317 -1 317 -1 c 1
 340 -1 357 8 368 25 c 2
 368 25 1050 1184 1050 1184 c 1
 1050 1184 1050 1184 1050 1184 c 1
EndSplineSet
Validated: 5
EndChar

StartChar: zero
Encoding: 48 48 17
Width: 1237
Flags: W
LayerCount: 2
Fore
SplineSet
203 164 m 1
 203 119 219 81 250 50 c 0
 281 18 320 2 365 2 c 2
 365 2 887 2 887 2 c 1
 887 2 887 2 887 2 c 1
 932 2 970 18 1002 50 c 0
 1033 81 1049 119 1049 164 c 2
 1049 164 1049 1169 1049 1169 c 1
 1049 1169 1049 1169 1049 1169 c 1
 1049 1213 1033 1251 1002 1283 c 0
 970 1315 932 1331 889 1331 c 2
 889 1331 365 1331 365 1331 c 1
 365 1331 365 1331 365 1331 c 1
 321 1331 283 1315 251 1283 c 0
 219 1251 203 1213 203 1169 c 2
 203 1169 203 164 203 164 c 1
 203 164 203 164 203 164 c 1
371 170 m 1
 371 170 371 1161 371 1161 c 1
 371 1161 883 1161 883 1161 c 1
 883 1161 883 170 883 170 c 1
 883 170 371 170 371 170 c 1
EndSplineSet
Validated: 5
EndChar

StartChar: one
Encoding: 49 49 18
Width: 1237
Flags: W
LayerCount: 2
Fore
SplineSet
285 170 m 1
 262 170 242 162 226 146 c 0
 209 130 201 111 201 88 c 1
 201 88 201 88 201 88 c 1
 201 65 209 45 226 28 c 0
 242 11 262 2 285 2 c 2
 285 2 963 2 963 2 c 1
 963 2 963 2 963 2 c 1
 986 2 1006 10 1023 27 c 0
 1039 43 1047 63 1047 86 c 2
 1047 86 1047 520 1047 520 c 1
 1047 520 1047 520 1047 520 c 1
 1047 543 1039 563 1023 580 c 0
 1006 596 986 604 963 604 c 1
 963 604 963 604 963 604 c 1
 940 604 920 596 904 579 c 0
 887 562 879 543 879 520 c 2
 879 520 879 170 879 170 c 1
 879 170 711 170 711 170 c 1
 711 170 711 1329 711 1329 c 1
 711 1329 289 1329 289 1329 c 1
 289 1329 289 1329 289 1329 c 1
 266 1329 246 1321 230 1305 c 0
 213 1288 205 1268 205 1245 c 1
 205 1245 205 1245 205 1245 c 1
 205 1222 213 1202 230 1186 c 0
 246 1169 266 1161 289 1161 c 2
 289 1161 543 1161 543 1161 c 1
 543 1161 543 170 543 170 c 1
 543 170 285 170 285 170 c 1
 285 170 285 170 285 170 c 1
EndSplineSet
Validated: 5
EndChar

StartChar: two
Encoding: 50 50 19
Width: 1237
Flags: W
LayerCount: 2
Fore
SplineSet
969 2 m 1
 992 2 1011 10 1028 27 c 0
 1045 43 1053 63 1053 86 c 1
 1053 86 1053 86 1053 86 c 1
 1053 109 1045 129 1028 146 c 0
 1011 162 992 170 969 170 c 2
 969 170 373 170 373 170 c 1
 373 170 373 582 373 582 c 1
 373 582 883 582 883 582 c 1
 883 582 883 582 883 582 c 1
 930 582 970 599 1003 632 c 0
 1036 665 1053 705 1053 752 c 2
 1053 752 1053 1161 1053 1161 c 1
 1053 1161 1053 1161 1053 1161 c 1
 1053 1207 1036 1247 1003 1280 c 0
 970 1313 930 1329 883 1329 c 2
 883 1329 283 1329 283 1329 c 1
 283 1329 283 1329 283 1329 c 1
 259 1329 239 1321 223 1305 c 0
 207 1288 199 1268 199 1245 c 1
 199 1245 199 1245 199 1245 c 1
 199 1222 207 1202 223 1186 c 0
 239 1169 259 1161 283 1161 c 2
 283 1161 883 1161 883 1161 c 1
 883 1161 883 752 883 752 c 1
 883 752 373 752 373 752 c 1
 373 752 373 752 373 752 c 1
 327 752 288 735 255 702 c 0
 222 669 205 629 205 582 c 2
 205 582 205 2 205 2 c 1
 205 2 969 2 969 2 c 1
 969 2 969 2 969 2 c 1
EndSplineSet
Validated: 5
EndChar

StartChar: three
Encoding: 51 51 20
Width: 1237
Flags: W
LayerCount: 2
Fore
SplineSet
1053 1161 m 1
 1053 1207 1037 1247 1004 1280 c 0
 971 1313 932 1329 885 1329 c 2
 885 1329 285 1329 285 1329 c 1
 285 1329 285 1329 285 1329 c 1
 262 1329 242 1321 226 1305 c 0
 209 1288 201 1268 201 1245 c 1
 201 1245 201 1245 201 1245 c 1
 201 1222 209 1202 226 1186 c 0
 242 1169 262 1161 285 1161 c 2
 285 1161 885 1161 885 1161 c 1
 885 1161 885 836 885 836 c 1
 885 836 885 836 885 836 c 1
 885 813 877 793 860 777 c 0
 843 760 824 752 801 752 c 2
 801 752 461 752 461 752 c 1
 461 752 461 752 461 752 c 1
 438 752 418 744 402 728 c 0
 385 711 377 691 377 668 c 1
 377 668 377 668 377 668 c 1
 377 644 385 624 402 608 c 0
 418 592 438 584 461 584 c 2
 461 584 799 584 799 584 c 1
 799 584 799 584 799 584 c 1
 822 584 842 576 859 559 c 0
 875 542 883 521 883 498 c 2
 883 498 883 170 883 170 c 1
 883 170 291 170 291 170 c 1
 291 170 291 170 291 170 c 1
 268 170 248 162 232 146 c 0
 215 129 207 109 207 86 c 1
 207 86 207 86 207 86 c 1
 207 63 215 43 232 27 c 0
 248 10 268 2 291 2 c 2
 291 2 885 2 885 2 c 1
 885 2 885 2 885 2 c 1
 932 2 972 19 1005 52 c 0
 1038 85 1055 124 1055 170 c 2
 1055 170 1055 498 1055 498 c 1
 1055 498 1055 498 1055 498 c 1
 1055 559 1032 616 985 668 c 1
 985 668 985 668 985 668 c 1
 1030 713 1053 773 1053 846 c 2
 1053 846 1053 1161 1053 1161 c 1
 1053 1161 1053 1161 1053 1161 c 1
EndSplineSet
Validated: 5
EndChar

StartChar: four
Encoding: 52 52 21
Width: 1237
Flags: W
LayerCount: 2
Fore
SplineSet
756 86 m 1
 756 63 764 43 781 27 c 0
 797 10 817 2 840 2 c 1
 840 2 840 2 840 2 c 1
 863 2 882 10 899 27 c 0
 916 43 924 63 924 86 c 2
 924 86 924 438 924 438 c 1
 924 438 924 438 924 438 c 1
 947 438 967 446 984 463 c 0
 1000 479 1008 499 1008 522 c 1
 1008 522 1008 522 1008 522 c 1
 1008 545 1000 565 984 582 c 0
 967 598 947 606 924 606 c 1
 924 606 924 1098 924 1098 c 1
 924 1098 924 1098 924 1098 c 1
 924 1121 916 1142 900 1159 c 0
 883 1176 863 1184 840 1184 c 1
 840 1184 840 1184 840 1184 c 1
 817 1184 797 1176 781 1159 c 0
 764 1142 756 1121 756 1098 c 2
 756 1098 756 606 756 606 c 1
 756 606 420 606 420 606 c 1
 420 606 420 1245 420 1245 c 1
 420 1245 420 1245 420 1245 c 1
 420 1268 412 1289 395 1306 c 0
 378 1323 359 1331 336 1331 c 1
 336 1331 336 1331 336 1331 c 1
 313 1331 293 1323 276 1306 c 0
 259 1289 250 1268 250 1245 c 2
 250 1245 250 436 250 436 c 1
 250 436 756 436 756 436 c 1
 756 436 756 86 756 86 c 1
 756 86 756 86 756 86 c 1
EndSplineSet
Validated: 5
EndChar

StartChar: five
Encoding: 53 53 22
Width: 1237
Flags: W
LayerCount: 2
Fore
SplineSet
514 170 m 1
 500 170 486 174 473 182 c 2
 473 182 362 229 362 229 c 1
 362 229 362 229 362 229 c 1
 340 239 321 244 304 244 c 1
 304 244 304 244 304 244 c 1
 282 244 263 236 248 220 c 0
 233 203 225 183 225 160 c 1
 225 160 225 160 225 160 c 1
 225 121 242 94 276 80 c 2
 276 80 403 27 403 27 c 1
 403 27 403 27 403 27 c 1
 442 10 479 2 514 2 c 2
 514 2 903 2 903 2 c 1
 903 2 903 2 903 2 c 1
 949 2 989 19 1022 52 c 0
 1055 85 1071 124 1071 170 c 2
 1071 170 1071 582 1071 582 c 1
 1071 582 1071 582 1071 582 c 1
 1071 627 1054 667 1021 700 c 0
 988 733 948 750 903 750 c 2
 903 750 565 750 565 750 c 1
 565 750 565 1161 565 1161 c 1
 565 1161 987 1161 987 1161 c 1
 987 1161 987 1161 987 1161 c 1
 1010 1161 1030 1169 1047 1186 c 0
 1063 1202 1071 1222 1071 1245 c 1
 1071 1245 1071 1245 1071 1245 c 1
 1071 1268 1063 1287 1046 1304 c 0
 1029 1321 1010 1329 987 1329 c 2
 987 1329 395 1329 395 1329 c 1
 395 1329 395 582 395 582 c 1
 395 582 903 582 903 582 c 1
 903 582 903 170 903 170 c 1
 903 170 514 170 514 170 c 1
 514 170 514 170 514 170 c 1
EndSplineSet
Validated: 5
EndChar

StartChar: six
Encoding: 54 54 23
Width: 1237
Flags: W
LayerCount: 2
Fore
SplineSet
293 1329 m 1
 269 1329 249 1321 232 1305 c 0
 215 1288 207 1268 207 1245 c 2
 207 1245 207 86 207 86 c 1
 207 86 207 86 207 86 c 1
 207 63 216 44 233 27 c 0
 250 10 270 2 293 2 c 2
 293 2 967 2 967 2 c 1
 967 2 967 2 967 2 c 1
 990 2 1011 10 1028 27 c 0
 1045 43 1053 63 1053 86 c 2
 1053 86 1053 520 1053 520 c 1
 1053 520 1053 520 1053 520 c 1
 1053 543 1045 564 1028 581 c 0
 1011 598 992 606 969 606 c 2
 969 606 377 606 377 606 c 1
 377 606 377 1161 377 1161 c 1
 377 1161 377 1161 377 1161 c 1
 400 1161 420 1169 437 1186 c 0
 453 1202 461 1222 461 1245 c 1
 461 1245 461 1245 461 1245 c 1
 461 1268 453 1287 437 1304 c 0
 420 1321 400 1329 377 1329 c 2
 377 1329 293 1329 293 1329 c 1
 293 1329 293 1329 293 1329 c 1
883 436 m 1
 883 436 883 170 883 170 c 1
 883 170 375 170 375 170 c 1
 375 170 375 436 375 436 c 1
 375 436 883 436 883 436 c 1
EndSplineSet
Validated: 5
EndChar

StartChar: seven
Encoding: 55 55 24
Width: 1237
Flags: W
LayerCount: 2
Fore
SplineSet
203 1171 m 1
 203 1148 211 1128 228 1112 c 0
 244 1095 264 1087 287 1087 c 1
 287 1087 287 1087 287 1087 c 1
 331 1087 359 1111 371 1159 c 1
 371 1159 879 1159 879 1159 c 1
 879 1159 879 846 879 846 c 1
 879 846 569 584 569 584 c 1
 569 584 569 584 569 584 c 1
 549 567 539 542 539 510 c 2
 539 510 539 86 539 86 c 1
 539 86 539 86 539 86 c 1
 539 63 548 44 565 27 c 0
 582 10 602 2 625 2 c 1
 625 2 625 2 625 2 c 1
 648 2 668 11 685 28 c 0
 701 45 709 65 709 88 c 2
 709 88 709 479 709 479 c 1
 709 479 1018 743 1018 743 c 1
 1018 743 1018 743 1018 743 c 1
 1039 761 1049 784 1049 811 c 2
 1049 811 1049 1327 1049 1327 c 1
 1049 1327 287 1327 287 1327 c 1
 287 1327 287 1327 287 1327 c 1
 264 1327 244 1319 228 1303 c 0
 211 1286 203 1266 203 1243 c 2
 203 1243 203 1171 203 1171 c 1
 203 1171 203 1171 203 1171 c 1
EndSplineSet
Validated: 5
EndChar

StartChar: eight
Encoding: 56 56 25
Width: 1237
Flags: W
LayerCount: 2
Fore
SplineSet
201 172 m 1
 201 128 218 89 251 54 c 0
 284 19 324 2 371 2 c 2
 371 2 881 2 881 2 c 1
 881 2 881 2 881 2 c 1
 926 2 966 19 999 52 c 0
 1032 85 1049 124 1049 170 c 2
 1049 170 1049 582 1049 582 c 1
 1049 582 1049 582 1049 582 c 1
 1049 629 1032 669 999 702 c 0
 966 734 926 750 881 750 c 1
 881 750 881 1245 881 1245 c 1
 881 1245 881 1245 881 1245 c 1
 881 1268 873 1288 857 1305 c 0
 840 1321 820 1329 797 1329 c 2
 797 1329 455 1329 455 1329 c 1
 455 1329 455 1329 455 1329 c 1
 431 1329 411 1321 395 1305 c 0
 379 1288 371 1268 371 1245 c 2
 371 1245 371 750 371 750 c 1
 371 750 371 750 371 750 c 1
 324 750 284 734 251 701 c 0
 218 668 201 628 201 582 c 2
 201 582 201 172 201 172 c 1
 201 172 201 172 201 172 c 1
713 1161 m 1
 713 1161 713 750 713 750 c 1
 713 750 539 750 539 750 c 1
 539 750 539 1161 539 1161 c 1
 539 1161 713 1161 713 1161 c 1
881 582 m 1
 881 582 881 170 881 170 c 1
 881 170 371 170 371 170 c 1
 371 170 371 582 371 582 c 1
 371 582 881 582 881 582 c 1
EndSplineSet
Validated: 5
EndChar

StartChar: nine
Encoding: 57 57 26
Width: 1237
Flags: W
LayerCount: 2
Fore
SplineSet
969 4 m 1
 992 4 1012 12 1029 29 c 0
 1045 45 1053 65 1053 88 c 2
 1053 88 1053 1247 1053 1247 c 1
 1053 1247 1053 1247 1053 1247 c 1
 1053 1270 1045 1289 1028 1306 c 0
 1011 1323 992 1331 969 1331 c 2
 969 1331 293 1331 293 1331 c 1
 293 1331 293 1331 293 1331 c 1
 270 1331 251 1323 234 1306 c 0
 217 1289 209 1270 209 1247 c 2
 209 1247 209 811 209 811 c 1
 209 811 209 811 209 811 c 1
 209 788 217 769 234 752 c 0
 251 735 270 727 293 727 c 2
 293 727 885 727 885 727 c 1
 885 727 885 172 885 172 c 1
 885 172 885 172 885 172 c 1
 862 172 842 164 826 148 c 0
 809 131 801 111 801 88 c 1
 801 88 801 88 801 88 c 1
 801 65 809 45 826 29 c 0
 843 12 862 4 885 4 c 2
 885 4 969 4 969 4 c 1
 969 4 969 4 969 4 c 1
377 897 m 1
 377 897 377 1161 377 1161 c 1
 377 1161 887 1161 887 1161 c 1
 887 1161 887 897 887 897 c 1
 887 897 377 897 377 897 c 1
EndSplineSet
Validated: 5
EndChar

StartChar: colon
Encoding: 58 58 27
Width: 1237
Flags: W
LayerCount: 2
Fore
SplineSet
545 1110 m 1
 522 1110 502 1102 486 1085 c 0
 469 1068 461 1049 461 1026 c 2
 461 1026 461 881 461 881 c 1
 461 881 461 881 461 881 c 1
 461 857 469 837 485 821 c 0
 500 805 520 797 543 797 c 2
 543 797 715 797 715 797 c 1
 715 797 715 797 715 797 c 1
 737 797 757 805 774 822 c 0
 791 839 799 858 799 881 c 2
 799 881 799 1026 799 1026 c 1
 799 1026 799 1026 799 1026 c 1
 799 1046 791 1065 774 1083 c 0
 757 1101 737 1110 713 1110 c 2
 713 1110 545 1110 545 1110 c 1
 545 1110 545 1110 545 1110 c 1
545 530 m 1
 522 530 502 522 486 506 c 0
 469 490 461 470 461 446 c 2
 461 446 461 301 461 301 c 1
 461 301 461 301 461 301 c 1
 461 278 469 259 485 242 c 0
 500 225 520 217 543 217 c 2
 543 217 715 217 715 217 c 1
 715 217 715 217 715 217 c 1
 738 217 757 226 774 243 c 0
 791 260 799 280 799 303 c 2
 799 303 799 446 799 446 c 1
 799 446 799 446 799 446 c 1
 799 469 791 489 774 506 c 0
 757 522 736 530 713 530 c 2
 713 530 545 530 545 530 c 1
 545 530 545 530 545 530 c 1
EndSplineSet
Validated: 5
EndChar

StartChar: semicolon
Encoding: 59 59 28
Width: 1237
Flags: W
LayerCount: 2
Fore
SplineSet
457 1186 m 1
 434 1186 415 1178 398 1161 c 0
 381 1144 373 1125 373 1102 c 2
 373 1102 373 958 373 958 c 1
 373 958 373 958 373 958 c 1
 373 935 381 915 398 899 c 0
 414 882 434 874 457 874 c 2
 457 874 627 874 627 874 c 1
 627 874 627 874 627 874 c 1
 650 874 670 882 687 899 c 0
 703 915 711 935 711 958 c 2
 711 958 711 1102 711 1102 c 1
 711 1102 711 1102 711 1102 c 1
 711 1125 703 1145 687 1162 c 0
 670 1178 650 1186 627 1186 c 2
 627 1186 457 1186 457 1186 c 1
 457 1186 457 1186 457 1186 c 1
877 522 m 1
 877 545 869 566 852 583 c 0
 835 600 815 608 793 608 c 2
 793 608 453 608 453 608 c 1
 453 608 453 608 453 608 c 1
 430 608 410 600 394 583 c 0
 377 566 369 547 369 524 c 1
 369 524 369 524 369 524 c 1
 369 501 377 481 393 464 c 0
 409 447 428 438 451 438 c 2
 451 438 707 438 707 438 c 1
 707 438 707 86 707 86 c 1
 707 86 707 86 707 86 c 1
 707 63 715 43 732 27 c 0
 749 10 769 2 793 2 c 1
 793 2 793 2 793 2 c 1
 816 2 835 10 852 27 c 0
 869 43 877 63 877 86 c 2
 877 86 877 522 877 522 c 1
 877 522 877 522 877 522 c 1
EndSplineSet
Validated: 5
EndChar

StartChar: less
Encoding: 60 60 29
Width: 1237
Flags: W
LayerCount: 2
Fore
SplineSet
207 633 m 1
 207 598 224 572 258 553 c 2
 258 553 920 162 920 162 c 1
 920 162 920 162 920 162 c 1
 939 150 957 144 974 144 c 1
 974 144 974 144 974 144 c 1
 995 144 1015 152 1032 169 c 0
 1049 186 1057 206 1057 230 c 1
 1057 230 1057 230 1057 230 c 1
 1057 261 1045 285 1020 301 c 2
 1020 301 401 666 401 666 c 1
 401 666 1020 1032 1020 1032 c 1
 1020 1032 1020 1032 1020 1032 c 1
 1045 1047 1057 1070 1057 1101 c 1
 1057 1101 1057 1101 1057 1101 c 1
 1057 1125 1049 1145 1032 1162 c 0
 1015 1179 995 1187 974 1187 c 1
 974 1187 974 1187 974 1187 c 1
 956 1187 938 1181 920 1169 c 2
 920 1169 258 778 258 778 c 1
 258 778 258 778 258 778 c 1
 224 758 207 731 207 698 c 2
 207 698 207 633 207 633 c 1
 207 633 207 633 207 633 c 1
EndSplineSet
Validated: 5
EndChar

StartChar: equal
Encoding: 61 61 30
Width: 1237
Flags: W
LayerCount: 2
Fore
SplineSet
967 799 m 1
 990 799 1010 807 1027 824 c 0
 1043 840 1051 860 1051 883 c 1
 1051 883 1051 883 1051 883 c 1
 1051 906 1043 926 1027 943 c 0
 1010 959 990 967 967 967 c 2
 967 967 287 967 287 967 c 1
 287 967 287 967 287 967 c 1
 264 967 245 959 228 942 c 0
 211 925 203 906 203 883 c 1
 203 883 203 883 203 883 c 1
 203 860 211 841 228 824 c 0
 245 807 264 799 287 799 c 2
 287 799 967 799 967 799 c 1
 967 799 967 799 967 799 c 1
967 436 m 1
 990 436 1010 445 1027 462 c 0
 1043 479 1051 499 1051 522 c 1
 1051 522 1051 522 1051 522 c 1
 1051 545 1043 564 1026 581 c 0
 1009 598 990 606 967 606 c 2
 967 606 287 606 287 606 c 1
 287 606 287 606 287 606 c 1
 264 606 245 598 228 582 c 0
 211 565 203 545 203 522 c 1
 203 522 203 522 203 522 c 1
 203 499 211 479 228 462 c 0
 245 445 264 436 287 436 c 2
 287 436 967 436 967 436 c 1
 967 436 967 436 967 436 c 1
EndSplineSet
Validated: 5
EndChar

StartChar: greater
Encoding: 62 62 31
Width: 1237
Flags: W
LayerCount: 2
Fore
SplineSet
1078 698 m 1
 1078 732 1062 759 1029 778 c 2
 1029 778 367 1169 367 1169 c 1
 367 1169 367 1169 367 1169 c 1
 347 1181 329 1187 312 1187 c 1
 312 1187 312 1187 312 1187 c 1
 291 1187 272 1179 255 1163 c 0
 238 1147 229 1127 229 1102 c 1
 229 1102 229 1102 229 1102 c 1
 229 1070 242 1046 267 1030 c 2
 267 1030 885 666 885 666 c 1
 885 666 267 299 267 299 c 1
 267 299 267 299 267 299 c 1
 242 284 229 261 229 229 c 1
 229 229 229 229 229 229 c 1
 229 204 238 184 255 168 c 0
 272 152 291 144 312 144 c 1
 312 144 312 144 312 144 c 1
 329 144 348 150 367 162 c 2
 367 162 1029 553 1029 553 c 1
 1029 553 1029 553 1029 553 c 1
 1062 572 1078 599 1078 633 c 2
 1078 633 1078 698 1078 698 c 1
 1078 698 1078 698 1078 698 c 1
EndSplineSet
Validated: 5
EndChar

StartChar: question
Encoding: 63 63 32
Width: 1237
Flags: W
LayerCount: 2
Fore
SplineSet
1052 897 m 1
 1067 910 1075 929 1075 954 c 2
 1075 954 1075 1098 1075 1098 c 1
 1075 1098 1075 1098 1075 1098 c 1
 1075 1125 1065 1146 1046 1161 c 2
 1046 1161 874 1311 874 1311 c 1
 874 1311 874 1311 874 1311 c 1
 861 1322 844 1328 823 1328 c 1
 823 1328 823 1328 823 1328 c 1
 801 1328 782 1322 767 1309 c 2
 767 1309 251 870 251 870 c 1
 251 870 251 870 251 870 c 1
 236 857 229 837 229 810 c 1
 229 810 229 810 229 810 c 1
 229 785 238 764 255 748 c 0
 272 732 291 724 312 724 c 1
 312 724 312 724 312 724 c 1
 333 724 354 733 374 750 c 2
 374 750 821 1133 821 1133 c 1
 821 1133 905 1057 905 1057 c 1
 905 1057 905 995 905 995 c 1
 905 995 425 582 425 582 c 1
 425 582 425 582 425 582 c 1
 408 567 399 544 399 514 c 2
 399 514 399 375 399 375 c 1
 399 375 399 375 399 375 c 1
 399 352 407 333 424 316 c 0
 440 299 460 291 483 291 c 1
 483 291 483 291 483 291 c 1
 506 291 525 299 542 316 c 0
 559 333 567 352 567 375 c 2
 567 375 567 479 567 479 c 1
 567 479 1052 897 1052 897 c 1
 1052 897 1052 897 1052 897 c 1
481 172 m 1
 458 172 438 164 422 147 c 0
 405 130 397 109 397 86 c 1
 397 86 397 86 397 86 c 1
 397 63 405 43 422 27 c 0
 438 10 458 2 481 2 c 1
 481 2 481 2 481 2 c 1
 504 2 524 10 541 27 c 0
 557 43 565 63 565 86 c 1
 565 86 565 86 565 86 c 1
 565 109 557 130 541 147 c 0
 524 164 504 172 481 172 c 1
 481 172 481 172 481 172 c 1
EndSplineSet
Validated: 5
EndChar

StartChar: at
Encoding: 64 64 33
Width: 1237
Flags: W
LayerCount: 2
Fore
SplineSet
885 254 m 1
 885 231 877 211 860 195 c 0
 843 178 824 170 801 170 c 1
 801 170 801 170 801 170 c 1
 778 170 758 178 742 195 c 0
 725 211 717 231 717 254 c 2
 717 254 717 731 717 731 c 1
 717 731 717 731 717 731 c 1
 717 791 687 821 627 821 c 2
 627 821 463 821 463 821 c 1
 463 821 463 821 463 821 c 1
 393 821 333 796 284 746 c 0
 234 696 209 636 209 567 c 2
 209 567 209 244 209 244 c 1
 209 244 209 244 209 244 c 1
 209 183 234 127 283 77 c 0
 332 27 392 2 463 2 c 1
 463 2 463 2 463 2 c 1
 532 2 589 24 633 68 c 1
 633 68 633 68 633 68 c 1
 678 24 735 2 805 2 c 1
 805 2 805 2 805 2 c 1
 872 2 930 27 979 76 c 0
 1028 125 1053 181 1053 244 c 2
 1053 244 1053 1034 1053 1034 c 1
 1053 1034 1053 1034 1053 1034 c 1
 1053 1114 1024 1183 966 1242 c 0
 908 1300 842 1329 768 1329 c 2
 768 1329 481 1329 481 1329 c 1
 481 1329 481 1329 481 1329 c 1
 407 1329 343 1301 289 1245 c 0
 234 1188 207 1139 207 1096 c 1
 207 1096 207 1096 207 1096 c 1
 207 1075 215 1056 231 1040 c 0
 246 1024 267 1016 293 1016 c 1
 293 1016 293 1016 293 1016 c 1
 326 1016 351 1033 370 1068 c 0
 388 1102 406 1126 423 1140 c 0
 440 1154 468 1161 506 1161 c 2
 506 1161 764 1161 764 1161 c 1
 764 1161 764 1161 764 1161 c 1
 795 1161 823 1149 848 1124 c 0
 873 1099 885 1071 885 1040 c 2
 885 1040 885 254 885 254 c 1
 885 254 885 254 885 254 c 1
549 254 m 1
 549 231 541 211 524 195 c 0
 507 178 486 170 463 170 c 1
 463 170 463 170 463 170 c 1
 440 170 421 178 404 195 c 0
 387 211 379 231 379 254 c 2
 379 254 379 559 379 559 c 1
 379 559 379 559 379 559 c 1
 379 622 410 653 473 653 c 2
 473 653 549 653 549 653 c 1
 549 653 549 254 549 254 c 1
 549 254 549 254 549 254 c 1
EndSplineSet
Validated: 5
EndChar

StartChar: A
Encoding: 65 65 34
Width: 1237
Flags: W
LayerCount: 2
Fore
SplineSet
212 117 m 1
 209 106 207 96 207 86 c 1
 207 86 207 86 207 86 c 1
 207 62 215 42 231 25 c 0
 247 8 267 0 292 0 c 1
 292 0 292 0 292 0 c 1
 309 0 325 5 340 15 c 0
 355 24 363 34 365 45 c 2
 365 45 439 289 439 289 c 1
 439 289 822 289 822 289 c 1
 822 289 890 61 890 61 c 1
 890 61 890 61 890 61 c 1
 902 20 930 0 974 0 c 1
 974 0 974 0 974 0 c 1
 995 0 1013 8 1029 25 c 0
 1045 41 1053 61 1053 84 c 1
 1053 84 1053 84 1053 84 c 1
 1053 92 1052 100 1049 109 c 2
 1049 109 714 1276 714 1276 c 1
 714 1276 714 1276 714 1276 c 1
 703 1311 677 1329 636 1329 c 1
 636 1329 636 1329 636 1329 c 1
 593 1329 565 1308 552 1266 c 2
 552 1266 212 117 212 117 c 1
 212 117 212 117 212 117 c 1
773 459 m 1
 773 459 490 459 490 459 c 1
 490 459 634 940 634 940 c 1
 634 940 773 459 773 459 c 1
EndSplineSet
Validated: 5
EndChar

StartChar: B
Encoding: 66 66 35
Width: 1237
Flags: W
LayerCount: 2
Fore
SplineSet
1053 412 m 1
 1053 510 1015 595 938 666 c 1
 938 666 938 666 938 666 c 1
 1015 736 1053 821 1053 920 c 2
 1053 920 1053 991 1053 991 c 1
 1053 991 1053 991 1053 991 c 1
 1053 1084 1020 1164 955 1230 c 0
 889 1296 810 1329 717 1329 c 2
 717 1329 203 1329 203 1329 c 1
 203 1329 203 0 203 0 c 1
 203 0 717 0 717 0 c 1
 717 0 717 0 717 0 c 1
 810 0 889 33 955 100 c 0
 1020 166 1053 245 1053 338 c 2
 1053 338 1053 412 1053 412 c 1
 1053 412 1053 412 1053 412 c 1
881 922 m 1
 881 876 864 837 831 804 c 0
 798 771 758 754 713 754 c 2
 713 754 371 754 371 754 c 1
 371 754 371 1161 371 1161 c 1
 371 1161 713 1161 713 1161 c 1
 713 1161 713 1161 713 1161 c 1
 759 1161 799 1144 832 1111 c 0
 865 1078 881 1038 881 991 c 2
 881 991 881 922 881 922 c 1
 881 922 881 922 881 922 c 1
881 338 m 1
 881 292 864 253 831 220 c 0
 798 187 758 170 713 170 c 2
 713 170 373 170 373 170 c 1
 373 170 373 578 373 578 c 1
 373 578 713 578 713 578 c 1
 713 578 713 578 713 578 c 1
 759 578 799 561 832 528 c 0
 865 495 881 455 881 408 c 2
 881 408 881 338 881 338 c 1
 881 338 881 338 881 338 c 1
EndSplineSet
Validated: 5
EndChar

StartChar: C
Encoding: 67 67 36
Width: 1237
Flags: W
LayerCount: 2
Fore
SplineSet
668 168 m 1
 630 168 603 186 586 221 c 2
 586 221 408 563 408 563 c 1
 408 563 408 563 408 563 c 1
 392 593 384 628 384 667 c 1
 384 667 384 667 384 667 c 1
 384 704 391 737 406 764 c 2
 406 764 592 1112 592 1112 c 1
 592 1112 592 1112 592 1112 c 1
 609 1143 630 1159 657 1159 c 2
 657 1159 977 1159 977 1159 c 1
 977 1159 977 1159 977 1159 c 1
 1000 1159 1020 1168 1037 1185 c 0
 1053 1202 1061 1222 1061 1245 c 1
 1061 1245 1061 1245 1061 1245 c 1
 1061 1268 1053 1287 1037 1304 c 0
 1020 1321 1000 1329 977 1329 c 2
 977 1329 645 1329 645 1329 c 1
 645 1329 645 1329 645 1329 c 1
 608 1329 570 1316 531 1290 c 0
 492 1263 463 1233 444 1198 c 2
 444 1198 248 827 248 827 c 1
 248 827 248 827 248 827 c 1
 223 781 211 727 211 664 c 1
 211 664 211 664 211 664 c 1
 211 607 224 552 250 498 c 2
 250 498 444 123 444 123 c 1
 444 123 444 123 444 123 c 1
 461 92 490 63 533 38 c 0
 576 13 617 0 657 0 c 2
 657 0 971 0 971 0 c 1
 971 0 971 0 971 0 c 1
 994 0 1015 8 1032 25 c 0
 1049 41 1057 61 1057 84 c 1
 1057 84 1057 84 1057 84 c 1
 1057 107 1049 127 1032 144 c 0
 1015 160 994 168 971 168 c 2
 971 168 668 168 668 168 c 1
 668 168 668 168 668 168 c 1
EndSplineSet
Validated: 5
EndChar

StartChar: D
Encoding: 68 68 37
Width: 1237
Flags: W
LayerCount: 2
Fore
SplineSet
289 1329 m 1
 266 1329 246 1321 230 1304 c 0
 213 1287 205 1268 205 1245 c 1
 205 1245 205 1245 205 1245 c 1
 205 1222 213 1202 230 1185 c 0
 246 1168 266 1159 289 1159 c 2
 289 1159 375 1159 375 1159 c 1
 375 1159 375 170 375 170 c 1
 375 170 287 170 287 170 c 1
 287 170 287 170 287 170 c 1
 264 170 244 162 228 145 c 0
 211 128 203 107 203 84 c 1
 203 84 203 84 203 84 c 1
 203 61 211 42 228 25 c 0
 244 8 264 0 287 0 c 2
 287 0 608 0 608 0 c 1
 608 0 608 0 608 0 c 1
 657 0 702 13 742 39 c 0
 782 64 813 98 834 141 c 2
 834 141 1001 473 1001 473 c 1
 1001 473 1001 473 1001 473 c 1
 1034 538 1051 601 1051 662 c 1
 1051 662 1051 662 1051 662 c 1
 1051 728 1035 791 1004 852 c 2
 1004 852 838 1188 838 1188 c 1
 838 1188 838 1188 838 1188 c 1
 819 1227 789 1260 748 1287 c 0
 707 1314 664 1328 621 1329 c 2
 621 1329 289 1329 289 1329 c 1
 289 1329 289 1329 289 1329 c 1
598 1159 m 1
 598 1159 598 1159 598 1159 c 1
 639 1159 668 1142 686 1108 c 2
 686 1108 858 766 858 766 c 1
 858 766 858 766 858 766 c 1
 875 733 883 699 883 662 c 1
 883 662 883 662 883 662 c 1
 883 633 873 596 852 553 c 2
 852 553 686 223 686 223 c 1
 686 223 686 223 686 223 c 1
 667 186 639 168 602 168 c 2
 602 168 543 168 543 168 c 1
 543 168 543 1159 543 1159 c 1
 543 1159 598 1159 598 1159 c 1
EndSplineSet
Validated: 5
EndChar

StartChar: E
Encoding: 69 69 38
Width: 1237
Flags: W
LayerCount: 2
Fore
SplineSet
969 1159 m 1
 992 1159 1013 1167 1030 1184 c 0
 1047 1201 1055 1220 1055 1243 c 1
 1055 1243 1055 1243 1055 1243 c 1
 1055 1266 1047 1287 1030 1304 c 0
 1013 1321 992 1329 969 1329 c 2
 969 1329 207 1329 207 1329 c 1
 207 1329 207 0 207 0 c 1
 207 0 969 0 969 0 c 1
 969 0 969 0 969 0 c 1
 992 0 1013 8 1030 25 c 0
 1047 41 1055 61 1055 84 c 1
 1055 84 1055 84 1055 84 c 1
 1055 107 1047 127 1030 144 c 0
 1013 160 994 168 971 168 c 2
 971 168 375 168 375 168 c 1
 375 168 375 580 375 580 c 1
 375 580 631 580 631 580 c 1
 631 580 631 580 631 580 c 1
 654 580 674 588 691 605 c 0
 707 622 715 642 715 666 c 1
 715 666 715 666 715 666 c 1
 715 689 707 708 690 725 c 0
 673 742 654 750 631 750 c 2
 631 750 375 750 375 750 c 1
 375 750 375 1159 375 1159 c 1
 375 1159 969 1159 969 1159 c 1
 969 1159 969 1159 969 1159 c 1
EndSplineSet
Validated: 5
EndChar

StartChar: F
Encoding: 70 70 39
Width: 1237
Flags: W
LayerCount: 2
Fore
SplineSet
207 84 m 1
 207 61 215 41 232 25 c 0
 248 8 268 0 291 0 c 1
 291 0 291 0 291 0 c 1
 314 0 334 8 351 25 c 0
 367 41 375 61 375 84 c 2
 375 84 375 727 375 727 c 1
 375 727 801 727 801 727 c 1
 801 727 801 727 801 727 c 1
 824 727 844 735 861 752 c 0
 877 768 885 788 885 811 c 1
 885 811 885 811 885 811 c 1
 885 834 877 854 861 871 c 0
 844 887 824 895 801 895 c 2
 801 895 375 895 375 895 c 1
 375 895 375 1159 375 1159 c 1
 375 1159 969 1159 969 1159 c 1
 969 1159 969 1159 969 1159 c 1
 992 1159 1011 1168 1028 1185 c 0
 1045 1202 1053 1222 1053 1245 c 1
 1053 1245 1053 1245 1053 1245 c 1
 1053 1268 1045 1287 1028 1304 c 0
 1011 1321 991 1329 969 1329 c 2
 969 1329 207 1329 207 1329 c 1
 207 1329 207 84 207 84 c 1
 207 84 207 84 207 84 c 1
EndSplineSet
Validated: 5
EndChar

StartChar: G
Encoding: 71 71 40
Width: 1237
Flags: W
LayerCount: 2
Fore
SplineSet
694 1329 m 1
 659 1329 626 1321 594 1304 c 0
 561 1287 536 1267 518 1243 c 2
 518 1243 270 928 270 928 c 1
 270 928 270 928 270 928 c 1
 225 871 203 800 203 717 c 2
 203 717 203 252 203 252 c 1
 203 252 203 252 203 252 c 1
 203 183 228 123 278 74 c 0
 327 25 387 0 457 0 c 2
 457 0 799 0 799 0 c 1
 799 0 799 0 799 0 c 1
 868 0 928 25 977 74 c 0
 1026 123 1051 183 1051 252 c 2
 1051 252 1051 602 1051 602 c 1
 1051 602 709 602 709 602 c 1
 709 602 709 602 709 602 c 1
 685 602 665 594 649 578 c 0
 633 561 625 541 625 518 c 1
 625 518 625 518 625 518 c 1
 625 495 633 475 649 459 c 0
 665 442 685 434 709 434 c 2
 709 434 883 434 883 434 c 1
 883 434 883 252 883 252 c 1
 883 252 883 252 883 252 c 1
 883 229 875 210 858 193 c 0
 841 176 822 168 799 168 c 2
 799 168 457 168 457 168 c 1
 457 168 457 168 457 168 c 1
 434 168 414 176 398 193 c 0
 381 210 373 230 373 254 c 2
 373 254 373 719 373 719 c 1
 373 719 373 719 373 719 c 1
 373 762 383 795 403 819 c 2
 403 819 639 1122 639 1122 c 1
 639 1122 639 1122 639 1122 c 1
 658 1147 681 1159 707 1159 c 2
 707 1159 973 1159 973 1159 c 1
 973 1159 973 1159 973 1159 c 1
 994 1159 1013 1167 1031 1184 c 0
 1048 1200 1057 1220 1057 1245 c 1
 1057 1245 1057 1245 1057 1245 c 1
 1057 1268 1049 1288 1033 1305 c 0
 1016 1321 996 1329 973 1329 c 2
 973 1329 694 1329 694 1329 c 1
 694 1329 694 1329 694 1329 c 1
EndSplineSet
Validated: 5
EndChar

StartChar: H
Encoding: 72 72 41
Width: 1237
Flags: W
LayerCount: 2
Fore
SplineSet
203 84 m 1
 203 61 211 41 228 25 c 0
 245 8 264 0 287 0 c 1
 287 0 287 0 287 0 c 1
 310 0 331 8 348 25 c 0
 365 42 373 61 373 84 c 2
 373 84 373 582 373 582 c 1
 373 582 883 582 883 582 c 1
 883 582 883 84 883 84 c 1
 883 84 883 84 883 84 c 1
 883 61 891 41 907 25 c 0
 923 8 943 0 967 0 c 1
 967 0 967 0 967 0 c 1
 989 0 1009 8 1026 25 c 0
 1043 42 1051 61 1051 84 c 2
 1051 84 1051 1243 1051 1243 c 1
 1051 1243 1051 1243 1051 1243 c 1
 1051 1267 1043 1287 1027 1304 c 0
 1010 1321 990 1329 967 1329 c 1
 967 1329 967 1329 967 1329 c 1
 944 1329 924 1321 908 1304 c 0
 891 1287 883 1268 883 1245 c 2
 883 1245 883 750 883 750 c 1
 883 750 371 750 371 750 c 1
 371 750 371 1245 371 1245 c 1
 371 1245 371 1245 371 1245 c 1
 371 1268 363 1287 346 1304 c 0
 329 1321 310 1329 287 1329 c 1
 287 1329 287 1329 287 1329 c 1
 264 1329 244 1321 228 1304 c 0
 211 1287 203 1268 203 1245 c 2
 203 1245 203 84 203 84 c 1
 203 84 203 84 203 84 c 1
EndSplineSet
Validated: 5
EndChar

StartChar: I
Encoding: 73 73 42
Width: 1237
Flags: W
LayerCount: 2
Fore
SplineSet
289 1329 m 1
 266 1329 246 1321 230 1304 c 0
 213 1287 205 1267 205 1243 c 1
 205 1243 205 1243 205 1243 c 1
 205 1220 213 1201 230 1184 c 0
 246 1167 266 1159 289 1159 c 2
 289 1159 547 1159 547 1159 c 1
 547 1159 547 168 547 168 c 1
 547 168 289 168 289 168 c 1
 289 168 289 168 289 168 c 1
 266 168 246 160 230 144 c 0
 213 127 205 107 205 84 c 1
 205 84 205 84 205 84 c 1
 205 61 213 41 230 25 c 0
 246 8 266 0 289 0 c 2
 289 0 969 0 969 0 c 1
 969 0 969 0 969 0 c 1
 992 0 1011 8 1028 25 c 0
 1045 41 1053 61 1053 84 c 1
 1053 84 1053 84 1053 84 c 1
 1053 107 1045 127 1029 144 c 0
 1012 160 992 168 969 168 c 2
 969 168 715 168 715 168 c 1
 715 168 715 1159 715 1159 c 1
 715 1159 969 1159 969 1159 c 1
 969 1159 969 1159 969 1159 c 1
 992 1159 1011 1168 1028 1185 c 0
 1045 1202 1053 1222 1053 1245 c 1
 1053 1245 1053 1245 1053 1245 c 1
 1053 1268 1045 1287 1028 1304 c 0
 1011 1321 991 1329 969 1329 c 2
 969 1329 289 1329 289 1329 c 1
 289 1329 289 1329 289 1329 c 1
EndSplineSet
Validated: 5
EndChar

StartChar: J
Encoding: 74 74 43
Width: 1237
Flags: W
LayerCount: 2
Fore
SplineSet
289 254 m 1
 289 185 314 125 364 75 c 0
 413 25 473 0 543 0 c 2
 543 0 713 0 713 0 c 1
 713 0 713 0 713 0 c 1
 780 0 839 25 890 74 c 0
 941 123 967 183 967 254 c 2
 967 254 967 1241 967 1241 c 1
 967 1241 967 1241 967 1241 c 1
 967 1264 958 1284 941 1302 c 0
 924 1320 904 1329 881 1329 c 1
 881 1329 881 1329 881 1329 c 1
 858 1329 839 1321 823 1305 c 0
 807 1288 799 1268 799 1245 c 2
 799 1245 799 254 799 254 c 1
 799 254 799 254 799 254 c 1
 799 231 791 211 774 195 c 0
 757 178 736 170 713 170 c 2
 713 170 543 170 543 170 c 1
 543 170 543 170 543 170 c 1
 519 170 499 178 482 194 c 0
 465 210 457 229 457 252 c 2
 457 252 457 520 457 520 c 1
 457 520 457 520 457 520 c 1
 457 543 449 563 433 580 c 0
 416 596 396 604 373 604 c 1
 373 604 373 604 373 604 c 1
 350 604 330 596 314 580 c 0
 297 563 289 543 289 520 c 2
 289 520 289 254 289 254 c 1
 289 254 289 254 289 254 c 1
EndSplineSet
Validated: 5
EndChar

StartChar: K
Encoding: 75 75 44
Width: 1237
Flags: W
LayerCount: 2
Fore
SplineSet
205 84 m 1
 205 61 213 41 230 25 c 0
 247 8 266 0 289 0 c 1
 289 0 289 0 289 0 c 1
 312 0 332 8 349 25 c 0
 365 41 373 61 373 84 c 2
 373 84 373 485 373 485 c 1
 373 485 909 23 909 23 c 1
 909 23 909 23 909 23 c 1
 927 8 947 0 970 0 c 1
 970 0 970 0 970 0 c 1
 994 0 1014 9 1031 27 c 0
 1047 45 1055 65 1055 87 c 1
 1055 87 1055 87 1055 87 c 1
 1055 109 1047 127 1030 141 c 2
 1030 141 420 668 420 668 c 1
 420 668 1030 1186 1030 1186 c 1
 1030 1186 1030 1186 1030 1186 c 1
 1048 1201 1057 1221 1057 1244 c 1
 1057 1244 1057 1244 1057 1244 c 1
 1057 1267 1049 1287 1033 1304 c 0
 1017 1321 997 1330 974 1330 c 1
 974 1330 974 1330 974 1330 c 1
 951 1330 930 1322 911 1307 c 2
 911 1307 373 848 373 848 c 1
 373 848 373 1245 373 1245 c 1
 373 1245 373 1245 373 1245 c 1
 373 1268 365 1288 349 1305 c 0
 332 1321 312 1329 289 1329 c 1
 289 1329 289 1329 289 1329 c 1
 266 1329 246 1321 230 1304 c 0
 213 1287 205 1267 205 1243 c 2
 205 1243 205 84 205 84 c 1
 205 84 205 84 205 84 c 1
EndSplineSet
Validated: 5
EndChar

StartChar: L
Encoding: 76 76 45
Width: 1237
Flags: W
LayerCount: 2
Fore
SplineSet
969 0 m 1
 969 0 969 0 969 0 c 1
 992 0 1013 8 1030 25 c 0
 1047 41 1055 61 1055 84 c 1
 1055 84 1055 84 1055 84 c 1
 1055 107 1047 127 1030 144 c 0
 1013 160 992 168 969 168 c 2
 969 168 375 168 375 168 c 1
 375 168 375 1245 375 1245 c 1
 375 1245 375 1245 375 1245 c 1
 375 1268 367 1287 350 1304 c 0
 333 1321 314 1329 291 1329 c 1
 291 1329 291 1329 291 1329 c 1
 268 1329 249 1321 232 1304 c 0
 215 1287 207 1268 207 1245 c 2
 207 1245 207 0 207 0 c 1
 207 0 969 0 969 0 c 1
EndSplineSet
Validated: 5
EndChar

StartChar: M
Encoding: 77 77 46
Width: 1237
Flags: W
LayerCount: 2
Fore
SplineSet
545 807 m 1
 545 784 553 765 570 748 c 0
 586 731 606 723 629 723 c 1
 629 723 629 723 629 723 c 1
 652 723 671 731 688 748 c 0
 705 765 713 784 713 807 c 2
 713 807 713 854 713 854 c 1
 713 854 883 1094 883 1094 c 1
 883 1094 883 84 883 84 c 1
 883 84 883 84 883 84 c 1
 883 61 891 42 908 25 c 0
 925 8 944 0 967 0 c 1
 967 0 967 0 967 0 c 1
 990 0 1011 8 1028 25 c 0
 1045 41 1053 61 1053 84 c 2
 1053 84 1053 1329 1053 1329 c 1
 1053 1329 840 1329 840 1329 c 1
 840 1329 627 1028 627 1028 c 1
 627 1028 420 1329 420 1329 c 1
 420 1329 203 1329 203 1329 c 1
 203 1329 203 84 203 84 c 1
 203 84 203 84 203 84 c 1
 203 61 211 42 228 25 c 0
 244 8 264 0 287 0 c 1
 287 0 287 0 287 0 c 1
 310 0 330 8 347 25 c 0
 363 41 371 61 371 84 c 2
 371 84 371 1098 371 1098 c 1
 371 1098 545 850 545 850 c 1
 545 850 545 807 545 807 c 1
 545 807 545 807 545 807 c 1
EndSplineSet
Validated: 5
EndChar

StartChar: N
Encoding: 78 78 47
Width: 1237
Flags: W
LayerCount: 2
Fore
SplineSet
1053 1243 m 1
 1053 1267 1045 1287 1029 1304 c 0
 1012 1321 992 1329 969 1329 c 1
 969 1329 969 1329 969 1329 c 1
 946 1329 926 1321 909 1304 c 0
 892 1287 883 1266 883 1243 c 2
 883 1243 883 299 883 299 c 1
 883 299 430 1329 430 1329 c 1
 430 1329 207 1329 207 1329 c 1
 207 1329 207 84 207 84 c 1
 207 84 207 84 207 84 c 1
 207 61 215 41 232 25 c 0
 248 8 268 0 291 0 c 1
 291 0 291 0 291 0 c 1
 314 0 334 8 351 25 c 0
 367 41 375 61 375 84 c 2
 375 84 375 1032 375 1032 c 1
 375 1032 827 0 827 0 c 1
 827 0 1053 0 1053 0 c 1
 1053 0 1053 1243 1053 1243 c 1
 1053 1243 1053 1243 1053 1243 c 1
EndSplineSet
Validated: 5
EndChar

StartChar: O
Encoding: 79 79 48
Width: 1237
Flags: W
LayerCount: 2
Fore
SplineSet
829 1206 m 1
 789 1288 722 1329 629 1329 c 1
 629 1329 629 1329 629 1329 c 1
 537 1329 470 1288 428 1206 c 2
 428 1206 242 829 242 829 c 1
 242 829 242 829 242 829 c 1
 217 780 205 724 205 662 c 1
 205 662 205 662 205 662 c 1
 205 600 217 545 242 496 c 2
 242 496 428 123 428 123 c 1
 428 123 428 123 428 123 c 1
 446 88 473 58 509 35 c 0
 544 12 584 0 629 0 c 1
 629 0 629 0 629 0 c 1
 723 0 790 41 829 123 c 2
 829 123 1014 496 1014 496 c 1
 1014 496 1014 496 1014 496 c 1
 1040 548 1053 603 1053 662 c 1
 1053 662 1053 662 1053 662 c 1
 1053 722 1040 778 1014 829 c 2
 1014 829 829 1206 829 1206 c 1
 829 1206 829 1206 829 1206 c 1
573 1122 m 1
 586 1148 605 1161 629 1161 c 1
 629 1161 629 1161 629 1161 c 1
 653 1161 671 1148 682 1122 c 2
 682 1122 858 768 858 768 c 1
 858 768 858 768 858 768 c 1
 875 735 883 701 883 664 c 1
 883 664 883 664 883 664 c 1
 883 629 875 594 858 559 c 2
 858 559 678 201 678 201 c 1
 678 201 678 201 678 201 c 1
 667 179 650 168 629 168 c 1
 629 168 629 168 629 168 c 1
 604 168 587 179 578 201 c 2
 578 201 399 559 399 559 c 1
 399 559 399 559 399 559 c 1
 383 592 375 627 375 664 c 1
 375 664 375 664 375 664 c 1
 375 698 383 733 399 768 c 2
 399 768 573 1122 573 1122 c 1
 573 1122 573 1122 573 1122 c 1
EndSplineSet
Validated: 5
EndChar

StartChar: P
Encoding: 80 80 49
Width: 1237
Flags: W
LayerCount: 2
Fore
SplineSet
207 84 m 1
 207 61 215 41 232 25 c 0
 249 8 269 0 293 0 c 1
 293 0 293 0 293 0 c 1
 316 0 336 8 353 25 c 0
 369 41 377 61 377 84 c 2
 377 84 377 508 377 508 c 1
 377 508 803 508 803 508 c 1
 803 508 803 508 803 508 c 1
 872 508 932 533 981 582 c 0
 1030 631 1055 691 1055 760 c 2
 1055 760 1055 1075 1055 1075 c 1
 1055 1075 1055 1075 1055 1075 c 1
 1055 1144 1030 1204 981 1254 c 0
 931 1304 872 1329 803 1329 c 2
 803 1329 207 1329 207 1329 c 1
 207 1329 207 84 207 84 c 1
 207 84 207 84 207 84 c 1
377 1159 m 1
 377 1159 803 1159 803 1159 c 1
 803 1159 803 1159 803 1159 c 1
 826 1159 845 1151 862 1135 c 0
 879 1118 887 1098 887 1075 c 2
 887 1075 887 760 887 760 c 1
 887 760 887 760 887 760 c 1
 887 737 879 717 862 701 c 0
 845 684 826 676 803 676 c 2
 803 676 377 676 377 676 c 1
 377 676 377 1159 377 1159 c 1
EndSplineSet
Validated: 5
EndChar

StartChar: Q
Encoding: 81 81 50
Width: 1237
Flags: W
LayerCount: 2
Fore
SplineSet
340 961 m 1
 286 914 250 870 232 828 c 0
 214 785 205 735 205 676 c 2
 205 676 205 207 205 207 c 1
 205 207 205 207 205 207 c 1
 205 150 225 101 265 61 c 0
 304 20 353 0 412 0 c 1
 412 0 412 0 412 0 c 1
 463 0 514 21 565 63 c 2
 565 63 680 158 680 158 c 1
 680 158 741 0 741 0 c 1
 741 0 971 0 971 0 c 1
 971 0 971 0 971 0 c 1
 994 0 1014 8 1031 25 c 0
 1047 41 1055 61 1055 84 c 1
 1055 84 1055 84 1055 84 c 1
 1055 107 1047 127 1031 144 c 0
 1014 160 994 168 971 168 c 2
 971 168 858 168 858 168 c 1
 858 168 815 274 815 274 c 1
 815 274 928 371 928 371 c 1
 928 371 928 371 928 371 c 1
 1011 442 1053 526 1053 623 c 2
 1053 623 1053 1137 1053 1137 c 1
 1053 1137 1053 1137 1053 1137 c 1
 1053 1184 1033 1227 992 1268 c 0
 951 1309 902 1329 846 1329 c 1
 846 1329 846 1329 846 1329 c 1
 795 1329 746 1309 698 1270 c 2
 698 1270 340 961 340 961 c 1
 340 961 340 961 340 961 c 1
809 1147 m 1
 819 1156 831 1160 845 1160 c 1
 845 1160 845 1160 845 1160 c 1
 870 1160 883 1146 883 1118 c 2
 883 1118 883 623 883 623 c 1
 883 623 883 623 883 623 c 1
 883 589 873 560 854 535 c 0
 835 510 801 478 752 440 c 1
 752 440 709 553 709 553 c 1
 709 553 709 553 709 553 c 1
 696 585 670 601 631 601 c 1
 631 601 631 601 631 601 c 1
 608 601 589 593 572 577 c 0
 555 560 547 542 547 521 c 1
 547 521 547 521 547 521 c 1
 547 507 551 490 559 471 c 2
 559 471 614 324 614 324 c 1
 614 324 444 178 444 178 c 1
 444 178 444 178 444 178 c 1
 434 169 424 165 413 165 c 1
 413 165 413 165 413 165 c 1
 386 165 373 182 373 217 c 2
 373 217 373 655 373 655 c 1
 373 655 373 655 373 655 c 1
 373 700 378 735 389 760 c 0
 399 785 420 811 451 838 c 2
 451 838 809 1147 809 1147 c 1
 809 1147 809 1147 809 1147 c 1
EndSplineSet
Validated: 5
EndChar

StartChar: R
Encoding: 82 82 51
Width: 1237
Flags: W
LayerCount: 2
Fore
SplineSet
209 84 m 1
 209 61 217 41 234 25 c 0
 250 8 270 0 293 0 c 1
 293 0 293 0 293 0 c 1
 316 0 337 8 354 25 c 0
 371 41 379 61 379 84 c 2
 379 84 379 725 379 725 c 1
 379 725 500 725 500 725 c 1
 500 725 895 45 895 45 c 1
 895 45 895 45 895 45 c 1
 912 15 938 0 971 0 c 1
 971 0 971 0 971 0 c 1
 993 0 1013 8 1030 25 c 0
 1047 41 1056 60 1056 83 c 1
 1056 83 1056 83 1056 83 c 1
 1056 100 1051 118 1040 135 c 2
 1040 135 696 725 696 725 c 1
 696 725 803 725 803 725 c 1
 803 725 803 725 803 725 c 1
 872 725 932 750 981 800 c 0
 1030 849 1055 909 1055 979 c 2
 1055 979 1055 1075 1055 1075 c 1
 1055 1075 1055 1075 1055 1075 c 1
 1055 1144 1030 1204 981 1254 c 0
 931 1304 872 1329 803 1329 c 2
 803 1329 209 1329 209 1329 c 1
 209 1329 209 84 209 84 c 1
 209 84 209 84 209 84 c 1
377 1159 m 1
 377 1159 803 1159 803 1159 c 1
 803 1159 803 1159 803 1159 c 1
 826 1159 846 1151 863 1135 c 0
 879 1118 887 1098 887 1075 c 2
 887 1075 887 977 887 977 c 1
 887 977 887 977 887 977 c 1
 887 954 879 934 863 918 c 0
 846 901 826 893 803 893 c 2
 803 893 377 893 377 893 c 1
 377 893 377 1159 377 1159 c 1
EndSplineSet
Validated: 5
EndChar

StartChar: S
Encoding: 83 83 52
Width: 1237
Flags: W
LayerCount: 2
Fore
SplineSet
397 1329 m 1
 344 1329 299 1310 262 1272 c 0
 225 1233 206 1188 206 1136 c 1
 206 1136 206 1136 206 1136 c 1
 206 1091 221 1050 250 1012 c 2
 250 1012 872 215 872 215 c 1
 872 215 872 215 872 215 c 1
 881 204 885 196 885 189 c 1
 885 189 885 189 885 189 c 1
 885 175 876 168 858 168 c 2
 858 168 440 168 440 168 c 1
 440 168 440 168 440 168 c 1
 421 168 406 174 394 186 c 0
 381 198 375 213 375 231 c 1
 375 231 375 231 375 231 c 1
 375 253 367 272 351 289 c 0
 335 305 316 313 293 313 c 1
 293 313 293 313 293 313 c 1
 234 313 205 282 205 219 c 1
 205 219 205 219 205 219 c 1
 205 164 227 114 272 69 c 0
 316 23 368 0 428 0 c 2
 428 0 881 0 881 0 c 1
 881 0 881 0 881 0 c 1
 926 0 966 19 1003 57 c 0
 1039 95 1057 139 1057 189 c 1
 1057 189 1057 189 1057 189 c 1
 1057 233 1042 274 1012 313 c 2
 1012 313 389 1110 389 1110 c 1
 389 1110 389 1110 389 1110 c 1
 380 1121 376 1130 376 1138 c 1
 376 1138 376 1138 376 1138 c 1
 376 1151 386 1157 406 1157 c 2
 406 1157 821 1157 821 1157 c 1
 821 1157 821 1157 821 1157 c 1
 854 1157 876 1139 886 1104 c 0
 895 1069 905 1045 916 1032 c 0
 927 1019 946 1012 975 1012 c 1
 975 1012 975 1012 975 1012 c 1
 996 1012 1015 1020 1032 1037 c 0
 1049 1054 1057 1074 1057 1098 c 1
 1057 1098 1057 1098 1057 1098 c 1
 1057 1162 1033 1217 986 1262 c 0
 938 1307 887 1329 834 1329 c 2
 834 1329 397 1329 397 1329 c 1
 397 1329 397 1329 397 1329 c 1
EndSplineSet
Validated: 5
EndChar

StartChar: T
Encoding: 84 84 53
Width: 1237
Flags: W
LayerCount: 2
Fore
SplineSet
205 1100 m 1
 205 1077 213 1057 230 1041 c 0
 246 1024 266 1016 289 1016 c 1
 289 1016 289 1016 289 1016 c 1
 312 1016 332 1024 349 1041 c 0
 365 1057 373 1077 373 1100 c 2
 373 1100 373 1159 373 1159 c 1
 373 1159 543 1159 543 1159 c 1
 543 1159 543 84 543 84 c 1
 543 84 543 84 543 84 c 1
 543 61 551 41 568 25 c 0
 585 8 605 0 629 0 c 1
 629 0 629 0 629 0 c 1
 652 0 671 8 688 25 c 0
 705 41 713 61 713 84 c 2
 713 84 713 1159 713 1159 c 1
 713 1159 883 1159 883 1159 c 1
 883 1159 883 1098 883 1098 c 1
 883 1098 883 1098 883 1098 c 1
 883 1075 892 1056 909 1039 c 0
 926 1022 946 1014 969 1014 c 1
 969 1014 969 1014 969 1014 c 1
 992 1014 1011 1022 1028 1039 c 0
 1045 1055 1053 1075 1053 1098 c 2
 1053 1098 1053 1327 1053 1327 c 1
 1053 1327 205 1327 205 1327 c 1
 205 1327 205 1100 205 1100 c 1
 205 1100 205 1100 205 1100 c 1
EndSplineSet
Validated: 5
EndChar

StartChar: U
Encoding: 85 85 54
Width: 1237
Flags: W
LayerCount: 2
Fore
SplineSet
205 252 m 1
 205 183 230 123 279 74 c 0
 328 25 388 0 457 0 c 2
 457 0 801 0 801 0 c 1
 801 0 801 0 801 0 c 1
 870 0 929 25 979 75 c 0
 1028 125 1053 185 1053 254 c 2
 1053 254 1053 1243 1053 1243 c 1
 1053 1243 1053 1243 1053 1243 c 1
 1053 1267 1045 1287 1029 1304 c 0
 1012 1321 992 1329 969 1329 c 1
 969 1329 969 1329 969 1329 c 1
 946 1329 926 1321 910 1304 c 0
 893 1287 885 1267 885 1243 c 2
 885 1243 885 252 885 252 c 1
 885 252 885 252 885 252 c 1
 885 229 877 210 861 194 c 0
 844 178 824 170 801 170 c 2
 801 170 457 170 457 170 c 1
 457 170 457 170 457 170 c 1
 434 170 415 178 398 195 c 0
 381 211 373 230 373 252 c 2
 373 252 373 1245 373 1245 c 1
 373 1245 373 1245 373 1245 c 1
 373 1268 365 1287 348 1304 c 0
 331 1321 312 1329 289 1329 c 1
 289 1329 289 1329 289 1329 c 1
 266 1329 247 1321 230 1304 c 0
 213 1287 205 1266 205 1243 c 2
 205 1243 205 252 205 252 c 1
 205 252 205 252 205 252 c 1
EndSplineSet
Validated: 5
EndChar

StartChar: V
Encoding: 86 86 55
Width: 1237
Flags: W
LayerCount: 2
Fore
SplineSet
1057 1243 m 1
 1057 1267 1049 1287 1033 1304 c 0
 1016 1321 996 1329 973 1329 c 1
 973 1329 973 1329 973 1329 c 1
 950 1329 930 1321 914 1304 c 0
 897 1287 889 1267 889 1243 c 2
 889 1243 889 967 889 967 c 1
 889 967 633 317 633 317 c 1
 633 317 377 969 377 969 c 1
 377 969 377 1243 377 1243 c 1
 377 1243 377 1243 377 1243 c 1
 377 1267 369 1287 353 1304 c 0
 336 1321 316 1329 293 1329 c 1
 293 1329 293 1329 293 1329 c 1
 270 1329 250 1321 234 1304 c 0
 217 1287 209 1267 209 1243 c 2
 209 1243 209 934 209 934 c 1
 209 934 549 63 549 63 c 1
 549 63 549 63 549 63 c 1
 566 21 594 0 633 0 c 1
 633 0 633 0 633 0 c 1
 670 0 698 21 715 63 c 2
 715 63 1057 934 1057 934 c 1
 1057 934 1057 1243 1057 1243 c 1
 1057 1243 1057 1243 1057 1243 c 1
EndSplineSet
Validated: 5
EndChar

StartChar: W
Encoding: 87 87 56
Width: 1237
Flags: W
LayerCount: 2
Fore
SplineSet
715 809 m 1
 715 832 707 852 691 869 c 0
 674 885 654 893 631 893 c 1
 631 893 631 893 631 893 c 1
 608 893 588 885 572 869 c 0
 555 852 547 832 547 809 c 2
 547 809 547 252 547 252 c 1
 547 252 494 168 494 168 c 1
 494 168 422 168 422 168 c 1
 422 168 373 248 373 248 c 1
 373 248 373 1243 373 1243 c 1
 373 1243 373 1243 373 1243 c 1
 373 1266 365 1287 349 1304 c 0
 332 1321 313 1329 291 1329 c 1
 291 1329 291 1329 291 1329 c 1
 268 1329 248 1321 231 1304 c 0
 214 1287 205 1266 205 1243 c 2
 205 1243 205 225 205 225 c 1
 205 225 205 225 205 225 c 1
 205 209 212 190 225 168 c 2
 225 168 297 47 297 47 c 1
 297 47 297 47 297 47 c 1
 316 16 346 0 389 0 c 2
 389 0 537 0 537 0 c 1
 537 0 537 0 537 0 c 1
 583 0 614 23 629 68 c 1
 629 68 629 68 629 68 c 1
 643 23 675 0 725 0 c 2
 725 0 883 0 883 0 c 1
 883 0 883 0 883 0 c 1
 916 0 940 14 956 43 c 2
 956 43 1034 172 1034 172 c 1
 1034 172 1034 172 1034 172 c 1
 1048 195 1055 212 1055 225 c 2
 1055 225 1055 1245 1055 1245 c 1
 1055 1245 1055 1245 1055 1245 c 1
 1055 1268 1047 1287 1030 1304 c 0
 1013 1321 994 1329 971 1329 c 1
 971 1329 971 1329 971 1329 c 1
 948 1329 928 1321 911 1304 c 0
 894 1287 885 1266 885 1243 c 2
 885 1243 885 252 885 252 c 1
 885 252 834 168 834 168 c 1
 834 168 764 168 764 168 c 1
 764 168 715 250 715 250 c 1
 715 250 715 809 715 809 c 1
 715 809 715 809 715 809 c 1
EndSplineSet
Validated: 5
EndChar

StartChar: X
Encoding: 88 88 57
Width: 1237
Flags: W
LayerCount: 2
Fore
SplineSet
912 41 m 1
 912 41 912 41 912 41 c 1
 928 14 952 0 985 0 c 1
 985 0 985 0 985 0 c 1
 1008 0 1028 8 1045 24 c 0
 1061 40 1069 60 1069 84 c 1
 1069 84 1069 84 1069 84 c 1
 1069 99 1065 114 1057 127 c 2
 1057 127 744 666 744 666 c 1
 744 666 1059 1202 1059 1202 c 1
 1059 1202 1059 1202 1059 1202 c 1
 1068 1217 1072 1232 1072 1247 c 1
 1072 1247 1072 1247 1072 1247 c 1
 1072 1270 1063 1289 1046 1305 c 0
 1029 1321 1008 1329 985 1329 c 1
 985 1329 985 1329 985 1329 c 1
 954 1329 931 1315 914 1288 c 2
 914 1288 648 834 648 834 c 1
 648 834 377 1290 377 1290 c 1
 377 1290 377 1290 377 1290 c 1
 362 1317 338 1330 305 1330 c 1
 305 1330 305 1330 305 1330 c 1
 283 1330 264 1322 247 1306 c 0
 230 1289 222 1270 222 1249 c 1
 222 1249 222 1249 222 1249 c 1
 222 1232 228 1213 240 1192 c 2
 240 1192 547 664 547 664 c 1
 547 664 234 133 234 133 c 1
 234 133 234 133 234 133 c 1
 224 116 219 100 219 84 c 1
 219 84 219 84 219 84 c 1
 219 63 228 44 245 27 c 0
 262 10 282 1 306 1 c 1
 306 1 306 1 306 1 c 1
 338 1 362 14 377 41 c 2
 377 41 644 498 644 498 c 1
 644 498 912 41 912 41 c 1
EndSplineSet
Validated: 5
EndChar

StartChar: Y
Encoding: 89 89 58
Width: 1237
Flags: W
LayerCount: 2
Fore
SplineSet
1055 1067 m 1
 1055 1067 1055 1243 1055 1243 c 1
 1055 1243 1055 1243 1055 1243 c 1
 1055 1269 1047 1290 1030 1306 c 0
 1013 1321 993 1329 971 1329 c 1
 971 1329 971 1329 971 1329 c 1
 948 1329 929 1321 912 1304 c 0
 895 1287 887 1266 887 1243 c 2
 887 1243 887 1126 887 1126 c 1
 887 1126 631 803 631 803 c 1
 631 803 379 1128 379 1128 c 1
 379 1128 379 1243 379 1243 c 1
 379 1243 379 1243 379 1243 c 1
 379 1266 371 1287 354 1304 c 0
 337 1321 316 1329 293 1329 c 1
 293 1329 293 1329 293 1329 c 1
 270 1329 250 1321 234 1304 c 0
 217 1287 209 1267 209 1243 c 2
 209 1243 209 1065 209 1065 c 1
 209 1065 547 637 547 637 c 1
 547 637 547 84 547 84 c 1
 547 84 547 84 547 84 c 1
 547 61 555 41 572 25 c 0
 589 8 609 0 633 0 c 1
 633 0 633 0 633 0 c 1
 656 0 675 8 692 25 c 0
 709 41 717 61 717 84 c 2
 717 84 717 637 717 637 c 1
 717 637 1055 1067 1055 1067 c 1
EndSplineSet
Validated: 5
EndChar

StartChar: Z
Encoding: 90 90 59
Width: 1237
Flags: W
LayerCount: 2
Fore
SplineSet
287 1329 m 1
 264 1329 245 1321 229 1304 c 0
 213 1287 205 1268 205 1245 c 1
 205 1245 205 1245 205 1245 c 1
 205 1222 213 1202 229 1185 c 0
 245 1168 264 1159 287 1159 c 2
 287 1159 821 1159 821 1159 c 1
 821 1159 205 111 205 111 c 1
 205 111 205 0 205 0 c 1
 205 0 969 0 969 0 c 1
 969 0 969 0 969 0 c 1
 992 0 1011 8 1028 25 c 0
 1045 42 1053 61 1053 84 c 1
 1053 84 1053 84 1053 84 c 1
 1053 107 1045 127 1029 144 c 0
 1012 160 992 168 969 168 c 2
 969 168 436 168 436 168 c 1
 436 168 1053 1221 1053 1221 c 1
 1053 1221 1053 1329 1053 1329 c 1
 1053 1329 287 1329 287 1329 c 1
 287 1329 287 1329 287 1329 c 1
EndSplineSet
Validated: 5
EndChar

StartChar: bracketleft
Encoding: 91 91 60
Width: 1237
Flags: W
LayerCount: 2
Fore
SplineSet
631 1161 m 1
 631 1161 969 1161 969 1161 c 1
 969 1161 969 1161 969 1161 c 1
 992 1161 1012 1170 1029 1187 c 0
 1045 1204 1053 1224 1053 1247 c 1
 1053 1247 1053 1247 1053 1247 c 1
 1053 1270 1045 1289 1028 1306 c 0
 1011 1323 992 1331 969 1331 c 2
 969 1331 291 1331 291 1331 c 1
 291 1331 291 1331 291 1331 c 1
 268 1331 248 1323 232 1306 c 0
 215 1289 207 1269 207 1245 c 2
 207 1245 207 86 207 86 c 1
 207 86 207 86 207 86 c 1
 207 63 215 44 232 27 c 0
 249 10 268 2 291 2 c 2
 291 2 969 2 969 2 c 1
 969 2 969 2 969 2 c 1
 992 2 1012 10 1029 27 c 0
 1045 43 1053 63 1053 86 c 1
 1053 86 1053 86 1053 86 c 1
 1053 109 1045 129 1029 146 c 0
 1012 162 992 170 969 170 c 2
 969 170 631 170 631 170 c 1
 631 170 631 1161 631 1161 c 1
375 170 m 1
 375 170 375 1161 375 1161 c 1
 375 1161 463 1161 463 1161 c 1
 463 1161 463 170 463 170 c 1
 463 170 375 170 375 170 c 1
EndSplineSet
Validated: 5
EndChar

StartChar: backslash
Encoding: 92 92 61
Width: 1237
Flags: W
LayerCount: 2
Fore
SplineSet
932 25 m 1
 943 8 960 -1 984 -1 c 1
 984 -1 984 -1 984 -1 c 1
 1006 -1 1026 7 1045 22 c 0
 1064 37 1073 56 1073 79 c 1
 1073 79 1073 79 1073 79 c 1
 1073 99 1066 121 1051 145 c 2
 1051 145 371 1303 371 1303 c 1
 371 1303 371 1303 371 1303 c 1
 360 1321 343 1330 318 1330 c 1
 318 1330 318 1330 318 1330 c 1
 296 1330 276 1323 257 1309 c 0
 238 1294 229 1275 229 1252 c 1
 229 1252 229 1252 229 1252 c 1
 229 1232 236 1209 250 1184 c 2
 250 1184 932 25 932 25 c 1
 932 25 932 25 932 25 c 1
EndSplineSet
Validated: 5
EndChar

StartChar: bracketright
Encoding: 93 93 62
Width: 1237
Flags: W
LayerCount: 2
Fore
SplineSet
627 170 m 1
 627 170 291 170 291 170 c 1
 291 170 291 170 291 170 c 1
 268 170 248 162 232 146 c 0
 215 130 207 111 207 88 c 1
 207 88 207 88 207 88 c 1
 207 65 215 45 232 28 c 0
 248 11 268 2 291 2 c 2
 291 2 969 2 969 2 c 1
 969 2 969 2 969 2 c 1
 992 2 1011 10 1028 27 c 0
 1045 43 1053 63 1053 86 c 2
 1053 86 1053 1245 1053 1245 c 1
 1053 1245 1053 1245 1053 1245 c 1
 1053 1268 1045 1288 1028 1305 c 0
 1011 1321 990 1329 967 1329 c 2
 967 1329 291 1329 291 1329 c 1
 291 1329 291 1329 291 1329 c 1
 268 1329 248 1321 231 1304 c 0
 214 1287 205 1268 205 1245 c 1
 205 1245 205 1245 205 1245 c 1
 205 1222 213 1202 230 1186 c 0
 247 1169 267 1161 291 1161 c 2
 291 1161 627 1161 627 1161 c 1
 627 1161 627 170 627 170 c 1
885 1161 m 1
 885 1161 885 170 885 170 c 1
 885 170 797 170 797 170 c 1
 797 170 797 1161 797 1161 c 1
 797 1161 885 1161 885 1161 c 1
EndSplineSet
Validated: 5
EndChar

StartChar: asciicircum
Encoding: 94 94 63
Width: 1237
Flags: W
LayerCount: 2
Fore
SplineSet
239 356 m 1
 228 336 223 317 223 299 c 1
 223 299 223 299 223 299 c 1
 223 278 231 260 248 244 c 0
 264 228 283 220 306 220 c 1
 306 220 306 220 306 220 c 1
 337 220 361 232 378 256 c 2
 378 256 647 659 647 659 c 1
 647 659 917 256 917 256 c 1
 917 256 917 256 917 256 c 1
 934 232 957 220 988 220 c 1
 988 220 988 220 988 220 c 1
 1011 220 1030 228 1047 245 c 0
 1063 261 1071 279 1071 300 c 1
 1071 300 1071 300 1071 300 c 1
 1071 317 1065 336 1054 356 c 2
 1054 356 723 991 723 991 c 1
 723 991 723 991 723 991 c 1
 706 1024 680 1040 647 1040 c 1
 647 1040 647 1040 647 1040 c 1
 614 1040 588 1024 571 991 c 2
 571 991 239 356 239 356 c 1
 239 356 239 356 239 356 c 1
EndSplineSet
Validated: 5
EndChar

StartChar: underscore
Encoding: 95 95 64
Width: 1237
Flags: W
LayerCount: 2
Fore
SplineSet
1247 -86 m 1
 1247 -86 -10 -86 -10 -86 c 1
 -10 -86 -10 -256 -10 -256 c 1
 -10 -256 1247 -256 1247 -256 c 1
 1247 -256 1247 -86 1247 -86 c 1
EndSplineSet
Validated: 9
EndChar

StartChar: grave
Encoding: 96 96 65
Width: 1237
Flags: W
LayerCount: 2
Fore
SplineSet
510 1321 m 1
 510 1321 510 1321 510 1321 c 1
 498 1326 486 1329 473 1329 c 1
 473 1329 473 1329 473 1329 c 1
 449 1329 429 1320 414 1303 c 0
 399 1285 391 1265 391 1243 c 1
 391 1243 391 1243 391 1243 c 1
 391 1208 407 1183 438 1167 c 2
 438 1167 743 1026 743 1026 c 1
 743 1026 743 1026 743 1026 c 1
 755 1021 767 1018 780 1018 c 1
 780 1018 780 1018 780 1018 c 1
 804 1018 824 1027 839 1045 c 0
 854 1062 862 1082 862 1104 c 1
 862 1104 862 1104 862 1104 c 1
 862 1139 846 1164 815 1180 c 2
 815 1180 510 1321 510 1321 c 1
EndSplineSet
Validated: 5
EndChar

StartChar: a
Encoding: 97 97 66
Width: 1237
Flags: W
LayerCount: 2
Fore
SplineSet
457 606 m 1
 387 606 327 581 278 532 c 0
 228 482 203 422 203 352 c 2
 203 352 203 254 203 254 c 1
 203 254 203 254 203 254 c 1
 203 183 228 123 277 74 c 0
 326 25 386 0 457 0 c 2
 457 0 741 0 741 0 c 1
 741 0 883 84 883 84 c 1
 883 84 883 84 883 84 c 1
 883 61 891 41 908 25 c 0
 925 8 945 0 969 0 c 1
 969 0 969 0 969 0 c 1
 992 0 1011 8 1028 25 c 0
 1045 41 1053 61 1053 84 c 2
 1053 84 1032 713 1032 713 c 1
 1032 713 1032 713 1032 713 c 1
 1030 784 1005 843 956 892 c 0
 907 941 847 965 778 965 c 2
 778 965 459 965 459 965 c 1
 459 965 459 965 459 965 c 1
 436 965 416 957 400 941 c 0
 383 924 375 904 375 881 c 1
 375 881 375 881 375 881 c 1
 375 858 383 839 400 822 c 0
 417 805 436 797 459 797 c 2
 459 797 778 797 778 797 c 1
 778 797 778 797 778 797 c 1
 801 797 821 789 838 773 c 0
 854 756 862 736 862 713 c 2
 862 713 864 594 864 594 c 1
 864 594 864 594 864 594 c 1
 830 602 804 606 786 606 c 2
 786 606 457 606 457 606 c 1
 457 606 457 606 457 606 c 1
694 172 m 1
 694 172 457 172 457 172 c 1
 457 172 457 172 457 172 c 1
 434 172 415 180 398 197 c 0
 381 214 373 233 373 256 c 2
 373 256 373 350 373 350 c 1
 373 350 373 350 373 350 c 1
 373 373 381 393 398 410 c 0
 414 426 434 434 457 434 c 2
 457 434 788 434 788 434 c 1
 788 434 788 434 788 434 c 1
 811 434 831 426 847 410 c 0
 863 394 871 374 872 350 c 2
 872 350 877 279 877 279 c 1
 877 279 694 172 694 172 c 1
EndSplineSet
Validated: 5
EndChar

StartChar: b
Encoding: 98 98 67
Width: 1237
Flags: W
LayerCount: 2
Fore
SplineSet
379 1245 m 1
 379 1268 371 1288 355 1305 c 0
 338 1321 318 1329 295 1329 c 1
 295 1329 295 1329 295 1329 c 1
 272 1329 253 1321 236 1305 c 0
 219 1288 211 1268 211 1245 c 2
 211 1245 211 84 211 84 c 1
 211 84 211 84 211 84 c 1
 211 61 219 41 236 25 c 0
 252 8 272 0 295 0 c 1
 295 0 295 0 295 0 c 1
 318 0 338 8 355 25 c 0
 371 41 379 61 379 84 c 2
 379 84 379 117 379 117 c 1
 379 117 379 117 379 117 c 1
 462 39 538 0 608 0 c 2
 608 0 752 0 752 0 c 1
 752 0 752 0 752 0 c 1
 776 0 805 7 840 22 c 0
 875 36 901 52 920 70 c 2
 920 70 993 139 993 139 c 1
 993 139 993 139 993 139 c 1
 1010 155 1026 180 1039 214 c 0
 1052 248 1059 280 1059 311 c 2
 1059 311 1059 651 1059 651 c 1
 1059 651 1059 651 1059 651 c 1
 1059 686 1052 721 1038 757 c 0
 1023 793 1005 821 983 840 c 2
 983 840 903 909 903 909 c 1
 903 909 903 909 903 909 c 1
 859 948 809 967 752 967 c 2
 752 967 598 967 598 967 c 1
 598 967 598 967 598 967 c 1
 548 967 500 948 453 909 c 2
 453 909 379 850 379 850 c 1
 379 850 379 1245 379 1245 c 1
 379 1245 379 1245 379 1245 c 1
739 797 m 1
 762 797 782 789 801 774 c 2
 801 774 862 723 862 723 c 1
 862 723 862 723 862 723 c 1
 880 708 889 687 889 659 c 2
 889 659 889 305 889 305 c 1
 889 305 889 305 889 305 c 1
 889 280 880 261 862 248 c 2
 862 248 795 188 795 188 c 1
 795 188 795 188 795 188 c 1
 781 176 764 170 745 170 c 2
 745 170 608 170 608 170 c 1
 608 170 608 170 608 170 c 1
 587 170 566 179 547 197 c 2
 547 197 412 311 412 311 c 1
 412 311 412 311 412 311 c 1
 390 330 379 353 379 381 c 2
 379 381 379 571 379 571 c 1
 379 571 379 571 379 571 c 1
 379 606 389 632 408 649 c 2
 408 649 559 778 559 778 c 1
 559 778 559 778 559 778 c 1
 574 791 595 797 623 797 c 2
 623 797 739 797 739 797 c 1
 739 797 739 797 739 797 c 1
EndSplineSet
Validated: 5
EndChar

StartChar: c
Encoding: 99 99 68
Width: 1237
Flags: W
LayerCount: 2
Fore
SplineSet
971 0 m 1
 994 0 1014 8 1031 25 c 0
 1047 41 1055 61 1055 84 c 1
 1055 84 1055 84 1055 84 c 1
 1055 107 1047 127 1030 144 c 0
 1013 160 994 168 971 168 c 2
 971 168 627 168 627 168 c 1
 627 168 627 168 627 168 c 1
 596 168 572 176 553 193 c 2
 553 193 405 319 405 319 c 1
 405 319 405 319 405 319 c 1
 388 334 379 353 379 375 c 2
 379 375 379 580 379 580 c 1
 379 580 379 580 379 580 c 1
 379 611 390 636 412 655 c 2
 412 655 547 770 547 770 c 1
 547 770 547 770 547 770 c 1
 568 788 589 797 612 797 c 2
 612 797 973 797 973 797 c 1
 973 797 973 797 973 797 c 1
 996 797 1016 805 1033 821 c 0
 1049 837 1057 857 1057 881 c 1
 1057 881 1057 881 1057 881 c 1
 1057 904 1049 924 1033 941 c 0
 1016 957 996 965 973 965 c 2
 973 965 596 965 596 965 c 1
 596 965 596 965 596 965 c 1
 542 965 491 946 444 907 c 2
 444 907 297 780 297 780 c 1
 297 780 297 780 297 780 c 1
 236 727 206 665 209 594 c 2
 209 594 209 375 209 375 c 1
 209 375 209 375 209 375 c 1
 209 301 235 242 287 199 c 2
 287 199 450 57 450 57 c 1
 450 57 450 57 450 57 c 1
 495 19 549 0 612 0 c 2
 612 0 971 0 971 0 c 1
 971 0 971 0 971 0 c 1
EndSplineSet
Validated: 37
EndChar

StartChar: d
Encoding: 100 100 69
Width: 1237
Flags: W
LayerCount: 2
Fore
SplineSet
825 897 m 1
 825 897 825 897 825 897 c 1
 771 944 711 967 645 967 c 2
 645 967 524 967 524 967 c 1
 524 967 524 967 524 967 c 1
 457 967 399 946 350 903 c 2
 350 903 281 844 281 844 c 1
 281 844 281 844 281 844 c 1
 260 826 241 799 225 764 c 0
 209 728 201 691 201 653 c 2
 201 653 201 311 201 311 c 1
 201 311 201 311 201 311 c 1
 201 280 208 246 223 210 c 0
 237 174 252 148 268 133 c 2
 268 133 338 74 338 74 c 1
 338 74 338 74 338 74 c 1
 395 25 453 0 510 0 c 2
 510 0 653 0 653 0 c 1
 653 0 653 0 653 0 c 1
 724 0 801 40 883 121 c 1
 883 121 883 84 883 84 c 1
 883 84 883 84 883 84 c 1
 883 61 891 41 907 25 c 0
 923 8 943 0 967 0 c 1
 967 0 967 0 967 0 c 1
 990 0 1009 8 1026 25 c 0
 1043 41 1051 61 1051 84 c 2
 1051 84 1051 1245 1051 1245 c 1
 1051 1245 1051 1245 1051 1245 c 1
 1051 1268 1043 1288 1026 1305 c 0
 1009 1321 988 1329 965 1329 c 1
 965 1329 965 1329 965 1329 c 1
 942 1329 923 1321 907 1305 c 0
 891 1288 883 1268 883 1245 c 2
 883 1245 883 848 883 848 c 1
 883 848 825 897 825 897 c 1
639 797 m 1
 669 797 693 789 711 772 c 2
 711 772 848 655 848 655 c 1
 848 655 848 655 848 655 c 1
 871 636 883 606 883 565 c 2
 883 565 883 383 883 383 c 1
 883 383 883 383 883 383 c 1
 883 354 872 330 850 311 c 2
 850 311 717 201 717 201 c 1
 717 201 717 201 717 201 c 1
 692 180 671 170 653 170 c 2
 653 170 516 170 516 170 c 1
 516 170 516 170 516 170 c 1
 497 170 478 178 461 193 c 2
 461 193 406 240 406 240 c 1
 406 240 406 240 406 240 c 1
 384 259 373 280 373 303 c 2
 373 303 373 659 373 659 c 1
 373 659 373 659 373 659 c 1
 373 685 382 706 401 723 c 2
 401 723 455 770 455 770 c 1
 455 770 455 770 455 770 c 1
 475 788 497 797 522 797 c 2
 522 797 639 797 639 797 c 1
 639 797 639 797 639 797 c 1
EndSplineSet
Validated: 5
EndChar

StartChar: e
Encoding: 101 101 70
Width: 1237
Flags: W
LayerCount: 2
Fore
SplineSet
1053 649 m 1
 1053 730 1030 790 985 831 c 2
 985 831 922 891 922 891 c 1
 922 891 922 891 922 891 c 1
 869 940 813 965 754 965 c 2
 754 965 518 965 518 965 c 1
 518 965 518 965 518 965 c 1
 462 965 411 946 365 909 c 2
 365 909 295 854 295 854 c 1
 295 854 295 854 295 854 c 1
 269 833 248 804 231 767 c 0
 214 730 205 700 205 678 c 2
 205 678 205 293 205 293 c 1
 205 293 205 293 205 293 c 1
 205 265 213 234 229 201 c 0
 244 168 264 142 287 123 c 2
 287 123 362 57 362 57 c 1
 362 57 362 57 362 57 c 1
 377 44 401 31 434 19 c 0
 466 6 497 0 526 0 c 2
 526 0 969 0 969 0 c 1
 969 0 969 0 969 0 c 1
 991 0 1011 8 1028 25 c 0
 1045 42 1053 61 1053 84 c 1
 1053 84 1053 84 1053 84 c 1
 1053 107 1045 127 1028 144 c 0
 1011 160 992 168 969 168 c 2
 969 168 537 168 537 168 c 1
 537 168 537 168 537 168 c 1
 513 168 488 178 461 199 c 2
 461 199 412 240 412 240 c 1
 412 240 412 240 412 240 c 1
 387 260 375 284 375 313 c 2
 375 313 375 362 375 362 c 1
 375 362 969 362 969 362 c 1
 969 362 969 362 969 362 c 1
 992 362 1011 370 1028 387 c 0
 1045 404 1053 423 1053 446 c 2
 1053 446 1053 649 1053 649 c 1
 1053 649 1053 649 1053 649 c 1
377 662 m 1
 377 689 388 710 410 727 c 2
 410 727 459 768 459 768 c 1
 459 768 459 768 459 768 c 1
 480 786 504 795 530 795 c 2
 530 795 741 795 741 795 c 1
 741 795 741 795 741 795 c 1
 761 795 784 785 809 764 c 2
 809 764 858 721 858 721 c 1
 858 721 858 721 858 721 c 1
 877 704 887 680 887 649 c 2
 887 649 887 532 887 532 c 1
 887 532 377 532 377 532 c 1
 377 532 377 662 377 662 c 1
 377 662 377 662 377 662 c 1
EndSplineSet
Validated: 5
EndChar

StartChar: f
Encoding: 102 102 71
Width: 1237
Flags: W
LayerCount: 2
Fore
SplineSet
760 797 m 1
 760 797 760 797 760 797 c 1
 783 797 802 805 819 822 c 0
 836 839 844 858 844 881 c 1
 844 881 844 881 844 881 c 1
 844 904 836 924 819 941 c 0
 802 958 783 966 760 965 c 2
 760 965 592 965 592 965 c 1
 592 965 592 1030 592 1030 c 1
 592 1030 592 1030 592 1030 c 1
 592 1068 605 1099 632 1123 c 0
 658 1147 691 1159 731 1159 c 2
 731 1159 928 1159 928 1159 c 1
 928 1159 928 1159 928 1159 c 1
 951 1159 970 1167 987 1184 c 0
 1004 1201 1012 1220 1012 1243 c 1
 1012 1243 1012 1243 1012 1243 c 1
 1012 1267 1004 1287 988 1304 c 0
 971 1321 951 1329 928 1329 c 2
 928 1329 731 1329 731 1329 c 1
 731 1329 731 1329 731 1329 c 1
 643 1329 570 1301 511 1244 c 0
 452 1187 422 1116 422 1030 c 2
 422 1030 422 965 422 965 c 1
 422 965 334 965 334 965 c 1
 334 965 334 965 334 965 c 1
 308 965 288 957 273 940 c 0
 258 923 250 903 250 881 c 1
 250 881 250 881 250 881 c 1
 250 858 258 839 275 822 c 0
 291 805 311 797 334 797 c 2
 334 797 420 797 420 797 c 1
 420 797 420 84 420 84 c 1
 420 84 420 84 420 84 c 1
 420 61 428 41 445 25 c 0
 462 8 482 0 506 0 c 1
 506 0 506 0 506 0 c 1
 529 0 548 8 565 25 c 0
 582 41 590 61 590 84 c 2
 590 84 590 797 590 797 c 1
 590 797 760 797 760 797 c 1
EndSplineSet
Validated: 5
EndChar

StartChar: g
Encoding: 103 103 72
Width: 1237
Flags: W
LayerCount: 2
Fore
SplineSet
735 -360 m 1
 762 -360 792 -354 824 -343 c 0
 855 -332 880 -318 897 -303 c 2
 897 -303 965 -244 965 -244 c 1
 965 -244 965 -244 965 -244 c 1
 1022 -193 1051 -132 1051 -61 c 2
 1051 -61 1051 881 1051 881 c 1
 1051 881 1051 881 1051 881 c 1
 1051 904 1043 924 1026 941 c 0
 1009 957 988 965 965 965 c 1
 965 965 965 965 965 965 c 1
 942 965 923 957 906 940 c 0
 889 923 881 904 881 881 c 2
 881 881 883 848 883 848 c 1
 883 848 825 897 825 897 c 1
 825 897 825 897 825 897 c 1
 771 944 711 967 645 967 c 2
 645 967 524 967 524 967 c 1
 524 967 524 967 524 967 c 1
 457 967 399 946 350 903 c 2
 350 903 281 844 281 844 c 1
 281 844 281 844 281 844 c 1
 260 827 243 800 228 765 c 0
 213 730 205 692 205 653 c 2
 205 653 205 375 205 375 c 1
 205 375 205 375 205 375 c 1
 205 343 213 310 228 277 c 0
 243 244 260 218 281 201 c 2
 281 201 344 145 344 145 c 1
 344 145 344 145 344 145 c 1
 397 99 457 76 524 76 c 2
 524 76 653 76 653 76 c 1
 653 76 653 76 653 76 c 1
 728 76 804 116 883 195 c 1
 883 195 883 -61 883 -61 c 1
 883 -61 883 -61 883 -61 c 1
 883 -85 873 -104 854 -119 c 2
 854 -119 797 -168 797 -168 c 1
 797 -168 797 -168 797 -168 c 1
 778 -185 757 -193 735 -193 c 2
 735 -193 371 -193 371 -193 c 1
 371 -193 371 -193 371 -193 c 1
 348 -193 328 -201 312 -217 c 0
 295 -233 287 -253 287 -276 c 1
 287 -276 287 -276 287 -276 c 1
 287 -300 295 -320 312 -336 c 0
 328 -352 348 -360 371 -360 c 2
 371 -360 735 -360 735 -360 c 1
 735 -360 735 -360 735 -360 c 1
639 799 m 1
 668 799 692 790 711 772 c 2
 711 772 848 655 848 655 c 1
 848 655 848 655 848 655 c 1
 871 636 883 611 883 580 c 2
 883 580 883 453 883 453 c 1
 883 453 883 453 883 453 c 1
 883 427 873 405 852 387 c 2
 852 387 719 274 719 274 c 1
 719 274 719 274 719 274 c 1
 695 254 673 244 653 244 c 2
 653 244 516 244 516 244 c 1
 516 244 516 244 516 244 c 1
 497 244 478 251 461 266 c 2
 461 266 406 315 406 315 c 1
 406 315 406 315 406 315 c 1
 384 335 373 356 373 379 c 2
 373 379 373 659 373 659 c 1
 373 659 373 659 373 659 c 1
 373 688 383 710 403 727 c 2
 403 727 455 770 455 770 c 1
 455 770 455 770 455 770 c 1
 478 789 501 799 526 799 c 2
 526 799 639 799 639 799 c 1
 639 799 639 799 639 799 c 1
EndSplineSet
Validated: 5
EndChar

StartChar: h
Encoding: 104 104 73
Width: 1237
Flags: W
LayerCount: 2
Fore
SplineSet
205 84 m 1
 205 61 213 41 230 25 c 0
 246 8 266 0 289 0 c 1
 289 0 289 0 289 0 c 1
 312 0 332 8 349 25 c 0
 365 41 373 61 373 84 c 2
 373 84 373 618 373 618 c 1
 373 618 612 774 612 774 c 1
 612 774 612 774 612 774 c 1
 637 791 661 799 682 799 c 2
 682 799 776 799 776 799 c 1
 776 799 776 799 776 799 c 1
 799 799 819 791 836 774 c 0
 853 757 861 738 862 715 c 2
 862 715 883 84 883 84 c 1
 883 84 883 84 883 84 c 1
 884 62 892 43 908 26 c 0
 924 9 944 0 967 0 c 1
 967 0 967 0 967 0 c 1
 990 0 1010 8 1027 25 c 0
 1044 41 1052 61 1051 84 c 2
 1051 84 1030 713 1030 713 c 1
 1030 713 1030 713 1030 713 c 1
 1028 783 1002 843 953 892 c 0
 904 941 845 965 776 965 c 2
 776 965 672 965 672 965 c 1
 672 965 672 965 672 965 c 1
 624 965 569 946 508 907 c 2
 508 907 373 819 373 819 c 1
 373 819 373 1243 373 1243 c 1
 373 1243 373 1243 373 1243 c 1
 373 1266 365 1286 349 1303 c 0
 332 1319 312 1327 289 1327 c 1
 289 1327 289 1327 289 1327 c 1
 266 1327 246 1319 230 1303 c 0
 213 1287 205 1268 205 1245 c 2
 205 1245 205 84 205 84 c 1
 205 84 205 84 205 84 c 1
EndSplineSet
Validated: 5
EndChar

StartChar: i
Encoding: 105 105 74
Width: 1237
Flags: W
LayerCount: 2
Fore
SplineSet
543 1403 m 1
 520 1403 500 1395 484 1379 c 0
 467 1362 459 1342 459 1319 c 2
 459 1319 457 1245 457 1245 c 1
 457 1245 457 1245 457 1245 c 1
 456 1224 464 1204 481 1187 c 0
 497 1170 517 1161 541 1161 c 2
 541 1161 631 1161 631 1161 c 1
 631 1161 631 1161 631 1161 c 1
 654 1161 674 1170 691 1187 c 0
 707 1204 715 1224 715 1247 c 2
 715 1247 715 1319 715 1319 c 1
 715 1319 715 1319 715 1319 c 1
 715 1342 707 1362 691 1379 c 0
 674 1395 654 1403 631 1403 c 2
 631 1403 543 1403 543 1403 c 1
 543 1403 543 1403 543 1403 c 1
885 2 m 1
 908 2 927 10 944 27 c 0
 961 43 969 63 969 86 c 1
 969 86 969 86 969 86 c 1
 969 109 961 129 944 146 c 0
 927 162 906 170 883 170 c 2
 883 170 715 170 715 170 c 1
 715 170 715 881 715 881 c 1
 715 881 715 881 715 881 c 1
 715 904 707 925 691 942 c 0
 674 959 654 967 631 967 c 2
 631 967 375 967 375 967 c 1
 375 967 375 967 375 967 c 1
 352 967 332 959 316 942 c 0
 299 925 291 904 291 881 c 1
 291 881 291 881 291 881 c 1
 291 858 299 839 316 822 c 0
 332 805 352 797 375 797 c 2
 375 797 545 797 545 797 c 1
 545 797 545 170 545 170 c 1
 545 170 373 170 373 170 c 1
 373 170 373 170 373 170 c 1
 350 170 330 162 314 145 c 0
 297 128 289 109 289 86 c 1
 289 86 289 86 289 86 c 1
 289 63 297 43 314 27 c 0
 330 10 350 2 373 2 c 2
 373 2 885 2 885 2 c 1
 885 2 885 2 885 2 c 1
EndSplineSet
Validated: 5
EndChar

StartChar: j
Encoding: 106 106 75
Width: 1237
Flags: W
LayerCount: 2
Fore
SplineSet
799 1399 m 1
 777 1399 758 1391 741 1374 c 0
 724 1357 716 1338 715 1315 c 2
 715 1315 715 1241 715 1241 c 1
 715 1241 715 1241 715 1241 c 1
 715 1218 723 1198 740 1182 c 0
 756 1165 776 1157 799 1157 c 2
 799 1157 889 1157 889 1157 c 1
 889 1157 889 1157 889 1157 c 1
 912 1157 932 1165 949 1182 c 0
 965 1199 973 1218 973 1241 c 2
 973 1241 973 1315 973 1315 c 1
 973 1315 973 1315 973 1315 c 1
 973 1337 965 1357 948 1374 c 0
 931 1391 911 1399 889 1399 c 2
 889 1399 799 1399 799 1399 c 1
 799 1399 799 1399 799 1399 c 1
719 -360 m 1
 788 -360 848 -335 897 -286 c 0
 946 -237 971 -178 971 -109 c 2
 971 -109 971 879 971 879 c 1
 971 879 971 879 971 879 c 1
 971 902 963 923 947 940 c 0
 930 957 910 965 887 965 c 2
 887 965 545 965 545 965 c 1
 545 965 545 965 545 965 c 1
 522 965 502 957 486 940 c 0
 469 923 461 904 461 881 c 1
 461 881 461 881 461 881 c 1
 461 857 469 837 486 821 c 0
 502 805 522 797 545 797 c 2
 545 797 801 797 801 797 c 1
 801 797 801 -109 801 -109 c 1
 801 -109 801 -109 801 -109 c 1
 801 -132 793 -152 777 -168 c 0
 760 -185 740 -193 717 -193 c 2
 717 -193 549 -193 549 -193 c 1
 549 -193 549 -193 549 -193 c 1
 520 -193 499 -187 487 -174 c 0
 475 -161 465 -143 456 -119 c 0
 447 -95 437 -77 427 -66 c 0
 416 -55 398 -49 373 -49 c 1
 373 -49 373 -49 373 -49 c 1
 349 -49 329 -57 312 -74 c 0
 295 -91 287 -109 287 -129 c 1
 287 -129 287 -129 287 -129 c 1
 287 -185 312 -237 363 -286 c 0
 414 -335 473 -360 541 -360 c 2
 541 -360 719 -360 719 -360 c 1
 719 -360 719 -360 719 -360 c 1
EndSplineSet
Validated: 5
EndChar

StartChar: k
Encoding: 107 107 76
Width: 1237
Flags: W
LayerCount: 2
Fore
SplineSet
207 84 m 1
 207 61 215 41 232 25 c 0
 248 8 268 0 291 0 c 1
 291 0 291 0 291 0 c 1
 314 0 334 8 351 25 c 0
 367 41 375 61 375 84 c 2
 375 84 375 338 375 338 c 1
 375 338 463 412 463 412 c 1
 463 412 911 23 911 23 c 1
 911 23 911 23 911 23 c 1
 929 8 950 0 973 0 c 1
 973 0 973 0 973 0 c 1
 996 0 1016 9 1032 27 c 0
 1048 44 1056 64 1056 86 c 1
 1056 86 1056 86 1056 86 c 1
 1056 109 1047 127 1030 141 c 2
 1030 141 596 522 596 522 c 1
 596 522 948 821 948 821 c 1
 948 821 948 821 948 821 c 1
 965 836 974 855 974 880 c 1
 974 880 974 880 974 880 c 1
 974 903 966 924 950 941 c 0
 934 958 914 966 890 966 c 1
 890 966 890 966 890 966 c 1
 867 966 846 958 827 942 c 2
 827 942 375 557 375 557 c 1
 375 557 375 1243 375 1243 c 1
 375 1243 375 1243 375 1243 c 1
 375 1267 367 1287 351 1304 c 0
 334 1321 314 1329 291 1329 c 1
 291 1329 291 1329 291 1329 c 1
 268 1329 248 1321 232 1304 c 0
 215 1287 207 1267 207 1243 c 2
 207 1243 207 84 207 84 c 1
 207 84 207 84 207 84 c 1
EndSplineSet
Validated: 5
EndChar

StartChar: l
Encoding: 108 108 77
Width: 1237
Flags: W
LayerCount: 2
Fore
SplineSet
885 0 m 1
 908 0 928 9 945 26 c 0
 961 43 969 63 969 86 c 1
 969 86 969 86 969 86 c 1
 969 109 961 128 944 145 c 0
 927 162 908 170 885 170 c 2
 885 170 715 170 715 170 c 1
 715 170 715 1245 715 1245 c 1
 715 1245 715 1245 715 1245 c 1
 715 1268 707 1287 690 1304 c 0
 673 1321 654 1329 631 1329 c 2
 631 1329 375 1329 375 1329 c 1
 375 1329 375 1329 375 1329 c 1
 352 1329 332 1321 316 1305 c 0
 299 1288 291 1268 291 1245 c 1
 291 1245 291 1245 291 1245 c 1
 291 1222 299 1202 316 1186 c 0
 332 1169 352 1161 375 1161 c 2
 375 1161 545 1161 545 1161 c 1
 545 1161 545 170 545 170 c 1
 545 170 377 170 377 170 c 1
 377 170 377 170 377 170 c 1
 354 170 334 162 318 145 c 0
 301 128 293 109 293 86 c 1
 293 86 293 86 293 86 c 1
 293 63 301 43 318 26 c 0
 334 9 354 0 377 0 c 2
 377 0 885 0 885 0 c 1
 885 0 885 0 885 0 c 1
EndSplineSet
Validated: 5
EndChar

StartChar: m
Encoding: 109 109 78
Width: 1237
Flags: W
LayerCount: 2
Fore
SplineSet
186 84 m 1
 186 61 195 42 212 25 c 0
 229 8 249 0 272 0 c 1
 272 0 272 0 272 0 c 1
 295 0 314 8 330 25 c 0
 346 42 354 61 354 84 c 2
 354 84 354 682 354 682 c 1
 354 682 475 784 475 784 c 1
 475 784 475 784 475 784 c 1
 485 793 496 797 508 797 c 1
 508 797 508 797 508 797 c 1
 533 797 545 783 545 754 c 2
 545 754 545 86 545 86 c 1
 545 86 545 86 545 86 c 1
 545 63 553 43 570 27 c 0
 587 10 606 2 629 2 c 1
 629 2 629 2 629 2 c 1
 652 2 672 10 689 26 c 0
 705 42 713 61 713 84 c 2
 713 84 713 698 713 698 c 1
 713 698 813 782 813 782 c 1
 813 782 813 782 813 782 c 1
 825 792 837 797 848 797 c 1
 848 797 848 797 848 797 c 1
 869 797 880 779 881 743 c 2
 881 743 901 84 901 84 c 1
 901 84 901 84 901 84 c 1
 902 61 910 42 927 25 c 0
 944 8 964 0 987 0 c 1
 987 0 987 0 987 0 c 1
 1010 0 1029 8 1046 25 c 0
 1063 42 1071 61 1071 84 c 2
 1071 84 1047 770 1047 770 c 1
 1047 770 1047 770 1047 770 c 1
 1044 827 1024 875 986 912 c 0
 947 949 902 967 850 967 c 1
 850 967 850 967 850 967 c 1
 786 967 727 938 674 881 c 1
 674 881 674 881 674 881 c 1
 631 938 575 967 508 967 c 1
 508 967 508 967 508 967 c 1
 451 967 399 945 352 901 c 1
 352 901 352 901 352 901 c 1
 341 944 313 965 270 965 c 1
 270 965 270 965 270 965 c 1
 247 965 227 957 211 941 c 0
 194 924 186 904 186 881 c 2
 186 881 186 84 186 84 c 1
 186 84 186 84 186 84 c 1
EndSplineSet
Validated: 5
EndChar

StartChar: n
Encoding: 110 110 79
Width: 1237
Flags: W
LayerCount: 2
Fore
SplineSet
604 770 m 1
 633 789 661 799 686 799 c 2
 686 799 768 799 768 799 c 1
 768 799 768 799 768 799 c 1
 827 799 858 770 860 711 c 2
 860 711 885 84 885 84 c 1
 885 84 885 84 885 84 c 1
 886 58 894 38 911 23 c 0
 928 8 947 0 969 0 c 1
 969 0 969 0 969 0 c 1
 992 0 1012 8 1029 25 c 0
 1046 42 1054 61 1053 84 c 2
 1053 84 1030 721 1030 721 c 1
 1030 721 1030 721 1030 721 c 1
 1027 790 1002 849 953 896 c 0
 904 943 847 967 780 967 c 2
 780 967 702 967 702 967 c 1
 702 967 702 967 702 967 c 1
 637 967 579 951 528 918 c 2
 528 918 375 825 375 825 c 1
 375 825 375 881 375 881 c 1
 375 881 375 881 375 881 c 1
 375 904 367 925 350 942 c 0
 333 959 314 967 291 967 c 1
 291 967 291 967 291 967 c 1
 268 967 248 959 232 942 c 0
 215 925 207 904 207 881 c 2
 207 881 207 84 207 84 c 1
 207 84 207 84 207 84 c 1
 207 61 215 42 232 25 c 0
 249 8 268 0 291 0 c 1
 291 0 291 0 291 0 c 1
 314 0 333 8 350 25 c 0
 367 42 375 61 375 84 c 2
 375 84 375 621 375 621 c 1
 375 621 604 770 604 770 c 1
 604 770 604 770 604 770 c 1
EndSplineSet
Validated: 5
EndChar

StartChar: o
Encoding: 111 111 80
Width: 1237
Flags: W
LayerCount: 2
Fore
SplineSet
1053 662 m 1
 1053 739 1018 809 947 873 c 0
 876 937 802 968 727 967 c 2
 727 967 530 967 530 967 c 1
 530 967 530 967 530 967 c 1
 450 967 376 935 308 870 c 0
 239 805 205 735 205 662 c 2
 205 662 205 307 205 307 c 1
 205 307 205 307 205 307 c 1
 205 234 240 165 310 100 c 0
 380 35 453 2 530 2 c 2
 530 2 727 2 727 2 c 1
 727 2 727 2 727 2 c 1
 802 2 876 34 947 98 c 0
 1018 162 1053 232 1053 307 c 2
 1053 307 1053 662 1053 662 c 1
 1053 662 1053 662 1053 662 c 1
375 655 m 1
 375 683 385 706 406 723 c 2
 406 723 463 772 463 772 c 1
 463 772 463 772 463 772 c 1
 484 790 513 799 551 799 c 2
 551 799 725 799 725 799 c 1
 725 799 725 799 725 799 c 1
 752 799 775 791 795 774 c 2
 795 774 854 727 854 727 c 1
 854 727 854 727 854 727 c 1
 875 711 885 686 885 653 c 2
 885 653 885 313 885 313 c 1
 885 313 885 313 885 313 c 1
 885 284 875 262 854 246 c 2
 854 246 803 201 803 201 c 1
 803 201 803 201 803 201 c 1
 780 180 754 170 725 170 c 2
 725 170 530 170 530 170 c 1
 530 170 530 170 530 170 c 1
 505 170 485 176 471 188 c 2
 471 188 408 242 408 242 c 1
 408 242 408 242 408 242 c 1
 386 260 375 284 375 315 c 2
 375 315 375 655 375 655 c 1
 375 655 375 655 375 655 c 1
EndSplineSet
Validated: 37
EndChar

StartChar: p
Encoding: 112 112 81
Width: 1237
Flags: W
LayerCount: 2
Fore
SplineSet
442 31 m 1
 442 31 442 31 442 31 c 1
 487 -14 543 -37 608 -37 c 2
 608 -37 645 -37 645 -37 c 1
 645 -37 645 -37 645 -37 c 1
 714 -37 772 -16 817 25 c 2
 817 25 954 143 954 143 c 1
 954 143 954 143 954 143 c 1
 1020 200 1053 269 1053 352 c 2
 1053 352 1053 614 1053 614 c 1
 1053 614 1053 614 1053 614 c 1
 1053 696 1022 764 961 817 c 2
 961 817 821 938 821 938 c 1
 821 938 821 938 821 938 c 1
 771 982 716 1004 657 1004 c 2
 657 1004 618 1004 618 1004 c 1
 618 1004 618 1004 618 1004 c 1
 539 1004 458 959 377 868 c 1
 377 868 377 922 377 922 c 1
 377 922 377 922 377 922 c 1
 377 945 369 964 352 981 c 0
 335 998 316 1006 293 1006 c 1
 293 1006 293 1006 293 1006 c 1
 269 1006 249 998 232 981 c 0
 215 964 207 945 207 922 c 2
 207 922 207 -276 207 -276 c 1
 207 -276 207 -276 207 -276 c 1
 207 -300 216 -320 233 -337 c 0
 250 -354 270 -362 293 -362 c 1
 293 -362 293 -362 293 -362 c 1
 316 -362 336 -354 353 -337 c 0
 369 -320 377 -300 377 -276 c 2
 377 -276 377 96 377 96 c 1
 377 96 442 31 442 31 c 1
614 133 m 1
 591 133 565 148 535 178 c 2
 535 178 414 299 414 299 c 1
 414 299 414 299 414 299 c 1
 389 324 377 349 377 375 c 2
 377 375 377 590 377 590 c 1
 377 590 377 590 377 590 c 1
 377 617 388 642 410 664 c 2
 410 664 535 788 535 788 c 1
 535 788 535 788 535 788 c 1
 565 819 589 834 608 834 c 2
 608 834 657 834 657 834 c 1
 657 834 657 834 657 834 c 1
 676 834 693 827 709 813 c 2
 709 813 850 692 850 692 c 1
 850 692 850 692 850 692 c 1
 875 671 887 648 887 621 c 2
 887 621 887 350 887 350 c 1
 887 350 887 350 887 350 c 1
 887 320 876 296 854 279 c 2
 854 279 723 164 723 164 c 1
 723 164 723 164 723 164 c 1
 700 143 678 133 657 133 c 2
 657 133 614 133 614 133 c 1
 614 133 614 133 614 133 c 1
EndSplineSet
Validated: 5
EndChar

StartChar: q
Encoding: 113 113 82
Width: 1237
Flags: W
LayerCount: 2
Fore
SplineSet
885 -274 m 1
 885 -298 893 -318 910 -335 c 0
 926 -352 946 -360 969 -360 c 1
 969 -360 969 -360 969 -360 c 1
 992 -360 1012 -352 1029 -335 c 0
 1045 -318 1053 -298 1053 -274 c 2
 1053 -274 1053 883 1053 883 c 1
 1053 883 1053 883 1053 883 c 1
 1053 906 1045 926 1029 943 c 0
 1012 959 992 967 969 967 c 1
 969 967 969 967 969 967 c 1
 946 967 926 959 910 943 c 0
 893 926 885 906 885 883 c 2
 885 883 885 848 885 848 c 1
 885 848 885 848 885 848 c 1
 801 927 724 967 653 967 c 2
 653 967 530 967 530 967 c 1
 530 967 530 967 530 967 c 1
 460 967 397 942 342 891 c 2
 342 891 281 838 281 838 c 1
 281 838 281 838 281 838 c 1
 232 795 207 734 207 653 c 2
 207 653 207 303 207 303 c 1
 207 303 207 303 207 303 c 1
 207 271 215 238 230 204 c 0
 245 169 264 142 287 123 c 2
 287 123 365 57 365 57 c 1
 365 57 365 57 365 57 c 1
 410 19 466 0 532 0 c 2
 532 0 645 0 645 0 c 1
 645 0 645 0 645 0 c 1
 707 0 766 23 821 68 c 2
 821 68 885 121 885 121 c 1
 885 121 885 -274 885 -274 c 1
 885 -274 885 -274 885 -274 c 1
524 170 m 1
 503 170 484 178 465 193 c 2
 465 193 410 242 410 242 c 1
 410 242 410 242 410 242 c 1
 387 263 375 284 375 307 c 2
 375 307 375 662 375 662 c 1
 375 662 375 662 375 662 c 1
 375 685 385 705 406 723 c 2
 406 723 469 778 469 778 c 1
 469 778 469 778 469 778 c 1
 483 791 499 797 518 797 c 2
 518 797 655 797 655 797 c 1
 655 797 655 797 655 797 c 1
 680 797 702 787 723 766 c 2
 723 766 850 653 850 653 c 1
 850 653 850 653 850 653 c 1
 873 632 885 611 885 588 c 2
 885 588 885 395 885 395 c 1
 885 395 885 395 885 395 c 1
 885 359 876 333 858 317 c 2
 858 317 707 188 707 188 c 1
 707 188 707 188 707 188 c 1
 692 176 670 170 641 170 c 2
 641 170 524 170 524 170 c 1
 524 170 524 170 524 170 c 1
EndSplineSet
Validated: 5
EndChar

StartChar: r
Encoding: 114 114 83
Width: 1237
Flags: W
LayerCount: 2
Fore
SplineSet
207 84 m 1
 207 61 215 41 232 25 c 0
 248 8 268 0 291 0 c 1
 291 0 291 0 291 0 c 1
 314 0 333 8 350 25 c 0
 367 41 375 61 375 84 c 2
 375 84 375 553 375 553 c 1
 375 553 614 760 614 760 c 1
 614 760 614 760 614 760 c 1
 643 785 669 797 692 797 c 2
 692 797 801 797 801 797 c 1
 801 797 801 797 801 797 c 1
 824 797 844 789 861 773 c 0
 877 756 885 736 885 713 c 2
 885 713 885 666 885 666 c 1
 885 666 885 666 885 666 c 1
 885 643 893 623 910 607 c 0
 926 590 946 582 969 582 c 1
 969 582 969 582 969 582 c 1
 992 582 1012 590 1029 607 c 0
 1045 624 1053 644 1053 668 c 2
 1053 668 1053 713 1053 713 c 1
 1053 713 1053 713 1053 713 c 1
 1053 782 1028 842 979 891 c 0
 930 940 870 965 801 965 c 2
 801 965 678 965 678 965 c 1
 678 965 678 965 678 965 c 1
 624 965 569 941 512 893 c 2
 512 893 375 776 375 776 c 1
 375 776 375 881 375 881 c 1
 375 881 375 881 375 881 c 1
 375 905 367 925 351 942 c 0
 334 959 314 967 291 967 c 1
 291 967 291 967 291 967 c 1
 268 967 248 959 232 942 c 0
 215 925 207 904 207 881 c 2
 207 881 207 84 207 84 c 1
 207 84 207 84 207 84 c 1
EndSplineSet
Validated: 5
EndChar

StartChar: s
Encoding: 115 115 84
Width: 1237
Flags: W
LayerCount: 2
Fore
SplineSet
442 965 m 1
 381 965 329 943 288 899 c 0
 246 855 225 803 225 743 c 1
 225 743 225 743 225 743 c 1
 225 705 237 668 260 631 c 0
 283 594 317 566 360 547 c 2
 360 547 811 344 811 344 c 1
 811 344 811 344 811 344 c 1
 848 327 867 300 867 262 c 1
 867 262 867 262 867 262 c 1
 867 237 859 216 842 197 c 0
 825 178 805 168 780 168 c 2
 780 168 467 168 467 168 c 1
 467 168 467 168 467 168 c 1
 421 168 386 180 362 204 c 0
 337 228 314 240 293 240 c 1
 293 240 293 240 293 240 c 1
 267 240 246 232 230 215 c 0
 213 198 205 178 205 156 c 1
 205 156 205 156 205 156 c 1
 205 123 230 88 281 53 c 0
 331 18 385 0 444 0 c 2
 444 0 784 0 784 0 c 1
 784 0 784 0 784 0 c 1
 849 0 907 25 958 75 c 0
 1009 125 1034 186 1034 258 c 1
 1034 258 1034 258 1034 258 c 1
 1034 312 1020 361 991 406 c 0
 962 450 924 482 879 502 c 2
 879 502 432 700 432 700 c 1
 432 700 432 700 432 700 c 1
 407 711 395 728 395 750 c 1
 395 750 395 750 395 750 c 1
 395 781 414 797 451 797 c 2
 451 797 831 797 831 797 c 1
 831 797 831 797 831 797 c 1
 855 797 878 785 900 761 c 0
 922 737 946 725 973 725 c 1
 973 725 973 725 973 725 c 1
 994 725 1013 733 1030 748 c 0
 1047 763 1055 783 1055 807 c 1
 1055 807 1055 807 1055 807 c 1
 1055 841 1032 876 986 912 c 0
 940 947 887 965 827 965 c 2
 827 965 442 965 442 965 c 1
 442 965 442 965 442 965 c 1
EndSplineSet
Validated: 5
EndChar

StartChar: t
Encoding: 116 116 85
Width: 1237
Flags: W
LayerCount: 2
Fore
SplineSet
797 0 m 1
 871 0 932 25 980 76 c 0
 1027 126 1051 176 1051 227 c 1
 1051 227 1051 227 1051 227 c 1
 1051 252 1043 272 1028 289 c 0
 1012 305 992 313 967 313 c 1
 967 313 967 313 967 313 c 1
 925 313 897 289 882 241 c 0
 867 192 838 168 793 168 c 2
 793 168 629 168 629 168 c 1
 629 168 629 168 629 168 c 1
 606 168 586 176 569 193 c 0
 552 210 543 229 543 252 c 2
 543 252 543 797 543 797 c 1
 543 797 883 797 883 797 c 1
 883 797 883 797 883 797 c 1
 906 797 925 805 942 822 c 0
 959 838 967 858 967 881 c 1
 967 881 967 881 967 881 c 1
 967 904 959 923 942 940 c 0
 925 957 906 965 883 965 c 2
 883 965 545 965 545 965 c 1
 545 965 545 1171 545 1171 c 1
 545 1171 545 1171 545 1171 c 1
 545 1194 537 1213 520 1230 c 0
 503 1247 483 1255 461 1255 c 1
 461 1255 461 1255 461 1255 c 1
 438 1255 418 1247 402 1231 c 0
 385 1214 377 1194 377 1171 c 2
 377 1171 377 965 377 965 c 1
 377 965 289 965 289 965 c 1
 289 965 289 965 289 965 c 1
 266 965 246 957 230 941 c 0
 213 924 205 904 205 881 c 1
 205 881 205 881 205 881 c 1
 205 857 213 837 230 821 c 0
 246 805 266 797 289 797 c 2
 289 797 375 797 375 797 c 1
 375 797 375 252 375 252 c 1
 375 252 375 252 375 252 c 1
 375 183 400 123 450 74 c 0
 500 25 560 0 629 0 c 2
 629 0 797 0 797 0 c 1
 797 0 797 0 797 0 c 1
EndSplineSet
Validated: 5
EndChar

StartChar: u
Encoding: 117 117 86
Width: 1237
Flags: W
LayerCount: 2
Fore
SplineSet
504 170 m 1
 504 170 504 170 504 170 c 1
 437 170 403 200 401 260 c 2
 401 260 379 881 379 881 c 1
 379 881 379 881 379 881 c 1
 378 904 370 923 354 940 c 0
 337 957 318 965 295 965 c 1
 295 965 295 965 295 965 c 1
 272 965 252 957 235 940 c 0
 218 923 210 903 211 881 c 2
 211 881 235 248 235 248 c 1
 235 248 235 248 235 248 c 1
 238 179 265 120 314 72 c 0
 363 24 422 0 491 0 c 2
 491 0 569 0 569 0 c 1
 569 0 569 0 569 0 c 1
 628 0 686 18 743 55 c 2
 743 55 889 150 889 150 c 1
 889 150 889 84 889 84 c 1
 889 84 889 84 889 84 c 1
 889 61 897 42 914 25 c 0
 931 8 950 0 973 0 c 1
 973 0 973 0 973 0 c 1
 996 0 1015 8 1032 25 c 0
 1049 42 1057 61 1057 84 c 2
 1057 84 1057 881 1057 881 c 1
 1057 881 1057 881 1057 881 c 1
 1057 904 1049 925 1033 942 c 0
 1016 959 996 967 973 967 c 1
 973 967 973 967 973 967 c 1
 950 967 930 959 914 942 c 0
 897 925 889 904 889 881 c 2
 889 881 889 350 889 350 c 1
 889 350 606 170 606 170 c 1
 606 170 504 170 504 170 c 1
EndSplineSet
Validated: 5
EndChar

StartChar: v
Encoding: 118 118 87
Width: 1237
Flags: W
LayerCount: 2
Fore
SplineSet
1053 881 m 1
 1053 904 1045 924 1029 941 c 0
 1012 957 992 965 969 965 c 1
 969 965 969 965 969 965 c 1
 945 965 925 957 908 941 c 0
 891 924 883 904 883 881 c 2
 883 881 883 754 883 754 c 1
 883 754 629 176 629 176 c 1
 629 176 373 752 373 752 c 1
 373 752 373 881 373 881 c 1
 373 881 373 881 373 881 c 1
 373 904 365 924 349 941 c 0
 332 957 312 965 289 965 c 1
 289 965 289 965 289 965 c 1
 266 965 246 957 230 941 c 0
 213 924 205 904 205 881 c 2
 205 881 205 719 205 719 c 1
 205 719 494 61 494 61 c 1
 494 61 494 61 494 61 c 1
 512 20 541 0 580 0 c 2
 580 0 688 0 688 0 c 1
 688 0 688 0 688 0 c 1
 719 0 743 20 762 59 c 2
 762 59 1053 721 1053 721 c 1
 1053 721 1053 881 1053 881 c 1
 1053 881 1053 881 1053 881 c 1
EndSplineSet
Validated: 5
EndChar

StartChar: w
Encoding: 119 119 88
Width: 1237
Flags: W
LayerCount: 2
Fore
SplineSet
714 592 m 1
 714 615 706 635 689 652 c 0
 672 668 653 676 630 676 c 1
 630 676 630 676 630 676 c 1
 606 676 586 668 569 652 c 0
 552 635 544 615 544 592 c 2
 544 592 544 397 544 397 c 1
 544 397 427 201 427 201 c 1
 427 201 372 389 372 389 c 1
 372 389 353 881 353 881 c 1
 353 881 353 881 353 881 c 1
 352 906 344 926 328 942 c 0
 311 957 292 965 271 965 c 1
 271 965 271 965 271 965 c 1
 248 965 227 957 210 940 c 0
 193 923 184 903 185 881 c 2
 185 881 204 365 204 365 c 1
 204 365 292 57 292 57 c 1
 292 57 292 57 292 57 c 1
 296 42 306 28 322 17 c 0
 337 6 355 0 374 0 c 2
 374 0 462 0 462 0 c 1
 462 0 462 0 462 0 c 1
 491 0 515 16 536 49 c 2
 536 49 628 205 628 205 c 1
 628 205 720 47 720 47 c 1
 720 47 720 47 720 47 c 1
 738 16 763 0 794 0 c 2
 794 0 884 0 884 0 c 1
 884 0 884 0 884 0 c 1
 923 0 949 20 962 61 c 2
 962 61 1052 358 1052 358 c 1
 1052 358 1070 881 1070 881 c 1
 1070 881 1070 881 1070 881 c 1
 1071 904 1063 924 1046 941 c 0
 1029 957 1009 965 986 965 c 1
 986 965 986 965 986 965 c 1
 964 965 945 957 929 940 c 0
 912 923 903 904 902 881 c 2
 902 881 884 391 884 391 c 1
 884 391 826 199 826 199 c 1
 826 199 714 391 714 391 c 1
 714 391 714 592 714 592 c 1
 714 592 714 592 714 592 c 1
EndSplineSet
Validated: 37
EndChar

StartChar: x
Encoding: 120 120 89
Width: 1237
Flags: W
LayerCount: 2
Fore
SplineSet
917 35 m 1
 917 35 917 35 917 35 c 1
 936 12 959 1 985 1 c 1
 985 1 985 1 985 1 c 1
 1007 1 1027 10 1044 27 c 0
 1061 44 1069 65 1069 90 c 1
 1069 90 1069 90 1069 90 c 1
 1069 109 1063 124 1052 137 c 2
 1052 137 755 496 755 496 c 1
 755 496 1038 838 1038 838 c 1
 1038 838 1038 838 1038 838 c 1
 1045 847 1049 862 1049 885 c 1
 1049 885 1049 885 1049 885 c 1
 1049 908 1040 928 1023 943 c 0
 1006 958 986 965 965 965 c 1
 965 965 965 965 965 965 c 1
 941 965 921 955 905 936 c 2
 905 936 645 629 645 629 c 1
 645 629 391 934 391 934 c 1
 391 934 391 934 391 934 c 1
 374 955 351 965 323 965 c 1
 323 965 323 965 323 965 c 1
 298 965 278 956 263 939 c 0
 247 921 239 901 239 879 c 1
 239 879 239 879 239 879 c 1
 239 860 245 844 258 829 c 2
 258 829 536 498 536 498 c 1
 536 498 235 137 235 137 c 1
 235 137 235 137 235 137 c 1
 224 124 219 107 219 86 c 1
 219 86 219 86 219 86 c 1
 219 62 227 42 243 25 c 0
 259 8 279 0 303 0 c 1
 303 0 303 0 303 0 c 1
 330 0 352 12 370 35 c 2
 370 35 645 362 645 362 c 1
 645 362 917 35 917 35 c 1
EndSplineSet
Validated: 5
EndChar

StartChar: y
Encoding: 121 121 90
Width: 1237
Flags: W
LayerCount: 2
Fore
SplineSet
1055 883 m 1
 1055 883 1055 883 1055 883 c 1
 1055 906 1047 925 1030 942 c 0
 1013 959 994 967 971 967 c 1
 971 967 971 967 971 967 c 1
 948 967 928 959 911 942 c 0
 894 925 885 905 885 883 c 2
 885 883 885 754 885 754 c 1
 885 754 657 244 657 244 c 1
 657 244 598 244 598 244 c 1
 598 244 377 756 377 756 c 1
 377 756 377 881 377 881 c 1
 377 881 377 881 377 881 c 1
 377 904 369 924 352 941 c 0
 335 957 314 965 291 965 c 1
 291 965 291 965 291 965 c 1
 268 965 249 957 233 941 c 0
 217 924 209 904 209 881 c 2
 209 881 209 719 209 719 c 1
 209 719 461 133 461 133 c 1
 461 133 461 133 461 133 c 1
 478 94 505 74 543 74 c 2
 543 74 584 74 584 74 c 1
 584 74 469 -193 469 -193 c 1
 469 -193 289 -193 289 -193 c 1
 289 -193 289 -193 289 -193 c 1
 266 -193 246 -201 230 -217 c 0
 213 -233 205 -253 205 -276 c 1
 205 -276 205 -276 205 -276 c 1
 205 -300 213 -320 230 -336 c 0
 246 -352 266 -360 289 -360 c 2
 289 -360 522 -360 522 -360 c 1
 522 -360 522 -360 522 -360 c 1
 560 -360 587 -342 602 -305 c 2
 602 -305 1055 719 1055 719 c 1
 1055 719 1055 883 1055 883 c 1
EndSplineSet
Validated: 5
EndChar

StartChar: z
Encoding: 122 122 91
Width: 1237
Flags: W
LayerCount: 2
Fore
SplineSet
1055 881 m 1
 1055 904 1047 925 1031 942 c 0
 1014 959 994 967 971 967 c 2
 971 967 332 967 332 967 c 1
 332 967 332 967 332 967 c 1
 309 967 290 959 273 942 c 0
 256 925 248 905 248 883 c 1
 248 883 248 883 248 883 c 1
 248 859 256 839 273 822 c 0
 289 805 309 797 332 797 c 2
 332 797 836 797 836 797 c 1
 836 797 252 236 252 236 c 1
 252 236 252 236 252 236 c 1
 222 207 207 180 207 156 c 2
 207 156 207 84 207 84 c 1
 207 84 207 84 207 84 c 1
 207 61 215 41 232 25 c 0
 249 8 269 0 293 0 c 2
 293 0 969 0 969 0 c 1
 969 0 969 0 969 0 c 1
 992 0 1012 8 1029 25 c 0
 1045 41 1053 61 1053 84 c 1
 1053 84 1053 84 1053 84 c 1
 1053 107 1045 127 1029 144 c 0
 1012 160 992 168 969 168 c 2
 969 168 430 168 430 168 c 1
 430 168 1026 745 1026 745 c 1
 1026 745 1026 745 1026 745 c 1
 1045 764 1055 786 1055 813 c 2
 1055 813 1055 881 1055 881 c 1
 1055 881 1055 881 1055 881 c 1
EndSplineSet
Validated: 5
EndChar

StartChar: braceleft
Encoding: 123 123 92
Width: 1237
Flags: W
LayerCount: 2
Fore
SplineSet
971 1161 m 1
 971 1161 971 1161 971 1161 c 1
 994 1161 1014 1169 1031 1186 c 0
 1047 1202 1055 1222 1055 1245 c 1
 1055 1245 1055 1245 1055 1245 c 1
 1055 1268 1047 1288 1031 1305 c 0
 1014 1321 994 1329 971 1329 c 2
 971 1329 715 1329 715 1329 c 1
 715 1329 715 1329 715 1329 c 1
 670 1329 630 1312 597 1279 c 0
 564 1245 547 1206 547 1163 c 2
 547 1163 547 840 547 840 c 1
 547 840 547 840 547 840 c 1
 547 816 538 795 521 777 c 0
 504 759 484 750 461 750 c 2
 461 750 293 750 293 750 c 1
 293 750 293 750 293 750 c 1
 270 750 250 742 234 726 c 0
 217 709 209 689 209 666 c 1
 209 666 209 666 209 666 c 1
 209 642 217 622 234 606 c 0
 250 590 270 582 293 582 c 2
 293 582 461 582 461 582 c 1
 461 582 461 582 461 582 c 1
 484 582 504 573 521 555 c 0
 538 536 547 515 547 492 c 2
 547 492 547 170 547 170 c 1
 547 170 547 170 547 170 c 1
 547 126 564 87 597 53 c 0
 630 19 669 2 715 2 c 2
 715 2 971 2 971 2 c 1
 971 2 971 2 971 2 c 1
 994 2 1013 10 1030 27 c 0
 1047 44 1055 63 1055 86 c 1
 1055 86 1055 86 1055 86 c 1
 1055 109 1047 129 1031 146 c 0
 1014 162 994 170 971 170 c 2
 971 170 715 170 715 170 c 1
 715 170 715 498 715 498 c 1
 715 498 715 498 715 498 c 1
 715 569 692 625 647 666 c 1
 647 666 647 666 647 666 c 1
 692 709 715 765 715 834 c 2
 715 834 715 1161 715 1161 c 1
 715 1161 971 1161 971 1161 c 1
EndSplineSet
Validated: 5
EndChar

StartChar: bar
Encoding: 124 124 93
Width: 1237
Flags: W
LayerCount: 2
Fore
SplineSet
705 1247 m 1
 705 1247 705 1247 705 1247 c 1
 705 1270 697 1290 680 1306 c 0
 663 1321 644 1329 621 1329 c 1
 621 1329 621 1329 621 1329 c 1
 597 1329 577 1321 560 1306 c 0
 543 1290 535 1270 535 1247 c 2
 535 1247 535 86 535 86 c 1
 535 86 535 86 535 86 c 1
 535 63 543 43 560 26 c 0
 576 9 595 0 618 0 c 1
 618 0 618 0 618 0 c 1
 642 0 663 9 680 26 c 0
 697 43 705 63 705 86 c 2
 705 86 705 1247 705 1247 c 1
EndSplineSet
Validated: 5
EndChar

StartChar: braceright
Encoding: 125 125 94
Width: 1237
Flags: W
LayerCount: 2
Fore
SplineSet
293 170 m 1
 293 170 293 170 293 170 c 1
 270 170 250 162 234 146 c 0
 217 129 209 109 209 86 c 1
 209 86 209 86 209 86 c 1
 209 63 217 43 234 27 c 0
 250 10 270 2 293 2 c 2
 293 2 549 2 549 2 c 1
 549 2 549 2 549 2 c 1
 594 2 633 19 667 53 c 0
 700 87 717 125 717 168 c 2
 717 168 717 492 717 492 c 1
 717 492 717 492 717 492 c 1
 717 515 725 536 742 554 c 0
 759 571 779 580 803 580 c 2
 803 580 971 580 971 580 c 1
 971 580 971 580 971 580 c 1
 994 580 1014 588 1031 605 c 0
 1047 622 1055 642 1055 666 c 1
 1055 666 1055 666 1055 666 c 1
 1055 689 1047 709 1031 726 c 0
 1014 742 994 750 971 750 c 2
 971 750 803 750 803 750 c 1
 803 750 803 750 803 750 c 1
 780 750 760 759 743 777 c 0
 726 794 717 815 717 838 c 2
 717 838 717 1161 717 1161 c 1
 717 1161 717 1161 717 1161 c 1
 717 1205 700 1244 667 1278 c 0
 634 1312 594 1329 549 1329 c 2
 549 1329 293 1329 293 1329 c 1
 293 1329 293 1329 293 1329 c 1
 270 1329 250 1321 234 1304 c 0
 217 1287 209 1268 209 1245 c 1
 209 1245 209 1245 209 1245 c 1
 209 1222 217 1202 234 1186 c 0
 250 1169 270 1161 293 1161 c 2
 293 1161 549 1161 549 1161 c 1
 549 1161 549 831 549 831 c 1
 549 831 549 831 549 831 c 1
 549 762 571 707 616 666 c 1
 616 666 616 666 616 666 c 1
 571 623 549 567 549 498 c 2
 549 498 549 170 549 170 c 1
 549 170 293 170 293 170 c 1
EndSplineSet
Validated: 5
EndChar

StartChar: asciitilde
Encoding: 126 126 95
Width: 1237
Flags: W
LayerCount: 2
Fore
SplineSet
1061 608 m 1
 1088 625 1102 648 1102 677 c 1
 1102 677 1102 677 1102 677 c 1
 1102 700 1094 721 1077 739 c 0
 1060 757 1040 766 1017 766 c 1
 1017 766 1017 766 1017 766 c 1
 1002 766 986 761 971 752 c 2
 971 752 840 672 840 672 c 1
 840 672 825 672 825 672 c 1
 825 672 563 760 563 760 c 1
 563 760 563 760 563 760 c 1
 555 763 546 764 537 764 c 2
 537 764 483 764 483 764 c 1
 483 764 483 764 483 764 c 1
 466 764 451 760 438 752 c 2
 438 752 287 659 287 659 c 1
 287 659 287 659 287 659 c 1
 260 642 246 619 246 590 c 1
 246 590 246 590 246 590 c 1
 246 567 254 547 271 529 c 0
 288 511 307 502 330 502 c 1
 330 502 330 502 330 502 c 1
 346 502 362 507 377 516 c 2
 377 516 504 594 504 594 c 1
 504 594 528 594 528 594 c 1
 528 594 784 508 784 508 c 1
 784 508 784 508 784 508 c 1
 797 504 806 502 811 502 c 2
 811 502 864 502 864 502 c 1
 864 502 864 502 864 502 c 1
 875 502 890 507 909 516 c 2
 909 516 1061 608 1061 608 c 1
 1061 608 1061 608 1061 608 c 1
EndSplineSet
Validated: 5
EndChar

StartChar: exclamdown
Encoding: 161 161 97
Width: 1237
Flags: W
LayerCount: 2
Fore
SplineSet
752 881 m 1
 752 881 752 881 752 881 c 1
 752 904 744 924 728 941 c 0
 711 957 691 965 668 965 c 2
 668 965 584 965 584 965 c 1
 584 965 584 965 584 965 c 1
 561 965 541 957 525 941 c 0
 508 924 500 904 500 881 c 2
 500 881 500 809 500 809 c 1
 500 809 500 809 500 809 c 1
 500 788 508 768 525 750 c 0
 541 732 561 723 586 723 c 2
 586 723 666 723 666 723 c 1
 666 723 666 723 666 723 c 1
 689 723 710 731 727 748 c 0
 744 765 752 784 752 807 c 2
 752 807 752 881 752 881 c 1
713 375 m 1
 713 375 713 375 713 375 c 1
 712 397 703 417 687 434 c 0
 671 451 652 459 629 459 c 1
 629 459 629 459 629 459 c 1
 605 459 585 451 570 436 c 0
 554 420 545 400 543 375 c 2
 543 375 502 -279 502 -279 c 1
 502 -279 502 -279 502 -279 c 1
 501 -300 508 -319 525 -336 c 0
 542 -353 562 -362 586 -362 c 2
 586 -362 670 -362 670 -362 c 1
 670 -362 670 -362 670 -362 c 1
 693 -362 714 -353 731 -335 c 0
 748 -318 755 -298 754 -276 c 2
 754 -276 713 375 713 375 c 1
EndSplineSet
Validated: 5
EndChar

StartChar: cent
Encoding: 162 162 98
Width: 1237
Flags: W
LayerCount: 2
Fore
SplineSet
717 1171 m 1
 717 1171 717 1171 717 1171 c 1
 717 1194 709 1214 692 1230 c 0
 675 1245 656 1253 633 1253 c 1
 633 1253 633 1253 633 1253 c 1
 609 1253 589 1245 572 1230 c 0
 555 1214 547 1194 547 1171 c 2
 547 1171 547 958 547 958 c 1
 547 958 547 958 547 958 c 1
 511 951 477 934 444 907 c 2
 444 907 297 780 297 780 c 1
 297 780 297 780 297 780 c 1
 236 727 206 665 209 594 c 2
 209 594 209 375 209 375 c 1
 209 375 209 375 209 375 c 1
 209 301 235 242 287 199 c 2
 287 199 450 57 450 57 c 1
 450 57 450 57 450 57 c 1
 477 34 509 18 547 8 c 1
 547 8 547 -203 547 -203 c 1
 547 -203 547 -203 547 -203 c 1
 547 -226 555 -246 572 -263 c 0
 588 -280 608 -289 631 -289 c 1
 631 -289 631 -289 631 -289 c 1
 654 -289 675 -280 692 -263 c 0
 709 -246 717 -226 717 -203 c 2
 717 -203 717 0 717 0 c 1
 717 0 971 0 971 0 c 1
 971 0 971 0 971 0 c 1
 994 0 1014 8 1031 25 c 0
 1047 41 1055 61 1055 84 c 1
 1055 84 1055 84 1055 84 c 1
 1055 107 1047 127 1030 144 c 0
 1013 160 994 168 971 168 c 2
 971 168 627 168 627 168 c 1
 627 168 627 168 627 168 c 1
 596 168 572 176 553 193 c 2
 553 193 405 319 405 319 c 1
 405 319 405 319 405 319 c 1
 388 334 379 353 379 375 c 2
 379 375 379 580 379 580 c 1
 379 580 379 580 379 580 c 1
 379 611 390 636 412 655 c 2
 412 655 547 770 547 770 c 1
 547 770 547 770 547 770 c 1
 568 788 589 797 612 797 c 2
 612 797 973 797 973 797 c 1
 973 797 973 797 973 797 c 1
 996 797 1016 805 1033 821 c 0
 1049 837 1057 857 1057 881 c 1
 1057 881 1057 881 1057 881 c 1
 1057 904 1049 924 1033 941 c 0
 1016 957 996 965 973 965 c 2
 973 965 717 965 717 965 c 1
 717 965 717 1171 717 1171 c 1
EndSplineSet
Validated: 37
EndChar

StartChar: sterling
Encoding: 163 163 99
Width: 1237
Flags: W
LayerCount: 2
Fore
SplineSet
963 2 m 1
 986 2 1007 10 1024 27 c 0
 1041 44 1049 63 1049 86 c 1
 1049 86 1049 86 1049 86 c 1
 1049 109 1041 129 1024 146 c 0
 1007 162 986 170 963 170 c 2
 963 170 567 170 567 170 c 1
 567 170 688 584 688 584 c 1
 688 584 965 584 965 584 c 1
 965 584 965 584 965 584 c 1
 987 584 1007 592 1024 609 c 0
 1041 626 1049 645 1049 668 c 1
 1049 668 1049 668 1049 668 c 1
 1049 691 1041 711 1024 728 c 0
 1007 744 986 752 963 752 c 2
 963 752 737 752 737 752 c 1
 737 752 838 1090 838 1090 c 1
 838 1090 838 1090 838 1090 c 1
 852 1137 881 1161 926 1161 c 2
 926 1161 969 1161 969 1161 c 1
 969 1161 969 1161 969 1161 c 1
 992 1161 1012 1170 1029 1187 c 0
 1045 1204 1053 1224 1053 1247 c 1
 1053 1247 1053 1247 1053 1247 c 1
 1053 1303 1017 1331 944 1331 c 1
 944 1331 944 1331 944 1331 c 1
 804 1331 714 1264 674 1130 c 2
 674 1130 561 754 561 754 c 1
 561 754 285 754 285 754 c 1
 285 754 285 754 285 754 c 1
 262 754 242 746 226 729 c 0
 209 712 201 693 201 670 c 1
 201 670 201 670 201 670 c 1
 201 646 209 626 226 609 c 0
 242 592 262 584 285 584 c 2
 285 584 512 584 512 584 c 1
 512 584 389 170 389 170 c 1
 389 170 283 170 283 170 c 1
 283 170 283 170 283 170 c 1
 259 170 239 162 223 146 c 0
 207 129 199 109 199 86 c 1
 199 86 199 86 199 86 c 1
 199 63 207 44 224 27 c 0
 241 10 260 2 283 2 c 2
 283 2 963 2 963 2 c 1
 963 2 963 2 963 2 c 1
EndSplineSet
Validated: 5
EndChar

StartChar: currency
Encoding: 164 164 100
Width: 1237
Flags: W
LayerCount: 2
Fore
SplineSet
992 365 m 1
 1022 408 1037 462 1037 528 c 2
 1037 528 1037 641 1037 641 c 1
 1037 641 1037 641 1037 641 c 1
 1037 708 1022 762 992 803 c 1
 992 803 1082 893 1082 893 c 1
 1082 893 1082 893 1082 893 c 1
 1098 910 1106 929 1106 952 c 1
 1106 952 1106 952 1106 952 c 1
 1106 975 1098 995 1082 1012 c 0
 1065 1028 1045 1036 1022 1036 c 1
 1022 1036 1022 1036 1022 1036 c 1
 999 1036 980 1028 963 1012 c 2
 963 1012 869 918 869 918 c 1
 869 918 869 918 869 918 c 1
 824 949 772 965 711 965 c 2
 711 965 596 965 596 965 c 1
 596 965 596 965 596 965 c 1
 535 965 483 949 439 918 c 1
 439 918 344 1012 344 1012 c 1
 344 1012 344 1012 344 1012 c 1
 328 1028 308 1036 285 1036 c 1
 285 1036 285 1036 285 1036 c 1
 262 1036 242 1028 226 1012 c 0
 209 995 201 975 201 952 c 1
 201 952 201 952 201 952 c 1
 201 929 209 910 226 893 c 2
 226 893 316 803 316 803 c 1
 316 803 316 803 316 803 c 1
 286 762 271 708 271 641 c 2
 271 641 271 528 271 528 c 1
 271 528 271 528 271 528 c 1
 271 462 286 408 316 365 c 1
 316 365 226 274 226 274 c 1
 226 274 226 274 226 274 c 1
 209 258 201 238 201 215 c 1
 201 215 201 215 201 215 c 1
 201 192 209 172 226 156 c 0
 242 139 262 131 285 131 c 1
 285 131 285 131 285 131 c 1
 308 131 328 139 344 156 c 2
 344 156 441 250 441 250 c 1
 441 250 441 250 441 250 c 1
 486 220 538 205 596 205 c 2
 596 205 711 205 711 205 c 1
 711 205 711 205 711 205 c 1
 772 205 824 221 867 252 c 1
 867 252 963 156 963 156 c 1
 963 156 963 156 963 156 c 1
 980 139 999 131 1022 131 c 1
 1022 131 1022 131 1022 131 c 1
 1045 131 1065 139 1082 156 c 0
 1098 172 1106 192 1106 215 c 1
 1106 215 1106 215 1106 215 c 1
 1106 238 1098 258 1082 274 c 2
 1082 274 992 365 992 365 c 1
 992 365 992 365 992 365 c 1
867 549 m 1
 867 501 857 468 836 449 c 2
 836 449 779 399 779 399 c 1
 779 399 779 399 779 399 c 1
 758 382 729 373 691 373 c 2
 691 373 617 373 617 373 c 1
 617 373 617 373 617 373 c 1
 579 373 550 382 529 399 c 2
 529 399 471 449 471 449 c 1
 471 449 471 449 471 449 c 1
 451 466 441 500 441 549 c 2
 441 549 441 621 441 621 c 1
 441 621 441 621 441 621 c 1
 441 669 451 702 471 721 c 2
 471 721 529 770 529 770 c 1
 529 770 529 770 529 770 c 1
 550 788 579 797 617 797 c 2
 617 797 691 797 691 797 c 1
 691 797 691 797 691 797 c 1
 730 797 760 788 779 770 c 2
 779 770 836 721 836 721 c 1
 836 721 836 721 836 721 c 1
 857 704 867 670 867 621 c 2
 867 621 867 549 867 549 c 1
 867 549 867 549 867 549 c 1
EndSplineSet
Validated: 5
EndChar

StartChar: yen
Encoding: 165 165 101
Width: 1237
Flags: W
LayerCount: 2
Fore
SplineSet
713 649 m 1
 713 649 1047 1206 1047 1206 c 1
 1047 1206 1047 1206 1047 1206 c 1
 1052 1216 1055 1227 1055 1240 c 1
 1055 1240 1055 1240 1055 1240 c 1
 1055 1263 1048 1284 1033 1302 c 0
 1018 1320 997 1329 970 1329 c 1
 970 1329 970 1329 970 1329 c 1
 937 1329 914 1316 899 1290 c 2
 899 1290 631 838 631 838 c 1
 631 838 360 1296 360 1296 c 1
 360 1296 360 1296 360 1296 c 1
 346 1320 323 1332 290 1332 c 1
 290 1332 290 1332 290 1332 c 1
 267 1332 247 1324 230 1307 c 0
 213 1290 205 1272 205 1251 c 1
 205 1251 205 1251 205 1251 c 1
 205 1233 211 1213 223 1192 c 2
 223 1192 545 645 545 645 c 1
 545 645 545 606 545 606 c 1
 545 606 287 606 287 606 c 1
 287 606 287 606 287 606 c 1
 264 606 245 598 228 582 c 0
 211 565 203 545 203 522 c 1
 203 522 203 522 203 522 c 1
 203 499 211 479 228 462 c 0
 245 445 264 436 287 436 c 2
 287 436 545 436 545 436 c 1
 545 436 545 88 545 88 c 1
 545 88 545 88 545 88 c 1
 545 65 553 45 570 29 c 0
 586 12 606 4 629 4 c 1
 629 4 629 4 629 4 c 1
 652 4 672 12 689 29 c 0
 705 45 713 65 713 88 c 2
 713 88 713 436 713 436 c 1
 713 436 975 436 975 436 c 1
 975 436 975 436 975 436 c 1
 998 436 1019 445 1036 462 c 0
 1053 479 1061 499 1061 522 c 1
 1061 522 1061 522 1061 522 c 1
 1061 545 1053 564 1036 581 c 0
 1019 598 998 606 975 606 c 2
 975 606 713 606 713 606 c 1
 713 606 713 649 713 649 c 1
EndSplineSet
Validated: 5
EndChar

StartChar: brokenbar
Encoding: 166 166 102
Width: 1237
Flags: W
LayerCount: 2
Fore
SplineSet
705 1247 m 1
 705 1247 705 1247 705 1247 c 1
 705 1270 697 1290 680 1306 c 0
 663 1321 644 1329 621 1329 c 1
 621 1329 621 1329 621 1329 c 1
 597 1329 577 1321 560 1306 c 0
 543 1290 535 1270 535 1247 c 2
 535 1247 535 870 535 870 c 1
 535 870 535 870 535 870 c 1
 535 847 543 827 560 810 c 0
 576 793 595 784 618 784 c 1
 618 784 618 784 618 784 c 1
 642 784 663 793 680 810 c 0
 697 827 705 847 705 870 c 2
 705 870 705 1247 705 1247 c 1
705 463 m 1
 705 463 705 463 705 463 c 1
 705 486 697 505 680 521 c 0
 663 537 644 545 621 545 c 1
 621 545 621 545 621 545 c 1
 597 545 577 537 560 521 c 0
 543 505 535 486 535 463 c 2
 535 463 535 86 535 86 c 1
 535 86 535 86 535 86 c 1
 535 63 543 43 560 26 c 0
 576 9 595 0 618 0 c 1
 618 0 618 0 618 0 c 1
 642 0 663 9 680 26 c 0
 697 43 705 63 705 86 c 2
 705 86 705 463 705 463 c 1
EndSplineSet
Validated: 5
EndChar

StartChar: section
Encoding: 167 167 103
Width: 1237
Flags: W
LayerCount: 2
Fore
SplineSet
397 846 m 1
 397 846 397 846 397 846 c 1
 344 846 300 827 263 790 c 0
 226 753 207 708 207 657 c 1
 207 657 207 657 207 657 c 1
 207 616 225 573 260 528 c 2
 260 528 862 -143 862 -143 c 1
 862 -143 862 -143 862 -143 c 1
 870 -152 874 -161 874 -170 c 1
 874 -170 874 -170 874 -170 c 1
 874 -183 865 -190 848 -190 c 2
 848 -190 440 -190 440 -190 c 1
 440 -190 440 -190 440 -190 c 1
 421 -190 406 -184 394 -172 c 0
 381 -160 375 -145 375 -127 c 1
 375 -127 375 -127 375 -127 c 1
 375 -105 367 -86 351 -69 c 0
 335 -53 316 -45 293 -45 c 1
 293 -45 293 -45 293 -45 c 1
 234 -45 205 -76 205 -139 c 1
 205 -139 205 -139 205 -139 c 1
 205 -194 227 -245 272 -291 c 0
 316 -337 368 -360 428 -360 c 2
 428 -360 881 -360 881 -360 c 1
 881 -360 881 -360 881 -360 c 1
 926 -360 966 -341 1002 -304 c 0
 1037 -267 1055 -224 1055 -174 c 1
 1055 -174 1055 -174 1055 -174 c 1
 1055 -129 1037 -86 1001 -47 c 2
 1001 -47 850 123 850 123 c 1
 850 123 881 123 881 123 c 1
 881 123 881 123 881 123 c 1
 926 123 966 142 1002 179 c 0
 1037 216 1055 260 1055 309 c 1
 1055 309 1055 309 1055 309 c 1
 1055 354 1037 397 1001 436 c 2
 1001 436 399 1112 399 1112 c 1
 399 1112 399 1112 399 1112 c 1
 391 1121 387 1131 387 1141 c 1
 387 1141 387 1141 387 1141 c 1
 387 1153 397 1159 416 1159 c 2
 416 1159 821 1159 821 1159 c 1
 821 1159 821 1159 821 1159 c 1
 854 1159 876 1141 886 1105 c 0
 895 1069 905 1045 916 1032 c 0
 927 1019 946 1012 975 1012 c 1
 975 1012 975 1012 975 1012 c 1
 996 1012 1015 1020 1032 1037 c 0
 1049 1054 1057 1074 1057 1098 c 1
 1057 1098 1057 1098 1057 1098 c 1
 1057 1162 1033 1217 986 1262 c 0
 938 1307 887 1329 834 1329 c 2
 834 1329 397 1329 397 1329 c 1
 397 1329 397 1329 397 1329 c 1
 344 1329 300 1310 263 1273 c 0
 226 1236 207 1192 207 1141 c 1
 207 1141 207 1141 207 1141 c 1
 207 1099 225 1056 260 1012 c 2
 260 1012 408 846 408 846 c 1
 408 846 397 846 397 846 c 1
399 629 m 1
 399 629 399 629 399 629 c 1
 391 638 387 648 387 657 c 1
 387 657 387 657 387 657 c 1
 387 670 397 676 416 676 c 2
 416 676 561 676 561 676 c 1
 561 676 862 340 862 340 c 1
 862 340 862 340 862 340 c 1
 870 331 874 322 874 313 c 1
 874 313 874 313 874 313 c 1
 874 300 865 293 848 293 c 2
 848 293 698 293 698 293 c 1
 698 293 399 629 399 629 c 1
EndSplineSet
Validated: 5
EndChar

StartChar: dieresis
Encoding: 168 168 104
Width: 1237
Flags: W
LayerCount: 2
Fore
SplineSet
1049 1245 m 1
 1049 1245 1049 1245 1049 1245 c 1
 1049 1269 1041 1289 1024 1306 c 0
 1007 1323 988 1331 965 1331 c 1
 965 1331 965 1331 965 1331 c 1
 942 1331 922 1323 906 1306 c 0
 889 1289 881 1269 881 1245 c 2
 881 1245 881 1102 881 1102 c 1
 881 1102 881 1102 881 1102 c 1
 881 1079 889 1059 905 1043 c 0
 921 1026 941 1018 965 1018 c 1
 965 1018 965 1018 965 1018 c 1
 988 1018 1008 1026 1025 1043 c 0
 1041 1059 1049 1079 1049 1102 c 2
 1049 1102 1049 1245 1049 1245 c 1
371 1245 m 1
 371 1245 371 1245 371 1245 c 1
 371 1268 363 1288 347 1305 c 0
 330 1321 310 1329 287 1329 c 1
 287 1329 287 1329 287 1329 c 1
 264 1329 244 1321 228 1305 c 0
 211 1288 203 1268 203 1245 c 2
 203 1245 203 1102 203 1102 c 1
 203 1102 203 1102 203 1102 c 1
 203 1079 211 1059 228 1043 c 0
 244 1026 264 1018 287 1018 c 1
 287 1018 287 1018 287 1018 c 1
 310 1018 330 1026 347 1043 c 0
 363 1059 371 1079 371 1102 c 2
 371 1102 371 1245 371 1245 c 1
EndSplineSet
Validated: 5
EndChar

StartChar: copyright
Encoding: 169 169 105
Width: 1237
Flags: W
LayerCount: 2
Fore
SplineSet
1067 1026 m 1
 1067 1026 1067 1026 1067 1026 c 1
 1067 1097 1034 1165 968 1231 c 0
 901 1296 825 1329 739 1329 c 2
 739 1329 498 1329 498 1329 c 1
 498 1329 498 1329 498 1329 c 1
 412 1329 336 1296 270 1231 c 0
 203 1165 170 1097 170 1026 c 2
 170 1026 170 303 170 303 c 1
 170 303 170 303 170 303 c 1
 170 232 203 164 270 99 c 0
 336 33 412 0 498 0 c 2
 498 0 739 0 739 0 c 1
 739 0 739 0 739 0 c 1
 825 0 901 33 968 99 c 0
 1034 164 1067 232 1067 303 c 2
 1067 303 1067 1026 1067 1026 c 1
981 307 m 1
 981 258 968 218 943 189 c 0
 917 160 893 135 870 116 c 0
 847 96 802 86 735 86 c 2
 735 86 502 86 502 86 c 1
 502 86 502 86 502 86 c 1
 440 86 399 94 379 109 c 0
 359 124 334 147 303 180 c 0
 272 212 256 254 256 307 c 2
 256 307 256 1022 256 1022 c 1
 256 1022 256 1022 256 1022 c 1
 256 1071 269 1111 295 1140 c 0
 320 1169 344 1194 367 1214 c 0
 390 1233 435 1243 502 1243 c 2
 502 1243 735 1243 735 1243 c 1
 735 1243 735 1243 735 1243 c 1
 797 1243 838 1236 858 1221 c 0
 878 1206 904 1182 935 1150 c 0
 966 1118 981 1075 981 1022 c 2
 981 1022 981 307 981 307 c 1
 981 307 981 307 981 307 c 1
797 924 m 1
 822 924 843 931 858 946 c 0
 873 960 881 977 881 998 c 1
 881 998 881 998 881 998 c 1
 881 1019 873 1037 858 1052 c 0
 843 1066 822 1073 797 1073 c 2
 797 1073 635 1073 635 1073 c 1
 635 1073 635 1073 635 1073 c 1
 602 1073 569 1063 535 1042 c 0
 501 1021 477 996 463 967 c 2
 463 967 367 788 367 788 c 1
 367 788 367 788 367 788 c 1
 349 755 340 715 340 666 c 1
 340 666 340 666 340 666 c 1
 340 635 348 597 365 551 c 1
 365 551 463 365 463 365 c 1
 463 365 463 365 463 365 c 1
 479 334 505 309 541 289 c 0
 576 268 610 258 641 258 c 2
 641 258 795 258 795 258 c 1
 795 258 795 258 795 258 c 1
 820 258 841 265 856 280 c 0
 871 294 879 312 879 333 c 1
 879 333 879 333 879 333 c 1
 879 354 871 371 856 386 c 0
 841 401 820 408 795 408 c 2
 795 408 629 408 629 408 c 1
 629 408 629 408 629 408 c 1
 618 408 607 419 594 442 c 2
 594 442 500 621 500 621 c 1
 500 621 500 621 500 621 c 1
 493 634 489 649 489 666 c 1
 489 666 489 666 489 666 c 1
 489 685 491 698 496 705 c 2
 496 705 594 887 594 887 c 1
 594 887 594 887 594 887 c 1
 607 912 619 924 629 924 c 2
 629 924 797 924 797 924 c 1
 797 924 797 924 797 924 c 1
EndSplineSet
Validated: 5
EndChar

StartChar: ordfeminine
Encoding: 170 170 106
Width: 1237
Flags: W
LayerCount: 2
Fore
SplineSet
457 970 m 1
 387 970 327 945 278 896 c 0
 228 846 203 786 203 716 c 2
 203 716 203 618 203 618 c 1
 203 618 203 618 203 618 c 1
 203 547 228 487 277 438 c 0
 326 389 386 364 457 364 c 2
 457 364 741 364 741 364 c 1
 741 364 883 448 883 448 c 1
 883 448 883 448 883 448 c 1
 883 425 891 405 908 389 c 0
 925 372 945 364 969 364 c 1
 969 364 969 364 969 364 c 1
 992 364 1011 372 1028 389 c 0
 1045 405 1053 425 1053 448 c 2
 1053 448 1032 1077 1032 1077 c 1
 1032 1077 1032 1077 1032 1077 c 1
 1030 1148 1005 1207 956 1256 c 0
 907 1305 847 1329 778 1329 c 2
 778 1329 459 1329 459 1329 c 1
 459 1329 459 1329 459 1329 c 1
 436 1329 416 1321 400 1305 c 0
 383 1288 375 1268 375 1245 c 1
 375 1245 375 1245 375 1245 c 1
 375 1222 383 1203 400 1186 c 0
 417 1169 436 1161 459 1161 c 2
 459 1161 778 1161 778 1161 c 1
 778 1161 778 1161 778 1161 c 1
 801 1161 821 1153 838 1137 c 0
 854 1120 862 1100 862 1077 c 2
 862 1077 864 958 864 958 c 1
 864 958 864 958 864 958 c 1
 830 966 804 970 786 970 c 2
 786 970 457 970 457 970 c 1
 457 970 457 970 457 970 c 1
694 536 m 1
 694 536 457 536 457 536 c 1
 457 536 457 536 457 536 c 1
 434 536 415 544 398 561 c 0
 381 578 373 597 373 620 c 2
 373 620 373 714 373 714 c 1
 373 714 373 714 373 714 c 1
 373 737 381 757 398 774 c 0
 414 790 434 798 457 798 c 2
 457 798 788 798 788 798 c 1
 788 798 788 798 788 798 c 1
 811 798 831 790 847 774 c 0
 863 758 871 738 872 714 c 2
 872 714 877 643 877 643 c 1
 877 643 694 536 694 536 c 1
EndSplineSet
Validated: 5
EndChar

StartChar: guillemotleft
Encoding: 171 171 107
Width: 1237
Flags: W
LayerCount: 2
Fore
SplineSet
895 575 m 1
 895 575 1020 846 1020 846 c 1
 1020 846 1020 846 1020 846 c 1
 1025 858 1028 870 1028 882 c 1
 1028 882 1028 882 1028 882 c 1
 1028 906 1019 926 1002 942 c 0
 984 957 964 965 942 965 c 1
 942 965 942 965 942 965 c 1
 907 965 882 949 866 918 c 2
 866 918 725 612 725 612 c 1
 725 612 725 612 725 612 c 1
 720 601 717 588 717 575 c 1
 717 575 717 575 717 575 c 1
 717 564 720 552 725 539 c 2
 725 539 866 233 866 233 c 1
 866 233 866 233 866 233 c 1
 881 202 906 186 942 186 c 1
 942 186 942 186 942 186 c 1
 964 186 984 194 1002 210 c 0
 1019 225 1028 245 1028 269 c 1
 1028 269 1028 269 1028 269 c 1
 1028 281 1025 293 1020 305 c 2
 1020 305 895 575 895 575 c 1
385 575 m 1
 385 575 510 846 510 846 c 1
 510 846 510 846 510 846 c 1
 515 858 518 870 518 882 c 1
 518 882 518 882 518 882 c 1
 518 906 509 926 492 942 c 0
 474 957 454 965 432 965 c 1
 432 965 432 965 432 965 c 1
 397 965 372 949 356 918 c 2
 356 918 215 612 215 612 c 1
 215 612 215 612 215 612 c 1
 210 601 207 588 207 575 c 1
 207 575 207 575 207 575 c 1
 207 564 210 552 215 539 c 2
 215 539 356 233 356 233 c 1
 356 233 356 233 356 233 c 1
 371 202 396 186 432 186 c 1
 432 186 432 186 432 186 c 1
 454 186 474 194 492 210 c 0
 509 225 518 245 518 269 c 1
 518 269 518 269 518 269 c 1
 518 281 515 293 510 305 c 2
 510 305 385 575 385 575 c 1
EndSplineSet
Validated: 5
EndChar

StartChar: logicalnot
Encoding: 172 172 108
Width: 1237
Flags: W
LayerCount: 2
Fore
SplineSet
1047 668 m 1
 1047 668 1047 668 1047 668 c 1
 1047 691 1039 711 1022 728 c 0
 1005 744 984 752 961 752 c 2
 961 752 276 752 276 752 c 1
 276 752 276 752 276 752 c 1
 253 752 233 744 217 728 c 0
 201 711 193 691 193 668 c 1
 193 668 193 668 193 668 c 1
 193 644 201 624 217 608 c 0
 233 592 253 584 276 584 c 2
 276 584 877 584 877 584 c 1
 877 584 877 328 877 328 c 1
 877 328 877 328 877 328 c 1
 877 305 885 285 902 269 c 0
 919 252 939 244 963 244 c 1
 963 244 963 244 963 244 c 1
 985 244 1005 252 1022 269 c 0
 1039 286 1047 305 1047 328 c 2
 1047 328 1047 668 1047 668 c 1
EndSplineSet
Validated: 5
EndChar

StartChar: uni00AD
Encoding: 173 173 109
Width: 1237
Flags: W
LayerCount: 2
Fore
SplineSet
1053 670 m 1
 1053 695 1044 715 1027 731 c 0
 1010 746 990 754 969 754 c 2
 969 754 291 754 291 754 c 1
 291 754 291 754 291 754 c 1
 268 754 248 746 232 730 c 0
 215 713 207 693 207 670 c 2
 207 670 207 596 207 596 c 1
 207 596 207 596 207 596 c 1
 207 573 215 553 232 536 c 0
 248 519 268 510 291 510 c 2
 291 510 969 510 969 510 c 1
 969 510 969 510 969 510 c 1
 992 510 1012 519 1029 536 c 0
 1045 553 1053 573 1053 596 c 2
 1053 596 1053 670 1053 670 c 1
 1053 670 1053 670 1053 670 c 1
EndSplineSet
Validated: 5
EndChar

StartChar: registered
Encoding: 174 174 110
Width: 1237
Flags: W
LayerCount: 2
Fore
SplineSet
1067 1026 m 1
 1067 1026 1067 1026 1067 1026 c 1
 1067 1097 1034 1165 968 1231 c 0
 901 1296 825 1329 739 1329 c 2
 739 1329 498 1329 498 1329 c 1
 498 1329 498 1329 498 1329 c 1
 412 1329 336 1296 270 1231 c 0
 203 1165 170 1097 170 1026 c 2
 170 1026 170 303 170 303 c 1
 170 303 170 303 170 303 c 1
 170 232 203 164 270 99 c 0
 336 33 412 0 498 0 c 2
 498 0 739 0 739 0 c 1
 739 0 739 0 739 0 c 1
 825 0 901 33 968 99 c 0
 1034 164 1067 232 1067 303 c 2
 1067 303 1067 1026 1067 1026 c 1
981 307 m 1
 981 258 968 218 943 189 c 0
 917 160 893 135 870 116 c 0
 847 96 802 86 735 86 c 2
 735 86 502 86 502 86 c 1
 502 86 502 86 502 86 c 1
 440 86 399 94 379 109 c 0
 359 124 334 147 303 180 c 0
 272 212 256 254 256 307 c 2
 256 307 256 1022 256 1022 c 1
 256 1022 256 1022 256 1022 c 1
 256 1071 269 1111 295 1140 c 0
 320 1169 344 1194 367 1214 c 0
 390 1233 435 1243 502 1243 c 2
 502 1243 735 1243 735 1243 c 1
 735 1243 735 1243 735 1243 c 1
 797 1243 838 1236 858 1221 c 0
 878 1206 904 1182 935 1150 c 0
 966 1118 981 1075 981 1022 c 2
 981 1022 981 307 981 307 c 1
 981 307 981 307 981 307 c 1
367 330 m 1
 367 330 367 330 367 330 c 1
 367 309 374 291 388 277 c 0
 401 263 419 256 440 256 c 1
 440 256 440 256 440 256 c 1
 462 256 480 263 495 277 c 0
 509 291 516 309 516 330 c 2
 516 330 516 567 516 567 c 1
 516 567 553 567 553 567 c 1
 553 567 743 301 743 301 c 1
 743 301 743 301 743 301 c 1
 765 271 789 256 815 256 c 1
 815 256 815 256 815 256 c 1
 834 256 851 263 864 276 c 0
 877 289 883 305 883 324 c 1
 883 324 883 324 883 324 c 1
 883 348 875 370 860 391 c 2
 860 391 725 578 725 578 c 1
 725 578 725 578 725 578 c 1
 845 607 905 687 905 819 c 1
 905 819 905 819 905 819 c 1
 905 888 880 948 831 998 c 0
 782 1048 722 1073 653 1073 c 2
 653 1073 367 1073 367 1073 c 1
 367 1073 367 330 367 330 c 1
514 926 m 1
 514 926 653 926 653 926 c 1
 653 926 653 926 653 926 c 1
 684 926 709 916 729 897 c 0
 748 877 758 851 758 819 c 1
 758 819 758 819 758 819 c 1
 758 750 723 715 653 715 c 2
 653 715 514 715 514 715 c 1
 514 715 514 926 514 926 c 1
EndSplineSet
Validated: 5
EndChar

StartChar: macron
Encoding: 175 175 111
Width: 1237
Flags: W
LayerCount: 2
Fore
SplineSet
1247 1585 m 1
 1247 1585 -10 1585 -10 1585 c 1
 -10 1585 -10 1415 -10 1415 c 1
 -10 1415 1247 1415 1247 1415 c 1
 1247 1415 1247 1585 1247 1585 c 1
EndSplineSet
Validated: 9
EndChar

StartChar: degree
Encoding: 176 176 112
Width: 1237
Flags: W
LayerCount: 2
Fore
SplineSet
1012 1024 m 1
 1012 1024 1012 1024 1012 1024 c 1
 1012 1101 977 1171 907 1234 c 0
 836 1297 763 1329 686 1329 c 2
 686 1329 571 1329 571 1329 c 1
 571 1329 571 1329 571 1329 c 1
 493 1329 419 1297 350 1233 c 0
 281 1169 246 1099 246 1024 c 2
 246 1024 246 874 246 874 c 1
 246 874 246 874 246 874 c 1
 246 801 281 732 351 667 c 0
 421 602 494 569 571 569 c 2
 571 569 686 569 686 569 c 1
 686 569 686 569 686 569 c 1
 761 569 835 601 906 666 c 0
 977 730 1012 799 1012 874 c 2
 1012 874 1012 1024 1012 1024 c 1
844 881 m 1
 844 852 834 829 813 813 c 2
 813 813 762 768 762 768 c 1
 762 768 762 768 762 768 c 1
 739 747 713 737 684 737 c 2
 684 737 571 737 571 737 c 1
 571 737 571 737 571 737 c 1
 546 737 526 743 512 756 c 2
 512 756 449 809 449 809 c 1
 449 809 449 809 449 809 c 1
 427 827 416 852 416 883 c 2
 416 883 416 1018 416 1018 c 1
 416 1018 416 1018 416 1018 c 1
 416 1046 426 1068 446 1085 c 2
 446 1085 504 1135 504 1135 c 1
 504 1135 504 1135 504 1135 c 1
 525 1152 554 1161 592 1161 c 2
 592 1161 684 1161 684 1161 c 1
 684 1161 684 1161 684 1161 c 1
 711 1161 734 1153 754 1137 c 2
 754 1137 813 1090 813 1090 c 1
 813 1090 813 1090 813 1090 c 1
 834 1073 844 1049 844 1016 c 2
 844 1016 844 881 844 881 c 1
 844 881 844 881 844 881 c 1
EndSplineSet
Validated: 5
EndChar

StartChar: plusminus
Encoding: 177 177 113
Width: 1237
Flags: W
LayerCount: 2
Fore
SplineSet
702 1010 m 1
 702 1010 702 1010 702 1010 c 1
 702 1033 694 1052 679 1068 c 0
 663 1084 644 1092 621 1092 c 1
 621 1092 621 1092 621 1092 c 1
 597 1092 577 1084 560 1068 c 0
 543 1052 535 1033 535 1010 c 2
 535 1010 535 752 535 752 c 1
 535 752 276 752 276 752 c 1
 276 752 276 752 276 752 c 1
 253 752 234 744 218 727 c 0
 201 710 193 691 193 668 c 1
 193 668 193 668 193 668 c 1
 193 645 201 625 218 609 c 0
 234 592 253 584 276 584 c 2
 276 584 535 584 535 584 c 1
 535 584 535 326 535 326 c 1
 535 326 535 326 535 326 c 1
 535 302 543 282 560 265 c 0
 576 248 595 240 618 240 c 1
 618 240 618 240 618 240 c 1
 642 240 663 248 680 265 c 0
 697 282 705 302 705 326 c 2
 705 326 705 584 705 584 c 1
 705 584 961 584 961 584 c 1
 961 584 961 584 961 584 c 1
 984 584 1005 592 1022 609 c 0
 1039 625 1047 645 1047 668 c 1
 1047 668 1047 668 1047 668 c 1
 1047 691 1039 711 1022 728 c 0
 1005 744 984 752 961 752 c 2
 961 752 702 752 702 752 c 1
 702 752 702 1010 702 1010 c 1
276 168 m 1
 276 168 276 168 276 168 c 1
 253 168 234 160 218 144 c 0
 201 127 193 107 193 84 c 1
 193 84 193 84 193 84 c 1
 193 61 201 41 218 25 c 0
 234 8 253 0 276 0 c 2
 276 0 961 0 961 0 c 1
 961 0 961 0 961 0 c 1
 984 0 1005 8 1022 25 c 0
 1039 41 1047 61 1047 84 c 1
 1047 84 1047 84 1047 84 c 1
 1047 107 1039 127 1022 144 c 0
 1005 160 984 168 961 168 c 2
 961 168 276 168 276 168 c 1
EndSplineSet
Validated: 5
EndChar

StartChar: uni00B2
Encoding: 178 178 114
Width: 1237
Flags: W
LayerCount: 2
Fore
SplineSet
893 1190 m 1
 893 1190 893 1190 893 1190 c 1
 893 1225 879 1257 850 1286 c 0
 821 1315 789 1329 754 1329 c 2
 754 1329 479 1329 479 1329 c 1
 479 1329 479 1329 479 1329 c 1
 457 1329 439 1322 426 1308 c 0
 413 1293 406 1276 406 1255 c 1
 406 1255 406 1255 406 1255 c 1
 406 1234 413 1217 426 1203 c 0
 439 1189 457 1182 479 1182 c 2
 479 1182 745 1182 745 1182 c 1
 745 1182 745 1085 745 1085 c 1
 745 1085 535 1085 535 1085 c 1
 535 1085 535 1085 535 1085 c 1
 500 1085 468 1071 439 1042 c 0
 410 1013 395 981 395 946 c 2
 395 946 395 768 395 768 c 1
 395 768 395 768 395 768 c 1
 395 719 420 694 469 694 c 2
 469 694 797 694 797 694 c 1
 797 694 797 694 797 694 c 1
 819 694 837 701 850 716 c 0
 863 730 870 747 870 768 c 1
 870 768 870 768 870 768 c 1
 870 789 863 806 850 821 c 0
 837 835 819 842 797 842 c 2
 797 842 543 842 543 842 c 1
 543 842 543 938 543 938 c 1
 543 938 754 938 754 938 c 1
 754 938 754 938 754 938 c 1
 789 938 821 953 850 982 c 0
 879 1011 893 1042 893 1077 c 2
 893 1077 893 1190 893 1190 c 1
EndSplineSet
Validated: 5
EndChar

StartChar: uni00B3
Encoding: 179 179 115
Width: 1237
Flags: W
LayerCount: 2
Fore
SplineSet
966 946 m 1
 966 946 966 946 966 946 c 1
 966 971 958 993 941 1012 c 1
 941 1012 941 1012 941 1012 c 1
 958 1031 966 1052 966 1077 c 2
 966 1077 966 1190 966 1190 c 1
 966 1190 966 1190 966 1190 c 1
 966 1225 952 1257 923 1286 c 0
 894 1315 862 1329 827 1329 c 2
 827 1329 552 1329 552 1329 c 1
 552 1329 552 1329 552 1329 c 1
 530 1329 512 1322 499 1308 c 0
 486 1293 479 1276 479 1255 c 1
 479 1255 479 1255 479 1255 c 1
 479 1234 486 1217 499 1203 c 0
 512 1189 530 1182 552 1182 c 2
 552 1182 818 1182 818 1182 c 1
 818 1182 818 1085 818 1085 c 1
 818 1085 704 1085 704 1085 c 1
 704 1085 704 1085 704 1085 c 1
 681 1085 663 1078 650 1064 c 0
 637 1050 630 1033 630 1012 c 1
 630 1012 630 1012 630 1012 c 1
 630 991 637 974 650 960 c 0
 663 945 681 938 704 938 c 2
 704 938 818 938 818 938 c 1
 818 938 818 842 818 842 c 1
 818 842 552 842 552 842 c 1
 552 842 552 842 552 842 c 1
 530 842 512 835 499 821 c 0
 486 806 479 789 479 768 c 1
 479 768 479 768 479 768 c 1
 479 747 486 730 499 716 c 0
 512 701 530 694 552 694 c 2
 552 694 827 694 827 694 c 1
 827 694 827 694 827 694 c 1
 862 694 894 709 923 738 c 0
 952 767 966 799 966 834 c 2
 966 834 966 946 966 946 c 1
EndSplineSet
Validated: 5
EndChar

StartChar: acute
Encoding: 180 180 116
Width: 1237
Flags: W
LayerCount: 2
Fore
SplineSet
438 1180 m 1
 438 1180 438 1180 438 1180 c 1
 407 1165 391 1140 391 1104 c 1
 391 1104 391 1104 391 1104 c 1
 391 1082 399 1062 414 1045 c 0
 429 1027 449 1018 473 1018 c 1
 473 1018 473 1018 473 1018 c 1
 486 1018 498 1021 510 1026 c 2
 510 1026 815 1167 815 1167 c 1
 815 1167 815 1167 815 1167 c 1
 846 1182 862 1207 862 1243 c 1
 862 1243 862 1243 862 1243 c 1
 862 1265 854 1285 839 1303 c 0
 824 1320 804 1329 780 1329 c 1
 780 1329 780 1329 780 1329 c 1
 767 1329 755 1326 743 1321 c 2
 743 1321 438 1180 438 1180 c 1
EndSplineSet
Validated: 5
EndChar

StartChar: mu
Encoding: 181 181 117
Width: 1237
Flags: W
LayerCount: 2
Fore
SplineSet
1058 881 m 1
 1058 881 1058 881 1058 881 c 1
 1058 904 1050 925 1034 942 c 0
 1017 959 997 967 974 967 c 1
 974 967 974 967 974 967 c 1
 951 967 931 959 915 942 c 0
 898 925 890 904 890 881 c 2
 890 881 890 350 890 350 c 1
 890 350 607 170 607 170 c 1
 607 170 480 170 480 170 c 1
 480 170 480 170 480 170 c 1
 414 170 380 200 378 260 c 2
 378 260 378 881 378 881 c 1
 378 881 378 881 378 881 c 1
 378 899 370 918 355 937 c 0
 339 956 319 965 294 965 c 1
 294 965 294 965 294 965 c 1
 270 965 250 957 233 940 c 0
 216 923 208 903 210 881 c 2
 210 881 210 -276 210 -276 c 1
 210 -276 210 -276 210 -276 c 1
 210 -294 218 -312 234 -331 c 0
 249 -350 269 -360 294 -360 c 1
 294 -360 294 -360 294 -360 c 1
 317 -360 337 -352 354 -336 c 0
 370 -320 378 -300 378 -276 c 2
 378 -276 378 16 378 16 c 1
 378 16 378 16 378 16 c 1
 409 5 439 0 468 0 c 2
 468 0 570 0 570 0 c 1
 570 0 570 0 570 0 c 1
 629 0 687 18 744 55 c 2
 744 55 890 150 890 150 c 1
 890 150 890 84 890 84 c 1
 890 84 890 84 890 84 c 1
 890 61 898 42 915 25 c 0
 932 8 951 0 974 0 c 1
 974 0 974 0 974 0 c 1
 997 0 1016 8 1033 25 c 0
 1050 42 1058 61 1058 84 c 2
 1058 84 1058 881 1058 881 c 1
EndSplineSet
Validated: 5
EndChar

StartChar: paragraph
Encoding: 182 182 118
Width: 1237
Flags: W
LayerCount: 2
Fore
SplineSet
1034 1329 m 1
 1034 1329 438 1329 438 1329 c 1
 438 1329 438 1329 438 1329 c 1
 369 1329 310 1304 261 1254 c 0
 211 1204 186 1144 186 1075 c 2
 186 1075 186 760 186 760 c 1
 186 760 186 760 186 760 c 1
 186 691 211 631 260 582 c 0
 309 533 369 508 438 508 c 2
 438 508 524 508 524 508 c 1
 524 508 524 84 524 84 c 1
 524 84 524 84 524 84 c 1
 524 61 532 41 549 25 c 0
 565 8 585 0 608 0 c 1
 608 0 608 0 608 0 c 1
 632 0 652 8 669 25 c 0
 686 41 694 61 694 84 c 2
 694 84 694 1159 694 1159 c 1
 694 1159 864 1159 864 1159 c 1
 864 1159 864 84 864 84 c 1
 864 84 864 84 864 84 c 1
 864 61 872 41 889 25 c 0
 905 8 925 0 948 0 c 1
 948 0 948 0 948 0 c 1
 972 0 992 8 1009 25 c 0
 1026 41 1034 61 1034 84 c 2
 1034 84 1034 1329 1034 1329 c 1
EndSplineSet
Validated: 5
EndChar

StartChar: cedilla
Encoding: 184 184 119
Width: 1237
Flags: W
LayerCount: 2
Fore
SplineSet
883 0 m 1
 883 0 715 0 715 0 c 1
 715 0 715 -190 715 -190 c 1
 715 -190 459 -190 459 -190 c 1
 459 -190 459 -190 459 -190 c 1
 436 -190 416 -198 400 -215 c 0
 383 -232 375 -253 375 -276 c 1
 375 -276 375 -276 375 -276 c 1
 375 -299 383 -318 400 -335 c 0
 417 -352 436 -360 459 -360 c 2
 459 -360 799 -360 799 -360 c 1
 799 -360 799 -360 799 -360 c 1
 822 -360 842 -352 859 -335 c 0
 875 -318 883 -298 883 -274 c 2
 883 -274 883 0 883 0 c 1
EndSplineSet
Validated: 5
EndChar

StartChar: uni00B9
Encoding: 185 185 120
Width: 1237
Flags: W
LayerCount: 2
Fore
SplineSet
879 694 m 1
 901 694 919 701 933 716 c 0
 946 730 953 747 953 768 c 1
 953 768 953 768 953 768 c 1
 953 789 946 806 933 821 c 0
 919 835 901 842 879 842 c 2
 879 842 789 842 789 842 c 1
 789 842 789 1255 789 1255 c 1
 789 1255 789 1255 789 1255 c 1
 789 1304 764 1329 715 1329 c 2
 715 1329 551 1329 551 1329 c 1
 551 1329 551 1329 551 1329 c 1
 529 1329 511 1322 498 1308 c 0
 484 1293 477 1276 477 1255 c 1
 477 1255 477 1255 477 1255 c 1
 477 1234 484 1217 498 1203 c 0
 511 1189 529 1182 551 1182 c 2
 551 1182 641 1182 641 1182 c 1
 641 1182 641 842 641 842 c 1
 641 842 551 842 551 842 c 1
 551 842 551 842 551 842 c 1
 529 842 511 835 498 821 c 0
 484 806 477 789 477 768 c 1
 477 768 477 768 477 768 c 1
 477 747 484 730 498 716 c 0
 511 701 529 694 551 694 c 2
 551 694 879 694 879 694 c 1
 879 694 879 694 879 694 c 1
EndSplineSet
Validated: 5
EndChar

StartChar: ordmasculine
Encoding: 186 186 121
Width: 1237
Flags: W
LayerCount: 2
Fore
SplineSet
1053 1026 m 1
 1053 1103 1018 1173 947 1237 c 0
 876 1301 802 1332 727 1331 c 2
 727 1331 530 1331 530 1331 c 1
 530 1331 530 1331 530 1331 c 1
 450 1331 376 1299 308 1234 c 0
 239 1169 205 1099 205 1026 c 2
 205 1026 205 671 205 671 c 1
 205 671 205 671 205 671 c 1
 205 598 240 529 310 464 c 0
 380 399 453 366 530 366 c 2
 530 366 727 366 727 366 c 1
 727 366 727 366 727 366 c 1
 802 366 876 398 947 462 c 0
 1018 526 1053 596 1053 671 c 2
 1053 671 1053 1026 1053 1026 c 1
 1053 1026 1053 1026 1053 1026 c 1
375 1019 m 1
 375 1047 385 1070 406 1087 c 2
 406 1087 463 1136 463 1136 c 1
 463 1136 463 1136 463 1136 c 1
 484 1154 513 1163 551 1163 c 2
 551 1163 725 1163 725 1163 c 1
 725 1163 725 1163 725 1163 c 1
 752 1163 775 1155 795 1138 c 2
 795 1138 854 1091 854 1091 c 1
 854 1091 854 1091 854 1091 c 1
 875 1075 885 1050 885 1017 c 2
 885 1017 885 677 885 677 c 1
 885 677 885 677 885 677 c 1
 885 648 875 626 854 610 c 2
 854 610 803 565 803 565 c 1
 803 565 803 565 803 565 c 1
 780 544 754 534 725 534 c 2
 725 534 530 534 530 534 c 1
 530 534 530 534 530 534 c 1
 505 534 485 540 471 552 c 2
 471 552 408 606 408 606 c 1
 408 606 408 606 408 606 c 1
 386 624 375 648 375 679 c 2
 375 679 375 1019 375 1019 c 1
 375 1019 375 1019 375 1019 c 1
EndSplineSet
Validated: 37
EndChar

StartChar: guillemotright
Encoding: 187 187 122
Width: 1237
Flags: W
LayerCount: 2
Fore
SplineSet
735 305 m 1
 735 305 735 305 735 305 c 1
 730 293 727 281 727 269 c 1
 727 269 727 269 727 269 c 1
 727 245 736 225 754 210 c 0
 771 194 791 186 813 186 c 1
 813 186 813 186 813 186 c 1
 848 186 873 202 889 233 c 2
 889 233 1030 539 1030 539 c 1
 1030 539 1030 539 1030 539 c 1
 1035 550 1038 562 1038 575 c 1
 1038 575 1038 575 1038 575 c 1
 1038 586 1035 599 1030 612 c 2
 1030 612 889 918 889 918 c 1
 889 918 889 918 889 918 c 1
 874 949 849 965 813 965 c 1
 813 965 813 965 813 965 c 1
 791 965 771 957 754 942 c 0
 736 926 727 906 727 882 c 1
 727 882 727 882 727 882 c 1
 727 869 730 857 735 846 c 2
 735 846 860 575 860 575 c 1
 860 575 735 305 735 305 c 1
225 305 m 1
 225 305 225 305 225 305 c 1
 220 293 217 281 217 269 c 1
 217 269 217 269 217 269 c 1
 217 245 226 225 244 210 c 0
 261 194 281 186 303 186 c 1
 303 186 303 186 303 186 c 1
 338 186 363 202 379 233 c 2
 379 233 520 539 520 539 c 1
 520 539 520 539 520 539 c 1
 525 550 528 562 528 575 c 1
 528 575 528 575 528 575 c 1
 528 586 525 599 520 612 c 2
 520 612 379 918 379 918 c 1
 379 918 379 918 379 918 c 1
 364 949 339 965 303 965 c 1
 303 965 303 965 303 965 c 1
 281 965 261 957 244 942 c 0
 226 926 217 906 217 882 c 1
 217 882 217 882 217 882 c 1
 217 869 220 857 225 846 c 2
 225 846 350 575 350 575 c 1
 350 575 225 305 225 305 c 1
EndSplineSet
Validated: 5
EndChar

StartChar: onequarter
Encoding: 188 188 123
Width: 1237
Flags: W
LayerCount: 2
Fore
SplineSet
452 694 m 1
 474 694 492 701 506 716 c 0
 519 730 526 747 526 768 c 1
 526 768 526 768 526 768 c 1
 526 789 519 806 506 821 c 0
 492 835 474 842 452 842 c 2
 452 842 362 842 362 842 c 1
 362 842 362 1255 362 1255 c 1
 362 1255 362 1255 362 1255 c 1
 362 1304 337 1329 288 1329 c 2
 288 1329 124 1329 124 1329 c 1
 124 1329 124 1329 124 1329 c 1
 102 1329 84 1322 71 1308 c 0
 57 1293 50 1276 50 1255 c 1
 50 1255 50 1255 50 1255 c 1
 50 1234 57 1217 71 1203 c 0
 84 1189 102 1182 124 1182 c 2
 124 1182 214 1182 214 1182 c 1
 214 1182 214 842 214 842 c 1
 214 842 124 842 124 842 c 1
 124 842 124 842 124 842 c 1
 102 842 84 835 71 821 c 0
 57 806 50 789 50 768 c 1
 50 768 50 768 50 768 c 1
 50 747 57 730 71 716 c 0
 84 701 102 694 124 694 c 2
 124 694 452 694 452 694 c 1
 452 694 452 694 452 694 c 1
1238 1192 m 1
 1252 1207 1259 1224 1259 1243 c 1
 1259 1243 1259 1243 1259 1243 c 1
 1259 1263 1251 1281 1236 1296 c 0
 1221 1311 1203 1319 1183 1319 c 1
 1183 1319 1183 1319 1183 1319 c 1
 1164 1319 1146 1311 1131 1294 c 2
 1131 1294 41 137 41 137 c 1
 41 137 41 137 41 137 c 1
 27 122 20 105 20 86 c 1
 20 86 20 86 20 86 c 1
 20 67 28 49 43 34 c 0
 58 18 76 10 96 10 c 1
 96 10 96 10 96 10 c 1
 115 10 133 18 148 35 c 2
 148 35 1238 1192 1238 1192 c 1
 1238 1192 1238 1192 1238 1192 c 1
1215 147 m 1
 1238 147 1256 154 1269 169 c 0
 1282 183 1289 200 1289 221 c 1
 1289 221 1289 221 1289 221 c 1
 1289 242 1282 259 1269 274 c 0
 1256 288 1238 295 1215 295 c 2
 1215 295 1195 295 1195 295 c 1
 1195 295 1195 541 1195 541 c 1
 1195 541 1195 541 1195 541 c 1
 1195 563 1188 581 1174 594 c 0
 1159 607 1142 614 1121 614 c 1
 1121 614 1121 614 1121 614 c 1
 1100 614 1083 607 1069 594 c 0
 1054 581 1047 563 1047 541 c 2
 1047 541 1047 295 1047 295 c 1
 1047 295 857 295 857 295 c 1
 857 295 857 561 857 561 c 1
 857 561 857 561 857 561 c 1
 857 584 850 602 836 615 c 0
 821 628 804 635 783 635 c 1
 783 635 783 635 783 635 c 1
 762 635 745 628 731 615 c 0
 716 602 709 584 709 561 c 2
 709 561 709 221 709 221 c 1
 709 221 709 221 709 221 c 1
 709 172 734 147 783 147 c 2
 783 147 1047 147 1047 147 c 1
 1047 147 1047 74 1047 74 c 1
 1047 74 1047 74 1047 74 c 1
 1047 51 1054 33 1069 20 c 0
 1083 7 1100 0 1121 0 c 1
 1121 0 1121 0 1121 0 c 1
 1142 0 1159 7 1174 20 c 0
 1188 33 1195 51 1195 74 c 2
 1195 74 1195 147 1195 147 c 1
 1195 147 1215 147 1215 147 c 1
 1215 147 1215 147 1215 147 c 1
EndSplineSet
Validated: 5
EndChar

StartChar: onehalf
Encoding: 189 189 124
Width: 1237
Flags: W
LayerCount: 2
Fore
SplineSet
452 694 m 1
 474 694 492 701 506 716 c 0
 519 730 526 747 526 768 c 1
 526 768 526 768 526 768 c 1
 526 789 519 806 506 821 c 0
 492 835 474 842 452 842 c 2
 452 842 362 842 362 842 c 1
 362 842 362 1255 362 1255 c 1
 362 1255 362 1255 362 1255 c 1
 362 1304 337 1329 288 1329 c 2
 288 1329 124 1329 124 1329 c 1
 124 1329 124 1329 124 1329 c 1
 102 1329 84 1322 71 1308 c 0
 57 1293 50 1276 50 1255 c 1
 50 1255 50 1255 50 1255 c 1
 50 1234 57 1217 71 1203 c 0
 84 1189 102 1182 124 1182 c 2
 124 1182 214 1182 214 1182 c 1
 214 1182 214 842 214 842 c 1
 214 842 124 842 124 842 c 1
 124 842 124 842 124 842 c 1
 102 842 84 835 71 821 c 0
 57 806 50 789 50 768 c 1
 50 768 50 768 50 768 c 1
 50 747 57 730 71 716 c 0
 84 701 102 694 124 694 c 2
 124 694 452 694 452 694 c 1
 452 694 452 694 452 694 c 1
1238 1192 m 1
 1252 1207 1259 1224 1259 1243 c 1
 1259 1243 1259 1243 1259 1243 c 1
 1259 1263 1251 1281 1236 1296 c 0
 1221 1311 1203 1319 1183 1319 c 1
 1183 1319 1183 1319 1183 1319 c 1
 1164 1319 1146 1311 1131 1294 c 2
 1131 1294 41 137 41 137 c 1
 41 137 41 137 41 137 c 1
 27 122 20 105 20 86 c 1
 20 86 20 86 20 86 c 1
 20 67 28 49 43 34 c 0
 58 18 76 10 96 10 c 1
 96 10 96 10 96 10 c 1
 115 10 133 18 148 35 c 2
 148 35 1238 1192 1238 1192 c 1
 1238 1192 1238 1192 1238 1192 c 1
1207 496 m 1
 1207 496 1207 496 1207 496 c 1
 1207 531 1193 563 1164 592 c 0
 1135 621 1103 635 1068 635 c 2
 1068 635 793 635 793 635 c 1
 793 635 793 635 793 635 c 1
 771 635 753 628 740 614 c 0
 727 599 720 582 720 561 c 1
 720 561 720 561 720 561 c 1
 720 540 727 523 740 509 c 0
 753 495 771 488 793 488 c 2
 793 488 1059 488 1059 488 c 1
 1059 488 1059 391 1059 391 c 1
 1059 391 849 391 849 391 c 1
 849 391 849 391 849 391 c 1
 814 391 782 377 753 348 c 0
 724 319 709 287 709 252 c 2
 709 252 709 74 709 74 c 1
 709 74 709 74 709 74 c 1
 709 25 734 0 783 0 c 2
 783 0 1111 0 1111 0 c 1
 1111 0 1111 0 1111 0 c 1
 1133 0 1151 7 1164 22 c 0
 1177 36 1184 53 1184 74 c 1
 1184 74 1184 74 1184 74 c 1
 1184 95 1177 112 1164 127 c 0
 1151 141 1133 148 1111 148 c 2
 1111 148 857 148 857 148 c 1
 857 148 857 244 857 244 c 1
 857 244 1068 244 1068 244 c 1
 1068 244 1068 244 1068 244 c 1
 1103 244 1135 259 1164 288 c 0
 1193 317 1207 348 1207 383 c 2
 1207 383 1207 496 1207 496 c 1
EndSplineSet
Validated: 5
EndChar

StartChar: threequarters
Encoding: 190 190 125
Width: 1237
Flags: W
LayerCount: 2
Fore
SplineSet
537 946 m 1
 537 946 537 946 537 946 c 1
 537 971 529 993 512 1012 c 1
 512 1012 512 1012 512 1012 c 1
 529 1031 537 1052 537 1077 c 2
 537 1077 537 1190 537 1190 c 1
 537 1190 537 1190 537 1190 c 1
 537 1225 523 1257 494 1286 c 0
 465 1315 433 1329 398 1329 c 2
 398 1329 123 1329 123 1329 c 1
 123 1329 123 1329 123 1329 c 1
 101 1329 83 1322 70 1308 c 0
 57 1293 50 1276 50 1255 c 1
 50 1255 50 1255 50 1255 c 1
 50 1234 57 1217 70 1203 c 0
 83 1189 101 1182 123 1182 c 2
 123 1182 389 1182 389 1182 c 1
 389 1182 389 1085 389 1085 c 1
 389 1085 275 1085 275 1085 c 1
 275 1085 275 1085 275 1085 c 1
 252 1085 234 1078 221 1064 c 0
 208 1050 201 1033 201 1012 c 1
 201 1012 201 1012 201 1012 c 1
 201 991 208 974 221 960 c 0
 234 945 252 938 275 938 c 2
 275 938 389 938 389 938 c 1
 389 938 389 842 389 842 c 1
 389 842 123 842 123 842 c 1
 123 842 123 842 123 842 c 1
 101 842 83 835 70 821 c 0
 57 806 50 789 50 768 c 1
 50 768 50 768 50 768 c 1
 50 747 57 730 70 716 c 0
 83 701 101 694 123 694 c 2
 123 694 398 694 398 694 c 1
 398 694 398 694 398 694 c 1
 433 694 465 709 494 738 c 0
 523 767 537 799 537 834 c 2
 537 834 537 946 537 946 c 1
1238 1192 m 1
 1252 1207 1259 1224 1259 1243 c 1
 1259 1243 1259 1243 1259 1243 c 1
 1259 1263 1251 1281 1236 1296 c 0
 1221 1311 1203 1319 1183 1319 c 1
 1183 1319 1183 1319 1183 1319 c 1
 1164 1319 1146 1311 1131 1294 c 2
 1131 1294 41 137 41 137 c 1
 41 137 41 137 41 137 c 1
 27 122 20 105 20 86 c 1
 20 86 20 86 20 86 c 1
 20 67 28 49 43 34 c 0
 58 18 76 10 96 10 c 1
 96 10 96 10 96 10 c 1
 115 10 133 18 148 35 c 2
 148 35 1238 1192 1238 1192 c 1
 1238 1192 1238 1192 1238 1192 c 1
1215 147 m 1
 1238 147 1256 154 1269 169 c 0
 1282 183 1289 200 1289 221 c 1
 1289 221 1289 221 1289 221 c 1
 1289 242 1282 259 1269 274 c 0
 1256 288 1238 295 1215 295 c 2
 1215 295 1195 295 1195 295 c 1
 1195 295 1195 541 1195 541 c 1
 1195 541 1195 541 1195 541 c 1
 1195 563 1188 581 1174 594 c 0
 1159 607 1142 614 1121 614 c 1
 1121 614 1121 614 1121 614 c 1
 1100 614 1083 607 1069 594 c 0
 1054 581 1047 563 1047 541 c 2
 1047 541 1047 295 1047 295 c 1
 1047 295 857 295 857 295 c 1
 857 295 857 561 857 561 c 1
 857 561 857 561 857 561 c 1
 857 584 850 602 836 615 c 0
 821 628 804 635 783 635 c 1
 783 635 783 635 783 635 c 1
 762 635 745 628 731 615 c 0
 716 602 709 584 709 561 c 2
 709 561 709 221 709 221 c 1
 709 221 709 221 709 221 c 1
 709 172 734 147 783 147 c 2
 783 147 1047 147 1047 147 c 1
 1047 147 1047 74 1047 74 c 1
 1047 74 1047 74 1047 74 c 1
 1047 51 1054 33 1069 20 c 0
 1083 7 1100 0 1121 0 c 1
 1121 0 1121 0 1121 0 c 1
 1142 0 1159 7 1174 20 c 0
 1188 33 1195 51 1195 74 c 2
 1195 74 1195 147 1195 147 c 1
 1195 147 1215 147 1215 147 c 1
 1215 147 1215 147 1215 147 c 1
EndSplineSet
Validated: 5
EndChar

StartChar: questiondown
Encoding: 191 191 126
Width: 1237
Flags: W
LayerCount: 2
Fore
SplineSet
778 965 m 1
 755 965 735 957 719 941 c 0
 702 924 694 904 694 881 c 1
 694 881 694 881 694 881 c 1
 694 857 702 837 719 820 c 0
 735 803 755 795 778 795 c 1
 778 795 778 795 778 795 c 1
 801 795 821 803 838 820 c 0
 854 837 862 857 862 881 c 1
 862 881 862 881 862 881 c 1
 862 904 854 924 838 941 c 0
 821 957 801 965 778 965 c 1
 778 965 778 965 778 965 c 1
1008 96 m 1
 1023 109 1030 129 1030 157 c 1
 1030 157 1030 157 1030 157 c 1
 1030 182 1021 203 1004 219 c 0
 987 234 968 242 947 242 c 1
 947 242 947 242 947 242 c 1
 926 242 905 234 885 217 c 2
 885 217 438 -166 438 -166 c 1
 438 -166 354 -90 354 -90 c 1
 354 -90 354 -29 354 -29 c 1
 354 -29 834 385 834 385 c 1
 834 385 834 385 834 385 c 1
 851 400 860 423 860 453 c 2
 860 453 860 592 860 592 c 1
 860 592 860 592 860 592 c 1
 860 615 852 634 836 651 c 0
 819 668 799 676 776 676 c 1
 776 676 776 676 776 676 c 1
 753 676 734 668 717 651 c 0
 700 634 692 615 692 592 c 2
 692 592 692 487 692 487 c 1
 692 487 207 70 207 70 c 1
 207 70 207 70 207 70 c 1
 192 57 184 37 184 12 c 2
 184 12 184 -131 184 -131 c 1
 184 -131 184 -131 184 -131 c 1
 184 -158 194 -180 213 -195 c 2
 213 -195 385 -344 385 -344 c 1
 385 -344 385 -344 385 -344 c 1
 398 -356 415 -362 436 -362 c 1
 436 -362 436 -362 436 -362 c 1
 458 -362 477 -355 492 -342 c 2
 492 -342 1008 96 1008 96 c 1
 1008 96 1008 96 1008 96 c 1
EndSplineSet
Validated: 5
EndChar

StartChar: Agrave
Encoding: 192 192 127
Width: 1237
Flags: W
LayerCount: 2
Fore
SplineSet
212 117 m 1
 209 106 207 96 207 86 c 1
 207 86 207 86 207 86 c 1
 207 62 215 42 231 25 c 0
 247 8 267 0 292 0 c 1
 292 0 292 0 292 0 c 1
 309 0 325 5 340 15 c 0
 355 24 363 34 365 45 c 2
 365 45 439 289 439 289 c 1
 439 289 822 289 822 289 c 1
 822 289 890 61 890 61 c 1
 890 61 890 61 890 61 c 1
 902 20 930 0 974 0 c 1
 974 0 974 0 974 0 c 1
 995 0 1013 8 1029 25 c 0
 1045 41 1053 61 1053 84 c 1
 1053 84 1053 84 1053 84 c 1
 1053 92 1052 100 1049 109 c 2
 1049 109 714 1276 714 1276 c 1
 714 1276 714 1276 714 1276 c 1
 703 1311 677 1329 636 1329 c 1
 636 1329 636 1329 636 1329 c 1
 593 1329 565 1308 552 1266 c 2
 552 1266 212 117 212 117 c 1
 212 117 212 117 212 117 c 1
773 459 m 1
 773 459 490 459 490 459 c 1
 490 459 634 940 634 940 c 1
 634 940 773 459 773 459 c 1
507 1685 m 1
 507 1685 507 1685 507 1685 c 1
 495 1690 483 1693 470 1693 c 1
 470 1693 470 1693 470 1693 c 1
 446 1693 426 1684 411 1667 c 0
 396 1649 388 1629 388 1607 c 1
 388 1607 388 1607 388 1607 c 1
 388 1572 404 1547 435 1531 c 2
 435 1531 740 1390 740 1390 c 1
 740 1390 740 1390 740 1390 c 1
 752 1385 764 1382 777 1382 c 1
 777 1382 777 1382 777 1382 c 1
 801 1382 821 1391 836 1409 c 0
 851 1426 859 1446 859 1468 c 1
 859 1468 859 1468 859 1468 c 1
 859 1503 843 1528 812 1544 c 2
 812 1544 507 1685 507 1685 c 1
EndSplineSet
Validated: 5
EndChar

StartChar: Aacute
Encoding: 193 193 128
Width: 1237
Flags: W
LayerCount: 2
Fore
SplineSet
212 117 m 1
 209 106 207 96 207 86 c 1
 207 86 207 86 207 86 c 1
 207 62 215 42 231 25 c 0
 247 8 267 0 292 0 c 1
 292 0 292 0 292 0 c 1
 309 0 325 5 340 15 c 0
 355 24 363 34 365 45 c 2
 365 45 439 289 439 289 c 1
 439 289 822 289 822 289 c 1
 822 289 890 61 890 61 c 1
 890 61 890 61 890 61 c 1
 902 20 930 0 974 0 c 1
 974 0 974 0 974 0 c 1
 995 0 1013 8 1029 25 c 0
 1045 41 1053 61 1053 84 c 1
 1053 84 1053 84 1053 84 c 1
 1053 92 1052 100 1049 109 c 2
 1049 109 714 1276 714 1276 c 1
 714 1276 714 1276 714 1276 c 1
 703 1311 677 1329 636 1329 c 1
 636 1329 636 1329 636 1329 c 1
 593 1329 565 1308 552 1266 c 2
 552 1266 212 117 212 117 c 1
 212 117 212 117 212 117 c 1
773 459 m 1
 773 459 490 459 490 459 c 1
 490 459 634 940 634 940 c 1
 634 940 773 459 773 459 c 1
435 1544 m 1
 435 1544 435 1544 435 1544 c 1
 404 1529 388 1504 388 1468 c 1
 388 1468 388 1468 388 1468 c 1
 388 1446 396 1426 411 1409 c 0
 426 1391 446 1382 470 1382 c 1
 470 1382 470 1382 470 1382 c 1
 483 1382 495 1385 507 1390 c 2
 507 1390 812 1531 812 1531 c 1
 812 1531 812 1531 812 1531 c 1
 843 1546 859 1571 859 1607 c 1
 859 1607 859 1607 859 1607 c 1
 859 1629 851 1649 836 1667 c 0
 821 1684 801 1693 777 1693 c 1
 777 1693 777 1693 777 1693 c 1
 764 1693 752 1690 740 1685 c 2
 740 1685 435 1544 435 1544 c 1
EndSplineSet
Validated: 5
EndChar

StartChar: Acircumflex
Encoding: 194 194 129
Width: 1237
Flags: W
LayerCount: 2
Fore
SplineSet
212 117 m 1
 209 106 207 96 207 86 c 1
 207 86 207 86 207 86 c 1
 207 62 215 42 231 25 c 0
 247 8 267 0 292 0 c 1
 292 0 292 0 292 0 c 1
 309 0 325 5 340 15 c 0
 355 24 363 34 365 45 c 2
 365 45 439 289 439 289 c 1
 439 289 822 289 822 289 c 1
 822 289 890 61 890 61 c 1
 890 61 890 61 890 61 c 1
 902 20 930 0 974 0 c 1
 974 0 974 0 974 0 c 1
 995 0 1013 8 1029 25 c 0
 1045 41 1053 61 1053 84 c 1
 1053 84 1053 84 1053 84 c 1
 1053 92 1052 100 1049 109 c 2
 1049 109 714 1276 714 1276 c 1
 714 1276 714 1276 714 1276 c 1
 703 1311 677 1329 636 1329 c 1
 636 1329 636 1329 636 1329 c 1
 593 1329 565 1308 552 1266 c 2
 552 1266 212 117 212 117 c 1
 212 117 212 117 212 117 c 1
773 459 m 1
 773 459 490 459 490 459 c 1
 490 459 634 940 634 940 c 1
 634 940 773 459 773 459 c 1
894 1390 m 1
 894 1390 894 1390 894 1390 c 1
 906 1385 918 1382 930 1382 c 1
 930 1382 930 1382 930 1382 c 1
 954 1382 974 1391 990 1409 c 0
 1005 1426 1013 1446 1013 1468 c 1
 1013 1468 1013 1468 1013 1468 c 1
 1013 1503 997 1528 966 1544 c 2
 966 1544 660 1685 660 1685 c 1
 660 1685 660 1685 660 1685 c 1
 649 1690 636 1693 623 1693 c 1
 623 1693 623 1693 623 1693 c 1
 612 1693 600 1690 587 1685 c 2
 587 1685 281 1544 281 1544 c 1
 281 1544 281 1544 281 1544 c 1
 250 1529 234 1504 234 1468 c 1
 234 1468 234 1468 234 1468 c 1
 234 1446 242 1426 258 1409 c 0
 273 1391 293 1382 317 1382 c 1
 317 1382 317 1382 317 1382 c 1
 330 1382 342 1385 353 1390 c 2
 353 1390 623 1515 623 1515 c 1
 623 1515 894 1390 894 1390 c 1
EndSplineSet
Validated: 5
EndChar

StartChar: Atilde
Encoding: 195 195 130
Width: 1237
Flags: W
LayerCount: 2
Fore
SplineSet
212 117 m 1
 209 106 207 96 207 86 c 1
 207 86 207 86 207 86 c 1
 207 62 215 42 231 25 c 0
 247 8 267 0 292 0 c 1
 292 0 292 0 292 0 c 1
 309 0 325 5 340 15 c 0
 355 24 363 34 365 45 c 2
 365 45 439 289 439 289 c 1
 439 289 822 289 822 289 c 1
 822 289 890 61 890 61 c 1
 890 61 890 61 890 61 c 1
 902 20 930 0 974 0 c 1
 974 0 974 0 974 0 c 1
 995 0 1013 8 1029 25 c 0
 1045 41 1053 61 1053 84 c 1
 1053 84 1053 84 1053 84 c 1
 1053 92 1052 100 1049 109 c 2
 1049 109 714 1276 714 1276 c 1
 714 1276 714 1276 714 1276 c 1
 703 1311 677 1329 636 1329 c 1
 636 1329 636 1329 636 1329 c 1
 593 1329 565 1308 552 1266 c 2
 552 1266 212 117 212 117 c 1
 212 117 212 117 212 117 c 1
773 459 m 1
 773 459 490 459 490 459 c 1
 490 459 634 940 634 940 c 1
 634 940 773 459 773 459 c 1
1025 1536 m 1
 1052 1553 1066 1576 1066 1605 c 1
 1066 1605 1066 1605 1066 1605 c 1
 1066 1628 1058 1649 1041 1667 c 0
 1024 1685 1004 1694 981 1694 c 1
 981 1694 981 1694 981 1694 c 1
 966 1694 950 1689 935 1680 c 2
 935 1680 804 1600 804 1600 c 1
 804 1600 789 1600 789 1600 c 1
 789 1600 527 1688 527 1688 c 1
 527 1688 527 1688 527 1688 c 1
 519 1691 510 1692 501 1692 c 2
 501 1692 447 1692 447 1692 c 1
 447 1692 447 1692 447 1692 c 1
 430 1692 415 1688 402 1680 c 2
 402 1680 251 1588 251 1588 c 1
 251 1588 251 1588 251 1588 c 1
 224 1571 210 1548 210 1519 c 1
 210 1519 210 1519 210 1519 c 1
 210 1496 218 1475 235 1457 c 0
 252 1439 271 1430 294 1430 c 1
 294 1430 294 1430 294 1430 c 1
 310 1430 326 1435 341 1444 c 2
 341 1444 468 1522 468 1522 c 1
 468 1522 492 1522 492 1522 c 1
 492 1522 748 1436 748 1436 c 1
 748 1436 748 1436 748 1436 c 1
 761 1432 770 1430 775 1430 c 2
 775 1430 828 1430 828 1430 c 1
 828 1430 828 1430 828 1430 c 1
 839 1430 854 1435 873 1444 c 2
 873 1444 1025 1536 1025 1536 c 1
 1025 1536 1025 1536 1025 1536 c 1
EndSplineSet
Validated: 5
EndChar

StartChar: Adieresis
Encoding: 196 196 131
Width: 1237
Flags: W
LayerCount: 2
Fore
SplineSet
208 117 m 1
 205 106 203 96 203 86 c 1
 203 86 203 86 203 86 c 1
 203 62 211 42 227 25 c 0
 243 8 263 0 288 0 c 1
 288 0 288 0 288 0 c 1
 305 0 321 5 336 15 c 0
 351 24 359 34 361 45 c 2
 361 45 435 289 435 289 c 1
 435 289 818 289 818 289 c 1
 818 289 886 61 886 61 c 1
 886 61 886 61 886 61 c 1
 898 20 926 0 970 0 c 1
 970 0 970 0 970 0 c 1
 991 0 1009 8 1025 25 c 0
 1041 41 1049 61 1049 84 c 1
 1049 84 1049 84 1049 84 c 1
 1049 92 1048 100 1045 109 c 2
 1045 109 710 1276 710 1276 c 1
 710 1276 710 1276 710 1276 c 1
 699 1311 673 1329 632 1329 c 1
 632 1329 632 1329 632 1329 c 1
 589 1329 561 1308 548 1266 c 2
 548 1266 208 117 208 117 c 1
 208 117 208 117 208 117 c 1
769 459 m 1
 769 459 486 459 486 459 c 1
 486 459 630 940 630 940 c 1
 630 940 769 459 769 459 c 1
1050 1609 m 1
 1050 1609 1050 1609 1050 1609 c 1
 1050 1633 1042 1653 1025 1670 c 0
 1008 1687 989 1695 966 1695 c 1
 966 1695 966 1695 966 1695 c 1
 943 1695 923 1687 907 1670 c 0
 890 1653 882 1633 882 1609 c 2
 882 1609 882 1466 882 1466 c 1
 882 1466 882 1466 882 1466 c 1
 882 1443 890 1423 906 1407 c 0
 922 1390 942 1382 966 1382 c 1
 966 1382 966 1382 966 1382 c 1
 989 1382 1009 1390 1026 1407 c 0
 1042 1423 1050 1443 1050 1466 c 2
 1050 1466 1050 1609 1050 1609 c 1
372 1609 m 1
 372 1609 372 1609 372 1609 c 1
 372 1632 364 1652 348 1669 c 0
 331 1685 311 1693 288 1693 c 1
 288 1693 288 1693 288 1693 c 1
 265 1693 245 1685 229 1669 c 0
 212 1652 204 1632 204 1609 c 2
 204 1609 204 1466 204 1466 c 1
 204 1466 204 1466 204 1466 c 1
 204 1443 212 1423 229 1407 c 0
 245 1390 265 1382 288 1382 c 1
 288 1382 288 1382 288 1382 c 1
 311 1382 331 1390 348 1407 c 0
 364 1423 372 1443 372 1466 c 2
 372 1466 372 1609 372 1609 c 1
EndSplineSet
Validated: 5
EndChar

StartChar: Aring
Encoding: 197 197 132
Width: 1237
Flags: W
LayerCount: 2
Fore
SplineSet
212 117 m 1
 209 106 207 96 207 86 c 1
 207 86 207 86 207 86 c 1
 207 62 215 42 231 25 c 0
 247 8 267 0 292 0 c 1
 292 0 292 0 292 0 c 1
 309 0 325 5 340 15 c 0
 355 24 363 34 365 45 c 2
 365 45 439 289 439 289 c 1
 439 289 822 289 822 289 c 1
 822 289 890 61 890 61 c 1
 890 61 890 61 890 61 c 1
 902 20 930 0 974 0 c 1
 974 0 974 0 974 0 c 1
 995 0 1013 8 1029 25 c 0
 1045 41 1053 61 1053 84 c 1
 1053 84 1053 84 1053 84 c 1
 1053 92 1052 100 1049 109 c 2
 1049 109 714 1276 714 1276 c 1
 714 1276 714 1276 714 1276 c 1
 703 1311 677 1329 636 1329 c 1
 636 1329 636 1329 636 1329 c 1
 593 1329 565 1308 552 1266 c 2
 552 1266 212 117 212 117 c 1
 212 117 212 117 212 117 c 1
773 459 m 1
 773 459 490 459 490 459 c 1
 490 459 634 940 634 940 c 1
 634 940 773 459 773 459 c 1
816 1603 m 1
 816 1603 816 1603 816 1603 c 1
 816 1640 798 1675 763 1708 c 0
 728 1741 691 1757 652 1757 c 2
 652 1757 595 1757 595 1757 c 1
 595 1757 595 1757 595 1757 c 1
 556 1757 519 1741 485 1709 c 0
 450 1676 433 1641 433 1603 c 2
 433 1603 433 1529 433 1529 c 1
 433 1529 433 1529 433 1529 c 1
 433 1491 451 1456 486 1424 c 0
 521 1392 557 1376 595 1376 c 2
 595 1376 652 1376 652 1376 c 1
 652 1376 652 1376 652 1376 c 1
 690 1376 727 1392 763 1425 c 0
 798 1457 816 1492 816 1529 c 2
 816 1529 816 1603 816 1603 c 1
705 1542 m 1
 705 1528 701 1520 693 1517 c 1
 693 1517 693 1517 693 1517 c 1
 674 1496 658 1486 646 1486 c 2
 646 1486 603 1486 603 1486 c 1
 603 1486 603 1486 603 1486 c 1
 594 1486 586 1489 580 1494 c 2
 580 1494 556 1513 556 1513 c 1
 556 1513 556 1513 556 1513 c 1
 548 1519 544 1529 544 1542 c 2
 544 1542 544 1593 544 1593 c 1
 544 1593 544 1593 544 1593 c 1
 544 1602 552 1614 567 1627 c 0
 582 1640 596 1646 609 1646 c 2
 609 1646 646 1646 646 1646 c 1
 646 1646 646 1646 646 1646 c 1
 653 1646 664 1640 681 1628 c 0
 697 1616 705 1604 705 1591 c 2
 705 1591 705 1542 705 1542 c 1
 705 1542 705 1542 705 1542 c 1
EndSplineSet
Validated: 5
EndChar

StartChar: AE
Encoding: 198 198 133
Width: 1237
Flags: W
LayerCount: 2
Fore
SplineSet
978 2 m 1
 1001 2 1022 10 1039 27 c 0
 1056 44 1064 63 1064 86 c 1
 1064 86 1064 86 1064 86 c 1
 1064 109 1056 129 1039 146 c 0
 1022 162 1001 170 978 170 c 2
 978 170 808 170 808 170 c 1
 808 170 808 582 808 582 c 1
 808 582 980 582 980 582 c 1
 980 582 980 582 980 582 c 1
 1003 582 1023 590 1040 606 c 0
 1056 622 1064 642 1064 666 c 1
 1064 666 1064 666 1064 666 c 1
 1064 689 1056 709 1040 726 c 0
 1023 742 1003 750 980 750 c 2
 980 750 810 750 810 750 c 1
 810 750 810 1161 810 1161 c 1
 810 1161 980 1161 980 1161 c 1
 980 1161 980 1161 980 1161 c 1
 1003 1161 1023 1169 1040 1186 c 0
 1056 1202 1064 1222 1064 1245 c 1
 1064 1245 1064 1245 1064 1245 c 1
 1064 1268 1056 1288 1040 1305 c 0
 1023 1321 1003 1329 980 1329 c 2
 980 1329 732 1329 732 1329 c 1
 732 1329 732 1329 732 1329 c 1
 687 1329 657 1308 642 1266 c 2
 642 1266 220 121 220 121 c 1
 220 121 220 121 220 121 c 1
 215 109 213 97 213 86 c 1
 213 86 213 86 213 86 c 1
 213 62 221 42 238 26 c 0
 255 10 275 2 298 2 c 1
 298 2 298 2 298 2 c 1
 338 2 367 24 384 68 c 2
 384 68 464 291 464 291 c 1
 464 291 638 291 638 291 c 1
 638 291 638 86 638 86 c 1
 638 86 638 86 638 86 c 1
 638 63 646 43 663 27 c 0
 680 10 700 2 724 2 c 2
 724 2 978 2 978 2 c 1
 978 2 978 2 978 2 c 1
638 764 m 1
 638 764 638 461 638 461 c 1
 638 461 527 461 527 461 c 1
 527 461 638 764 638 764 c 1
EndSplineSet
Validated: 5
EndChar

StartChar: Ccedilla
Encoding: 199 199 134
Width: 1237
Flags: W
LayerCount: 2
Fore
SplineSet
715 -190 m 1
 715 -190 459 -190 459 -190 c 1
 459 -190 459 -190 459 -190 c 1
 436 -190 416 -198 400 -215 c 0
 383 -232 375 -253 375 -276 c 1
 375 -276 375 -276 375 -276 c 1
 375 -299 383 -318 400 -335 c 0
 417 -352 436 -360 459 -360 c 2
 459 -360 799 -360 799 -360 c 1
 799 -360 799 -360 799 -360 c 1
 822 -360 842 -352 859 -335 c 0
 875 -318 883 -298 883 -274 c 2
 883 -274 883 0 883 0 c 1
 883 0 971 0 971 0 c 1
 971 0 971 0 971 0 c 1
 994 0 1015 8 1032 25 c 0
 1049 41 1057 61 1057 84 c 1
 1057 84 1057 84 1057 84 c 1
 1057 107 1049 127 1032 144 c 0
 1015 160 994 168 971 168 c 2
 971 168 668 168 668 168 c 1
 668 168 668 168 668 168 c 1
 630 168 603 186 586 221 c 2
 586 221 408 563 408 563 c 1
 408 563 408 563 408 563 c 1
 392 593 384 628 384 667 c 1
 384 667 384 667 384 667 c 1
 384 704 391 737 406 764 c 2
 406 764 592 1112 592 1112 c 1
 592 1112 592 1112 592 1112 c 1
 609 1143 630 1159 657 1159 c 2
 657 1159 977 1159 977 1159 c 1
 977 1159 977 1159 977 1159 c 1
 1000 1159 1020 1168 1037 1185 c 0
 1053 1202 1061 1222 1061 1245 c 1
 1061 1245 1061 1245 1061 1245 c 1
 1061 1268 1053 1287 1037 1304 c 0
 1020 1321 1000 1329 977 1329 c 2
 977 1329 645 1329 645 1329 c 1
 645 1329 645 1329 645 1329 c 1
 608 1329 570 1316 531 1290 c 0
 492 1263 463 1233 444 1198 c 2
 444 1198 248 827 248 827 c 1
 248 827 248 827 248 827 c 1
 223 781 211 727 211 664 c 1
 211 664 211 664 211 664 c 1
 211 607 224 552 250 498 c 2
 250 498 444 123 444 123 c 1
 444 123 444 123 444 123 c 1
 461 92 490 63 533 38 c 0
 576 13 617 0 657 0 c 2
 657 0 715 0 715 0 c 1
 715 0 715 -190 715 -190 c 1
EndSplineSet
Validated: 5
EndChar

StartChar: Egrave
Encoding: 200 200 135
Width: 1237
Flags: W
LayerCount: 2
Fore
SplineSet
969 1159 m 1
 992 1159 1013 1167 1030 1184 c 0
 1047 1201 1055 1220 1055 1243 c 1
 1055 1243 1055 1243 1055 1243 c 1
 1055 1266 1047 1287 1030 1304 c 0
 1013 1321 992 1329 969 1329 c 2
 969 1329 207 1329 207 1329 c 1
 207 1329 207 0 207 0 c 1
 207 0 969 0 969 0 c 1
 969 0 969 0 969 0 c 1
 992 0 1013 8 1030 25 c 0
 1047 41 1055 61 1055 84 c 1
 1055 84 1055 84 1055 84 c 1
 1055 107 1047 127 1030 144 c 0
 1013 160 994 168 971 168 c 2
 971 168 375 168 375 168 c 1
 375 168 375 580 375 580 c 1
 375 580 631 580 631 580 c 1
 631 580 631 580 631 580 c 1
 654 580 674 588 691 605 c 0
 707 622 715 642 715 666 c 1
 715 666 715 666 715 666 c 1
 715 689 707 708 690 725 c 0
 673 742 654 750 631 750 c 2
 631 750 375 750 375 750 c 1
 375 750 375 1159 375 1159 c 1
 375 1159 969 1159 969 1159 c 1
 969 1159 969 1159 969 1159 c 1
502 1685 m 1
 502 1685 502 1685 502 1685 c 1
 490 1690 478 1693 465 1693 c 1
 465 1693 465 1693 465 1693 c 1
 441 1693 421 1684 406 1667 c 0
 391 1649 383 1629 383 1607 c 1
 383 1607 383 1607 383 1607 c 1
 383 1572 399 1547 430 1531 c 2
 430 1531 735 1390 735 1390 c 1
 735 1390 735 1390 735 1390 c 1
 747 1385 759 1382 772 1382 c 1
 772 1382 772 1382 772 1382 c 1
 796 1382 816 1391 831 1409 c 0
 846 1426 854 1446 854 1468 c 1
 854 1468 854 1468 854 1468 c 1
 854 1503 838 1528 807 1544 c 2
 807 1544 502 1685 502 1685 c 1
EndSplineSet
Validated: 5
EndChar

StartChar: Eacute
Encoding: 201 201 136
Width: 1237
Flags: W
LayerCount: 2
Fore
SplineSet
969 1159 m 1
 992 1159 1013 1167 1030 1184 c 0
 1047 1201 1055 1220 1055 1243 c 1
 1055 1243 1055 1243 1055 1243 c 1
 1055 1266 1047 1287 1030 1304 c 0
 1013 1321 992 1329 969 1329 c 2
 969 1329 207 1329 207 1329 c 1
 207 1329 207 0 207 0 c 1
 207 0 969 0 969 0 c 1
 969 0 969 0 969 0 c 1
 992 0 1013 8 1030 25 c 0
 1047 41 1055 61 1055 84 c 1
 1055 84 1055 84 1055 84 c 1
 1055 107 1047 127 1030 144 c 0
 1013 160 994 168 971 168 c 2
 971 168 375 168 375 168 c 1
 375 168 375 580 375 580 c 1
 375 580 631 580 631 580 c 1
 631 580 631 580 631 580 c 1
 654 580 674 588 691 605 c 0
 707 622 715 642 715 666 c 1
 715 666 715 666 715 666 c 1
 715 689 707 708 690 725 c 0
 673 742 654 750 631 750 c 2
 631 750 375 750 375 750 c 1
 375 750 375 1159 375 1159 c 1
 375 1159 969 1159 969 1159 c 1
 969 1159 969 1159 969 1159 c 1
430 1544 m 1
 430 1544 430 1544 430 1544 c 1
 399 1529 383 1504 383 1468 c 1
 383 1468 383 1468 383 1468 c 1
 383 1446 391 1426 406 1409 c 0
 421 1391 441 1382 465 1382 c 1
 465 1382 465 1382 465 1382 c 1
 478 1382 490 1385 502 1390 c 2
 502 1390 807 1531 807 1531 c 1
 807 1531 807 1531 807 1531 c 1
 838 1546 854 1571 854 1607 c 1
 854 1607 854 1607 854 1607 c 1
 854 1629 846 1649 831 1667 c 0
 816 1684 796 1693 772 1693 c 1
 772 1693 772 1693 772 1693 c 1
 759 1693 747 1690 735 1685 c 2
 735 1685 430 1544 430 1544 c 1
EndSplineSet
Validated: 5
EndChar

StartChar: Ecircumflex
Encoding: 202 202 137
Width: 1237
Flags: W
LayerCount: 2
Fore
SplineSet
969 1159 m 1
 992 1159 1013 1167 1030 1184 c 0
 1047 1201 1055 1220 1055 1243 c 1
 1055 1243 1055 1243 1055 1243 c 1
 1055 1266 1047 1287 1030 1304 c 0
 1013 1321 992 1329 969 1329 c 2
 969 1329 207 1329 207 1329 c 1
 207 1329 207 0 207 0 c 1
 207 0 969 0 969 0 c 1
 969 0 969 0 969 0 c 1
 992 0 1013 8 1030 25 c 0
 1047 41 1055 61 1055 84 c 1
 1055 84 1055 84 1055 84 c 1
 1055 107 1047 127 1030 144 c 0
 1013 160 994 168 971 168 c 2
 971 168 375 168 375 168 c 1
 375 168 375 580 375 580 c 1
 375 580 631 580 631 580 c 1
 631 580 631 580 631 580 c 1
 654 580 674 588 691 605 c 0
 707 622 715 642 715 666 c 1
 715 666 715 666 715 666 c 1
 715 689 707 708 690 725 c 0
 673 742 654 750 631 750 c 2
 631 750 375 750 375 750 c 1
 375 750 375 1159 375 1159 c 1
 375 1159 969 1159 969 1159 c 1
 969 1159 969 1159 969 1159 c 1
889 1390 m 1
 889 1390 889 1390 889 1390 c 1
 901 1385 913 1382 925 1382 c 1
 925 1382 925 1382 925 1382 c 1
 949 1382 969 1391 985 1409 c 0
 1000 1426 1008 1446 1008 1468 c 1
 1008 1468 1008 1468 1008 1468 c 1
 1008 1503 992 1528 961 1544 c 2
 961 1544 655 1685 655 1685 c 1
 655 1685 655 1685 655 1685 c 1
 644 1690 631 1693 618 1693 c 1
 618 1693 618 1693 618 1693 c 1
 607 1693 595 1690 582 1685 c 2
 582 1685 276 1544 276 1544 c 1
 276 1544 276 1544 276 1544 c 1
 245 1529 229 1504 229 1468 c 1
 229 1468 229 1468 229 1468 c 1
 229 1446 237 1426 253 1409 c 0
 268 1391 288 1382 312 1382 c 1
 312 1382 312 1382 312 1382 c 1
 325 1382 337 1385 348 1390 c 2
 348 1390 618 1515 618 1515 c 1
 618 1515 889 1390 889 1390 c 1
EndSplineSet
Validated: 5
EndChar

StartChar: Edieresis
Encoding: 203 203 138
Width: 1237
Flags: W
LayerCount: 2
Fore
SplineSet
969 1159 m 1
 992 1159 1013 1167 1030 1184 c 0
 1047 1201 1055 1220 1055 1243 c 1
 1055 1243 1055 1243 1055 1243 c 1
 1055 1266 1047 1287 1030 1304 c 0
 1013 1321 992 1329 969 1329 c 2
 969 1329 207 1329 207 1329 c 1
 207 1329 207 0 207 0 c 1
 207 0 969 0 969 0 c 1
 969 0 969 0 969 0 c 1
 992 0 1013 8 1030 25 c 0
 1047 41 1055 61 1055 84 c 1
 1055 84 1055 84 1055 84 c 1
 1055 107 1047 127 1030 144 c 0
 1013 160 994 168 971 168 c 2
 971 168 375 168 375 168 c 1
 375 168 375 580 375 580 c 1
 375 580 631 580 631 580 c 1
 631 580 631 580 631 580 c 1
 654 580 674 588 691 605 c 0
 707 622 715 642 715 666 c 1
 715 666 715 666 715 666 c 1
 715 689 707 708 690 725 c 0
 673 742 654 750 631 750 c 2
 631 750 375 750 375 750 c 1
 375 750 375 1159 375 1159 c 1
 375 1159 969 1159 969 1159 c 1
 969 1159 969 1159 969 1159 c 1
1049 1609 m 1
 1049 1609 1049 1609 1049 1609 c 1
 1049 1633 1041 1653 1024 1670 c 0
 1007 1687 988 1695 965 1695 c 1
 965 1695 965 1695 965 1695 c 1
 942 1695 922 1687 906 1670 c 0
 889 1653 881 1633 881 1609 c 2
 881 1609 881 1466 881 1466 c 1
 881 1466 881 1466 881 1466 c 1
 881 1443 889 1423 905 1407 c 0
 921 1390 941 1382 965 1382 c 1
 965 1382 965 1382 965 1382 c 1
 988 1382 1008 1390 1025 1407 c 0
 1041 1423 1049 1443 1049 1466 c 2
 1049 1466 1049 1609 1049 1609 c 1
371 1609 m 1
 371 1609 371 1609 371 1609 c 1
 371 1632 363 1652 347 1669 c 0
 330 1685 310 1693 287 1693 c 1
 287 1693 287 1693 287 1693 c 1
 264 1693 244 1685 228 1669 c 0
 211 1652 203 1632 203 1609 c 2
 203 1609 203 1466 203 1466 c 1
 203 1466 203 1466 203 1466 c 1
 203 1443 211 1423 228 1407 c 0
 244 1390 264 1382 287 1382 c 1
 287 1382 287 1382 287 1382 c 1
 310 1382 330 1390 347 1407 c 0
 363 1423 371 1443 371 1466 c 2
 371 1466 371 1609 371 1609 c 1
EndSplineSet
Validated: 5
EndChar

StartChar: Igrave
Encoding: 204 204 139
Width: 1237
Flags: W
LayerCount: 2
Fore
SplineSet
289 1329 m 1
 266 1329 246 1321 230 1304 c 0
 213 1287 205 1267 205 1243 c 1
 205 1243 205 1243 205 1243 c 1
 205 1220 213 1201 230 1184 c 0
 246 1167 266 1159 289 1159 c 2
 289 1159 547 1159 547 1159 c 1
 547 1159 547 168 547 168 c 1
 547 168 289 168 289 168 c 1
 289 168 289 168 289 168 c 1
 266 168 246 160 230 144 c 0
 213 127 205 107 205 84 c 1
 205 84 205 84 205 84 c 1
 205 61 213 41 230 25 c 0
 246 8 266 0 289 0 c 2
 289 0 969 0 969 0 c 1
 969 0 969 0 969 0 c 1
 992 0 1011 8 1028 25 c 0
 1045 41 1053 61 1053 84 c 1
 1053 84 1053 84 1053 84 c 1
 1053 107 1045 127 1029 144 c 0
 1012 160 992 168 969 168 c 2
 969 168 715 168 715 168 c 1
 715 168 715 1159 715 1159 c 1
 715 1159 969 1159 969 1159 c 1
 969 1159 969 1159 969 1159 c 1
 992 1159 1011 1168 1028 1185 c 0
 1045 1202 1053 1222 1053 1245 c 1
 1053 1245 1053 1245 1053 1245 c 1
 1053 1268 1045 1287 1028 1304 c 0
 1011 1321 991 1329 969 1329 c 2
 969 1329 289 1329 289 1329 c 1
 289 1329 289 1329 289 1329 c 1
502 1685 m 1
 502 1685 502 1685 502 1685 c 1
 490 1690 478 1693 465 1693 c 1
 465 1693 465 1693 465 1693 c 1
 441 1693 421 1684 406 1667 c 0
 391 1649 383 1629 383 1607 c 1
 383 1607 383 1607 383 1607 c 1
 383 1572 399 1547 430 1531 c 2
 430 1531 735 1390 735 1390 c 1
 735 1390 735 1390 735 1390 c 1
 747 1385 759 1382 772 1382 c 1
 772 1382 772 1382 772 1382 c 1
 796 1382 816 1391 831 1409 c 0
 846 1426 854 1446 854 1468 c 1
 854 1468 854 1468 854 1468 c 1
 854 1503 838 1528 807 1544 c 2
 807 1544 502 1685 502 1685 c 1
EndSplineSet
Validated: 5
EndChar

StartChar: Iacute
Encoding: 205 205 140
Width: 1237
Flags: W
LayerCount: 2
Fore
SplineSet
289 1329 m 1
 266 1329 246 1321 230 1304 c 0
 213 1287 205 1267 205 1243 c 1
 205 1243 205 1243 205 1243 c 1
 205 1220 213 1201 230 1184 c 0
 246 1167 266 1159 289 1159 c 2
 289 1159 547 1159 547 1159 c 1
 547 1159 547 168 547 168 c 1
 547 168 289 168 289 168 c 1
 289 168 289 168 289 168 c 1
 266 168 246 160 230 144 c 0
 213 127 205 107 205 84 c 1
 205 84 205 84 205 84 c 1
 205 61 213 41 230 25 c 0
 246 8 266 0 289 0 c 2
 289 0 969 0 969 0 c 1
 969 0 969 0 969 0 c 1
 992 0 1011 8 1028 25 c 0
 1045 41 1053 61 1053 84 c 1
 1053 84 1053 84 1053 84 c 1
 1053 107 1045 127 1029 144 c 0
 1012 160 992 168 969 168 c 2
 969 168 715 168 715 168 c 1
 715 168 715 1159 715 1159 c 1
 715 1159 969 1159 969 1159 c 1
 969 1159 969 1159 969 1159 c 1
 992 1159 1011 1168 1028 1185 c 0
 1045 1202 1053 1222 1053 1245 c 1
 1053 1245 1053 1245 1053 1245 c 1
 1053 1268 1045 1287 1028 1304 c 0
 1011 1321 991 1329 969 1329 c 2
 969 1329 289 1329 289 1329 c 1
 289 1329 289 1329 289 1329 c 1
430 1544 m 1
 430 1544 430 1544 430 1544 c 1
 399 1529 383 1504 383 1468 c 1
 383 1468 383 1468 383 1468 c 1
 383 1446 391 1426 406 1409 c 0
 421 1391 441 1382 465 1382 c 1
 465 1382 465 1382 465 1382 c 1
 478 1382 490 1385 502 1390 c 2
 502 1390 807 1531 807 1531 c 1
 807 1531 807 1531 807 1531 c 1
 838 1546 854 1571 854 1607 c 1
 854 1607 854 1607 854 1607 c 1
 854 1629 846 1649 831 1667 c 0
 816 1684 796 1693 772 1693 c 1
 772 1693 772 1693 772 1693 c 1
 759 1693 747 1690 735 1685 c 2
 735 1685 430 1544 430 1544 c 1
EndSplineSet
Validated: 5
EndChar

StartChar: Icircumflex
Encoding: 206 206 141
Width: 1237
Flags: W
LayerCount: 2
Fore
SplineSet
289 1329 m 1
 266 1329 246 1321 230 1304 c 0
 213 1287 205 1267 205 1243 c 1
 205 1243 205 1243 205 1243 c 1
 205 1220 213 1201 230 1184 c 0
 246 1167 266 1159 289 1159 c 2
 289 1159 547 1159 547 1159 c 1
 547 1159 547 168 547 168 c 1
 547 168 289 168 289 168 c 1
 289 168 289 168 289 168 c 1
 266 168 246 160 230 144 c 0
 213 127 205 107 205 84 c 1
 205 84 205 84 205 84 c 1
 205 61 213 41 230 25 c 0
 246 8 266 0 289 0 c 2
 289 0 969 0 969 0 c 1
 969 0 969 0 969 0 c 1
 992 0 1011 8 1028 25 c 0
 1045 41 1053 61 1053 84 c 1
 1053 84 1053 84 1053 84 c 1
 1053 107 1045 127 1029 144 c 0
 1012 160 992 168 969 168 c 2
 969 168 715 168 715 168 c 1
 715 168 715 1159 715 1159 c 1
 715 1159 969 1159 969 1159 c 1
 969 1159 969 1159 969 1159 c 1
 992 1159 1011 1168 1028 1185 c 0
 1045 1202 1053 1222 1053 1245 c 1
 1053 1245 1053 1245 1053 1245 c 1
 1053 1268 1045 1287 1028 1304 c 0
 1011 1321 991 1329 969 1329 c 2
 969 1329 289 1329 289 1329 c 1
 289 1329 289 1329 289 1329 c 1
889 1390 m 1
 889 1390 889 1390 889 1390 c 1
 901 1385 913 1382 925 1382 c 1
 925 1382 925 1382 925 1382 c 1
 949 1382 969 1391 985 1409 c 0
 1000 1426 1008 1446 1008 1468 c 1
 1008 1468 1008 1468 1008 1468 c 1
 1008 1503 992 1528 961 1544 c 2
 961 1544 655 1685 655 1685 c 1
 655 1685 655 1685 655 1685 c 1
 644 1690 631 1693 618 1693 c 1
 618 1693 618 1693 618 1693 c 1
 607 1693 595 1690 582 1685 c 2
 582 1685 276 1544 276 1544 c 1
 276 1544 276 1544 276 1544 c 1
 245 1529 229 1504 229 1468 c 1
 229 1468 229 1468 229 1468 c 1
 229 1446 237 1426 253 1409 c 0
 268 1391 288 1382 312 1382 c 1
 312 1382 312 1382 312 1382 c 1
 325 1382 337 1385 348 1390 c 2
 348 1390 618 1515 618 1515 c 1
 618 1515 889 1390 889 1390 c 1
EndSplineSet
Validated: 5
EndChar

StartChar: Idieresis
Encoding: 207 207 142
Width: 1237
Flags: W
LayerCount: 2
Fore
SplineSet
289 1329 m 1
 266 1329 246 1321 230 1304 c 0
 213 1287 205 1267 205 1243 c 1
 205 1243 205 1243 205 1243 c 1
 205 1220 213 1201 230 1184 c 0
 246 1167 266 1159 289 1159 c 2
 289 1159 547 1159 547 1159 c 1
 547 1159 547 168 547 168 c 1
 547 168 289 168 289 168 c 1
 289 168 289 168 289 168 c 1
 266 168 246 160 230 144 c 0
 213 127 205 107 205 84 c 1
 205 84 205 84 205 84 c 1
 205 61 213 41 230 25 c 0
 246 8 266 0 289 0 c 2
 289 0 969 0 969 0 c 1
 969 0 969 0 969 0 c 1
 992 0 1011 8 1028 25 c 0
 1045 41 1053 61 1053 84 c 1
 1053 84 1053 84 1053 84 c 1
 1053 107 1045 127 1029 144 c 0
 1012 160 992 168 969 168 c 2
 969 168 715 168 715 168 c 1
 715 168 715 1159 715 1159 c 1
 715 1159 969 1159 969 1159 c 1
 969 1159 969 1159 969 1159 c 1
 992 1159 1011 1168 1028 1185 c 0
 1045 1202 1053 1222 1053 1245 c 1
 1053 1245 1053 1245 1053 1245 c 1
 1053 1268 1045 1287 1028 1304 c 0
 1011 1321 991 1329 969 1329 c 2
 969 1329 289 1329 289 1329 c 1
 289 1329 289 1329 289 1329 c 1
1049 1609 m 1
 1049 1609 1049 1609 1049 1609 c 1
 1049 1633 1041 1653 1024 1670 c 0
 1007 1687 988 1695 965 1695 c 1
 965 1695 965 1695 965 1695 c 1
 942 1695 922 1687 906 1670 c 0
 889 1653 881 1633 881 1609 c 2
 881 1609 881 1466 881 1466 c 1
 881 1466 881 1466 881 1466 c 1
 881 1443 889 1423 905 1407 c 0
 921 1390 941 1382 965 1382 c 1
 965 1382 965 1382 965 1382 c 1
 988 1382 1008 1390 1025 1407 c 0
 1041 1423 1049 1443 1049 1466 c 2
 1049 1466 1049 1609 1049 1609 c 1
371 1609 m 1
 371 1609 371 1609 371 1609 c 1
 371 1632 363 1652 347 1669 c 0
 330 1685 310 1693 287 1693 c 1
 287 1693 287 1693 287 1693 c 1
 264 1693 244 1685 228 1669 c 0
 211 1652 203 1632 203 1609 c 2
 203 1609 203 1466 203 1466 c 1
 203 1466 203 1466 203 1466 c 1
 203 1443 211 1423 228 1407 c 0
 244 1390 264 1382 287 1382 c 1
 287 1382 287 1382 287 1382 c 1
 310 1382 330 1390 347 1407 c 0
 363 1423 371 1443 371 1466 c 2
 371 1466 371 1609 371 1609 c 1
EndSplineSet
Validated: 5
EndChar

StartChar: Eth
Encoding: 208 208 143
Width: 1237
Flags: W
LayerCount: 2
Fore
SplineSet
375 752 m 1
 375 752 287 752 287 752 c 1
 287 752 287 752 287 752 c 1
 264 752 245 744 228 727 c 0
 211 710 203 691 203 668 c 1
 203 668 203 668 203 668 c 1
 203 645 211 625 228 609 c 0
 245 592 264 584 287 584 c 2
 287 584 375 584 375 584 c 1
 375 584 375 170 375 170 c 1
 375 170 287 170 287 170 c 1
 287 170 287 170 287 170 c 1
 264 170 244 162 228 145 c 0
 211 128 203 107 203 84 c 1
 203 84 203 84 203 84 c 1
 203 61 211 42 228 25 c 0
 244 8 264 0 287 0 c 2
 287 0 608 0 608 0 c 1
 608 0 608 0 608 0 c 1
 657 0 702 13 742 39 c 0
 782 64 813 98 834 141 c 2
 834 141 1001 473 1001 473 c 1
 1001 473 1001 473 1001 473 c 1
 1034 538 1051 601 1051 662 c 1
 1051 662 1051 662 1051 662 c 1
 1051 728 1035 791 1004 852 c 2
 1004 852 838 1188 838 1188 c 1
 838 1188 838 1188 838 1188 c 1
 819 1227 789 1260 748 1287 c 0
 707 1314 664 1328 621 1329 c 2
 621 1329 289 1329 289 1329 c 1
 289 1329 289 1329 289 1329 c 1
 266 1329 246 1321 230 1304 c 0
 213 1287 205 1268 205 1245 c 1
 205 1245 205 1245 205 1245 c 1
 205 1222 213 1202 230 1185 c 0
 246 1168 266 1159 289 1159 c 2
 289 1159 375 1159 375 1159 c 1
 375 1159 375 752 375 752 c 1
543 584 m 1
 543 584 627 584 627 584 c 1
 627 584 627 584 627 584 c 1
 650 584 671 592 688 609 c 0
 705 625 713 645 713 668 c 1
 713 668 713 668 713 668 c 1
 713 691 705 711 688 728 c 0
 671 744 650 752 627 752 c 2
 627 752 543 752 543 752 c 1
 543 752 543 1159 543 1159 c 1
 543 1159 598 1159 598 1159 c 1
 598 1159 598 1159 598 1159 c 1
 639 1159 668 1142 686 1108 c 2
 686 1108 858 766 858 766 c 1
 858 766 858 766 858 766 c 1
 875 733 883 699 883 662 c 1
 883 662 883 662 883 662 c 1
 883 633 873 596 852 553 c 2
 852 553 686 223 686 223 c 1
 686 223 686 223 686 223 c 1
 667 186 639 168 602 168 c 2
 602 168 543 168 543 168 c 1
 543 168 543 584 543 584 c 1
EndSplineSet
Validated: 5
EndChar

StartChar: Ntilde
Encoding: 209 209 144
Width: 1237
Flags: W
LayerCount: 2
Fore
SplineSet
1055 1243 m 1
 1055 1267 1047 1287 1031 1304 c 0
 1014 1321 994 1329 971 1329 c 1
 971 1329 971 1329 971 1329 c 1
 948 1329 928 1321 911 1304 c 0
 894 1287 885 1266 885 1243 c 2
 885 1243 885 299 885 299 c 1
 885 299 432 1329 432 1329 c 1
 432 1329 209 1329 209 1329 c 1
 209 1329 209 84 209 84 c 1
 209 84 209 84 209 84 c 1
 209 61 217 41 234 25 c 0
 250 8 270 0 293 0 c 1
 293 0 293 0 293 0 c 1
 316 0 336 8 353 25 c 0
 369 41 377 61 377 84 c 2
 377 84 377 1032 377 1032 c 1
 377 1032 829 0 829 0 c 1
 829 0 1055 0 1055 0 c 1
 1055 0 1055 1243 1055 1243 c 1
 1055 1243 1055 1243 1055 1243 c 1
1022 1536 m 1
 1049 1553 1063 1576 1063 1605 c 1
 1063 1605 1063 1605 1063 1605 c 1
 1063 1628 1055 1649 1038 1667 c 0
 1021 1685 1001 1694 978 1694 c 1
 978 1694 978 1694 978 1694 c 1
 963 1694 947 1689 932 1680 c 2
 932 1680 801 1600 801 1600 c 1
 801 1600 786 1600 786 1600 c 1
 786 1600 524 1688 524 1688 c 1
 524 1688 524 1688 524 1688 c 1
 516 1691 507 1692 498 1692 c 2
 498 1692 444 1692 444 1692 c 1
 444 1692 444 1692 444 1692 c 1
 427 1692 412 1688 399 1680 c 2
 399 1680 248 1588 248 1588 c 1
 248 1588 248 1588 248 1588 c 1
 221 1571 207 1548 207 1519 c 1
 207 1519 207 1519 207 1519 c 1
 207 1496 215 1475 232 1457 c 0
 249 1439 268 1430 291 1430 c 1
 291 1430 291 1430 291 1430 c 1
 307 1430 323 1435 338 1444 c 2
 338 1444 465 1522 465 1522 c 1
 465 1522 489 1522 489 1522 c 1
 489 1522 745 1436 745 1436 c 1
 745 1436 745 1436 745 1436 c 1
 758 1432 767 1430 772 1430 c 2
 772 1430 825 1430 825 1430 c 1
 825 1430 825 1430 825 1430 c 1
 836 1430 851 1435 870 1444 c 2
 870 1444 1022 1536 1022 1536 c 1
 1022 1536 1022 1536 1022 1536 c 1
EndSplineSet
Validated: 5
EndChar

StartChar: Ograve
Encoding: 210 210 145
Width: 1237
Flags: W
LayerCount: 2
Fore
SplineSet
829 1206 m 1
 789 1288 722 1329 629 1329 c 1
 629 1329 629 1329 629 1329 c 1
 537 1329 470 1288 428 1206 c 2
 428 1206 242 829 242 829 c 1
 242 829 242 829 242 829 c 1
 217 780 205 724 205 662 c 1
 205 662 205 662 205 662 c 1
 205 600 217 545 242 496 c 2
 242 496 428 123 428 123 c 1
 428 123 428 123 428 123 c 1
 446 88 473 58 509 35 c 0
 544 12 584 0 629 0 c 1
 629 0 629 0 629 0 c 1
 723 0 790 41 829 123 c 2
 829 123 1014 496 1014 496 c 1
 1014 496 1014 496 1014 496 c 1
 1040 548 1053 603 1053 662 c 1
 1053 662 1053 662 1053 662 c 1
 1053 722 1040 778 1014 829 c 2
 1014 829 829 1206 829 1206 c 1
 829 1206 829 1206 829 1206 c 1
573 1122 m 1
 586 1148 605 1161 629 1161 c 1
 629 1161 629 1161 629 1161 c 1
 653 1161 671 1148 682 1122 c 2
 682 1122 858 768 858 768 c 1
 858 768 858 768 858 768 c 1
 875 735 883 701 883 664 c 1
 883 664 883 664 883 664 c 1
 883 629 875 594 858 559 c 2
 858 559 678 201 678 201 c 1
 678 201 678 201 678 201 c 1
 667 179 650 168 629 168 c 1
 629 168 629 168 629 168 c 1
 604 168 587 179 578 201 c 2
 578 201 399 559 399 559 c 1
 399 559 399 559 399 559 c 1
 383 592 375 627 375 664 c 1
 375 664 375 664 375 664 c 1
 375 698 383 733 399 768 c 2
 399 768 573 1122 573 1122 c 1
 573 1122 573 1122 573 1122 c 1
502 1685 m 1
 502 1685 502 1685 502 1685 c 1
 490 1690 478 1693 465 1693 c 1
 465 1693 465 1693 465 1693 c 1
 441 1693 421 1684 406 1667 c 0
 391 1649 383 1629 383 1607 c 1
 383 1607 383 1607 383 1607 c 1
 383 1572 399 1547 430 1531 c 2
 430 1531 735 1390 735 1390 c 1
 735 1390 735 1390 735 1390 c 1
 747 1385 759 1382 772 1382 c 1
 772 1382 772 1382 772 1382 c 1
 796 1382 816 1391 831 1409 c 0
 846 1426 854 1446 854 1468 c 1
 854 1468 854 1468 854 1468 c 1
 854 1503 838 1528 807 1544 c 2
 807 1544 502 1685 502 1685 c 1
EndSplineSet
Validated: 5
EndChar

StartChar: Oacute
Encoding: 211 211 146
Width: 1237
Flags: W
LayerCount: 2
Fore
SplineSet
829 1206 m 1
 789 1288 722 1329 629 1329 c 1
 629 1329 629 1329 629 1329 c 1
 537 1329 470 1288 428 1206 c 2
 428 1206 242 829 242 829 c 1
 242 829 242 829 242 829 c 1
 217 780 205 724 205 662 c 1
 205 662 205 662 205 662 c 1
 205 600 217 545 242 496 c 2
 242 496 428 123 428 123 c 1
 428 123 428 123 428 123 c 1
 446 88 473 58 509 35 c 0
 544 12 584 0 629 0 c 1
 629 0 629 0 629 0 c 1
 723 0 790 41 829 123 c 2
 829 123 1014 496 1014 496 c 1
 1014 496 1014 496 1014 496 c 1
 1040 548 1053 603 1053 662 c 1
 1053 662 1053 662 1053 662 c 1
 1053 722 1040 778 1014 829 c 2
 1014 829 829 1206 829 1206 c 1
 829 1206 829 1206 829 1206 c 1
573 1122 m 1
 586 1148 605 1161 629 1161 c 1
 629 1161 629 1161 629 1161 c 1
 653 1161 671 1148 682 1122 c 2
 682 1122 858 768 858 768 c 1
 858 768 858 768 858 768 c 1
 875 735 883 701 883 664 c 1
 883 664 883 664 883 664 c 1
 883 629 875 594 858 559 c 2
 858 559 678 201 678 201 c 1
 678 201 678 201 678 201 c 1
 667 179 650 168 629 168 c 1
 629 168 629 168 629 168 c 1
 604 168 587 179 578 201 c 2
 578 201 399 559 399 559 c 1
 399 559 399 559 399 559 c 1
 383 592 375 627 375 664 c 1
 375 664 375 664 375 664 c 1
 375 698 383 733 399 768 c 2
 399 768 573 1122 573 1122 c 1
 573 1122 573 1122 573 1122 c 1
430 1544 m 1
 430 1544 430 1544 430 1544 c 1
 399 1529 383 1504 383 1468 c 1
 383 1468 383 1468 383 1468 c 1
 383 1446 391 1426 406 1409 c 0
 421 1391 441 1382 465 1382 c 1
 465 1382 465 1382 465 1382 c 1
 478 1382 490 1385 502 1390 c 2
 502 1390 807 1531 807 1531 c 1
 807 1531 807 1531 807 1531 c 1
 838 1546 854 1571 854 1607 c 1
 854 1607 854 1607 854 1607 c 1
 854 1629 846 1649 831 1667 c 0
 816 1684 796 1693 772 1693 c 1
 772 1693 772 1693 772 1693 c 1
 759 1693 747 1690 735 1685 c 2
 735 1685 430 1544 430 1544 c 1
EndSplineSet
Validated: 5
EndChar

StartChar: Ocircumflex
Encoding: 212 212 147
Width: 1237
Flags: W
LayerCount: 2
Fore
SplineSet
829 1206 m 1
 789 1288 722 1329 629 1329 c 1
 629 1329 629 1329 629 1329 c 1
 537 1329 470 1288 428 1206 c 2
 428 1206 242 829 242 829 c 1
 242 829 242 829 242 829 c 1
 217 780 205 724 205 662 c 1
 205 662 205 662 205 662 c 1
 205 600 217 545 242 496 c 2
 242 496 428 123 428 123 c 1
 428 123 428 123 428 123 c 1
 446 88 473 58 509 35 c 0
 544 12 584 0 629 0 c 1
 629 0 629 0 629 0 c 1
 723 0 790 41 829 123 c 2
 829 123 1014 496 1014 496 c 1
 1014 496 1014 496 1014 496 c 1
 1040 548 1053 603 1053 662 c 1
 1053 662 1053 662 1053 662 c 1
 1053 722 1040 778 1014 829 c 2
 1014 829 829 1206 829 1206 c 1
 829 1206 829 1206 829 1206 c 1
573 1122 m 1
 586 1148 605 1161 629 1161 c 1
 629 1161 629 1161 629 1161 c 1
 653 1161 671 1148 682 1122 c 2
 682 1122 858 768 858 768 c 1
 858 768 858 768 858 768 c 1
 875 735 883 701 883 664 c 1
 883 664 883 664 883 664 c 1
 883 629 875 594 858 559 c 2
 858 559 678 201 678 201 c 1
 678 201 678 201 678 201 c 1
 667 179 650 168 629 168 c 1
 629 168 629 168 629 168 c 1
 604 168 587 179 578 201 c 2
 578 201 399 559 399 559 c 1
 399 559 399 559 399 559 c 1
 383 592 375 627 375 664 c 1
 375 664 375 664 375 664 c 1
 375 698 383 733 399 768 c 2
 399 768 573 1122 573 1122 c 1
 573 1122 573 1122 573 1122 c 1
889 1390 m 1
 889 1390 889 1390 889 1390 c 1
 901 1385 913 1382 925 1382 c 1
 925 1382 925 1382 925 1382 c 1
 949 1382 969 1391 985 1409 c 0
 1000 1426 1008 1446 1008 1468 c 1
 1008 1468 1008 1468 1008 1468 c 1
 1008 1503 992 1528 961 1544 c 2
 961 1544 655 1685 655 1685 c 1
 655 1685 655 1685 655 1685 c 1
 644 1690 631 1693 618 1693 c 1
 618 1693 618 1693 618 1693 c 1
 607 1693 595 1690 582 1685 c 2
 582 1685 276 1544 276 1544 c 1
 276 1544 276 1544 276 1544 c 1
 245 1529 229 1504 229 1468 c 1
 229 1468 229 1468 229 1468 c 1
 229 1446 237 1426 253 1409 c 0
 268 1391 288 1382 312 1382 c 1
 312 1382 312 1382 312 1382 c 1
 325 1382 337 1385 348 1390 c 2
 348 1390 618 1515 618 1515 c 1
 618 1515 889 1390 889 1390 c 1
EndSplineSet
Validated: 5
EndChar

StartChar: Otilde
Encoding: 213 213 148
Width: 1237
Flags: W
LayerCount: 2
Fore
SplineSet
829 1206 m 1
 789 1288 722 1329 629 1329 c 1
 629 1329 629 1329 629 1329 c 1
 537 1329 470 1288 428 1206 c 2
 428 1206 242 829 242 829 c 1
 242 829 242 829 242 829 c 1
 217 780 205 724 205 662 c 1
 205 662 205 662 205 662 c 1
 205 600 217 545 242 496 c 2
 242 496 428 123 428 123 c 1
 428 123 428 123 428 123 c 1
 446 88 473 58 509 35 c 0
 544 12 584 0 629 0 c 1
 629 0 629 0 629 0 c 1
 723 0 790 41 829 123 c 2
 829 123 1014 496 1014 496 c 1
 1014 496 1014 496 1014 496 c 1
 1040 548 1053 603 1053 662 c 1
 1053 662 1053 662 1053 662 c 1
 1053 722 1040 778 1014 829 c 2
 1014 829 829 1206 829 1206 c 1
 829 1206 829 1206 829 1206 c 1
573 1122 m 1
 586 1148 605 1161 629 1161 c 1
 629 1161 629 1161 629 1161 c 1
 653 1161 671 1148 682 1122 c 2
 682 1122 858 768 858 768 c 1
 858 768 858 768 858 768 c 1
 875 735 883 701 883 664 c 1
 883 664 883 664 883 664 c 1
 883 629 875 594 858 559 c 2
 858 559 678 201 678 201 c 1
 678 201 678 201 678 201 c 1
 667 179 650 168 629 168 c 1
 629 168 629 168 629 168 c 1
 604 168 587 179 578 201 c 2
 578 201 399 559 399 559 c 1
 399 559 399 559 399 559 c 1
 383 592 375 627 375 664 c 1
 375 664 375 664 375 664 c 1
 375 698 383 733 399 768 c 2
 399 768 573 1122 573 1122 c 1
 573 1122 573 1122 573 1122 c 1
1020 1536 m 1
 1047 1553 1061 1576 1061 1605 c 1
 1061 1605 1061 1605 1061 1605 c 1
 1061 1628 1053 1649 1036 1667 c 0
 1019 1685 999 1694 976 1694 c 1
 976 1694 976 1694 976 1694 c 1
 961 1694 945 1689 930 1680 c 2
 930 1680 799 1600 799 1600 c 1
 799 1600 784 1600 784 1600 c 1
 784 1600 522 1688 522 1688 c 1
 522 1688 522 1688 522 1688 c 1
 514 1691 505 1692 496 1692 c 2
 496 1692 442 1692 442 1692 c 1
 442 1692 442 1692 442 1692 c 1
 425 1692 410 1688 397 1680 c 2
 397 1680 246 1588 246 1588 c 1
 246 1588 246 1588 246 1588 c 1
 219 1571 205 1548 205 1519 c 1
 205 1519 205 1519 205 1519 c 1
 205 1496 213 1475 230 1457 c 0
 247 1439 266 1430 289 1430 c 1
 289 1430 289 1430 289 1430 c 1
 305 1430 321 1435 336 1444 c 2
 336 1444 463 1522 463 1522 c 1
 463 1522 487 1522 487 1522 c 1
 487 1522 743 1436 743 1436 c 1
 743 1436 743 1436 743 1436 c 1
 756 1432 765 1430 770 1430 c 2
 770 1430 823 1430 823 1430 c 1
 823 1430 823 1430 823 1430 c 1
 834 1430 849 1435 868 1444 c 2
 868 1444 1020 1536 1020 1536 c 1
 1020 1536 1020 1536 1020 1536 c 1
EndSplineSet
Validated: 5
EndChar

StartChar: Odieresis
Encoding: 214 214 149
Width: 1237
Flags: W
LayerCount: 2
Fore
SplineSet
829 1206 m 1
 789 1288 722 1329 629 1329 c 1
 629 1329 629 1329 629 1329 c 1
 537 1329 470 1288 428 1206 c 2
 428 1206 242 829 242 829 c 1
 242 829 242 829 242 829 c 1
 217 780 205 724 205 662 c 1
 205 662 205 662 205 662 c 1
 205 600 217 545 242 496 c 2
 242 496 428 123 428 123 c 1
 428 123 428 123 428 123 c 1
 446 88 473 58 509 35 c 0
 544 12 584 0 629 0 c 1
 629 0 629 0 629 0 c 1
 723 0 790 41 829 123 c 2
 829 123 1014 496 1014 496 c 1
 1014 496 1014 496 1014 496 c 1
 1040 548 1053 603 1053 662 c 1
 1053 662 1053 662 1053 662 c 1
 1053 722 1040 778 1014 829 c 2
 1014 829 829 1206 829 1206 c 1
 829 1206 829 1206 829 1206 c 1
573 1122 m 1
 586 1148 605 1161 629 1161 c 1
 629 1161 629 1161 629 1161 c 1
 653 1161 671 1148 682 1122 c 2
 682 1122 858 768 858 768 c 1
 858 768 858 768 858 768 c 1
 875 735 883 701 883 664 c 1
 883 664 883 664 883 664 c 1
 883 629 875 594 858 559 c 2
 858 559 678 201 678 201 c 1
 678 201 678 201 678 201 c 1
 667 179 650 168 629 168 c 1
 629 168 629 168 629 168 c 1
 604 168 587 179 578 201 c 2
 578 201 399 559 399 559 c 1
 399 559 399 559 399 559 c 1
 383 592 375 627 375 664 c 1
 375 664 375 664 375 664 c 1
 375 698 383 733 399 768 c 2
 399 768 573 1122 573 1122 c 1
 573 1122 573 1122 573 1122 c 1
1049 1609 m 1
 1049 1609 1049 1609 1049 1609 c 1
 1049 1633 1041 1653 1024 1670 c 0
 1007 1687 988 1695 965 1695 c 1
 965 1695 965 1695 965 1695 c 1
 942 1695 922 1687 906 1670 c 0
 889 1653 881 1633 881 1609 c 2
 881 1609 881 1466 881 1466 c 1
 881 1466 881 1466 881 1466 c 1
 881 1443 889 1423 905 1407 c 0
 921 1390 941 1382 965 1382 c 1
 965 1382 965 1382 965 1382 c 1
 988 1382 1008 1390 1025 1407 c 0
 1041 1423 1049 1443 1049 1466 c 2
 1049 1466 1049 1609 1049 1609 c 1
371 1609 m 1
 371 1609 371 1609 371 1609 c 1
 371 1632 363 1652 347 1669 c 0
 330 1685 310 1693 287 1693 c 1
 287 1693 287 1693 287 1693 c 1
 264 1693 244 1685 228 1669 c 0
 211 1652 203 1632 203 1609 c 2
 203 1609 203 1466 203 1466 c 1
 203 1466 203 1466 203 1466 c 1
 203 1443 211 1423 228 1407 c 0
 244 1390 264 1382 287 1382 c 1
 287 1382 287 1382 287 1382 c 1
 310 1382 330 1390 347 1407 c 0
 363 1423 371 1443 371 1466 c 2
 371 1466 371 1609 371 1609 c 1
EndSplineSet
Validated: 5
EndChar

StartChar: multiply
Encoding: 215 215 150
Width: 1237
Flags: W
LayerCount: 2
Fore
SplineSet
987 893 m 1
 987 893 987 893 987 893 c 1
 1004 910 1012 930 1012 954 c 1
 1012 954 1012 954 1012 954 c 1
 1012 976 1004 995 988 1012 c 0
 972 1029 952 1037 929 1037 c 1
 929 1037 929 1037 929 1037 c 1
 905 1037 885 1029 868 1012 c 2
 868 1012 642 786 642 786 c 1
 642 786 417 1014 417 1014 c 1
 417 1014 417 1014 417 1014 c 1
 402 1029 382 1037 359 1037 c 1
 359 1037 359 1037 359 1037 c 1
 336 1037 316 1029 299 1012 c 0
 282 995 273 974 273 950 c 1
 273 950 273 950 273 950 c 1
 273 928 281 909 296 893 c 2
 296 893 522 668 522 668 c 1
 522 668 296 440 296 440 c 1
 296 440 296 440 296 440 c 1
 280 424 272 405 272 382 c 1
 272 382 272 382 272 382 c 1
 272 359 280 340 296 323 c 0
 311 306 331 298 355 298 c 1
 355 298 355 298 355 298 c 1
 378 298 398 306 415 322 c 2
 415 322 640 549 640 549 c 1
 640 549 868 322 868 322 c 1
 868 322 868 322 868 322 c 1
 885 305 905 296 928 296 c 1
 928 296 928 296 928 296 c 1
 951 296 971 305 988 322 c 0
 1005 339 1013 359 1013 382 c 1
 1013 382 1013 382 1013 382 c 1
 1013 406 1004 426 987 442 c 2
 987 442 761 668 761 668 c 1
 761 668 987 893 987 893 c 1
EndSplineSet
Validated: 5
EndChar

